STARTFONT 2.3
FONT -FontForge-Lobster-Book-R-Normal--9-90-72-72-P-52-ISO10646-1
SIZE 9 72 72  4
FONTBOUNDINGBOX 19 16 -5 -5
COMMENT "Generated by fontforge, http://fontforge.sourceforge.net"
COMMENT "Copyright 2010 The Lobster Project Authors (https://github.com/impallari/The-Lobster-Font), with Reserved Font Name "Lobster"."
STARTPROPERTIES 41
FOUNDRY "FontForge"
FAMILY_NAME "Lobster"
WEIGHT_NAME "Book"
SLANT "R"
SETWIDTH_NAME "Normal"
ADD_STYLE_NAME ""
PIXEL_SIZE 9
POINT_SIZE 90
RESOLUTION_X 72
RESOLUTION_Y 72
SPACING "P"
AVERAGE_WIDTH 52
CHARSET_REGISTRY "ISO10646"
CHARSET_ENCODING "1"
FONTNAME_REGISTRY ""
CHARSET_COLLECTIONS "ISO8859-2 ISO8859-5 ISO8859-9 ISO8859-4 ISO10646-1"
BITS_PER_PIXEL 4
FONT_NAME "Lobster-Regular"
FACE_NAME "Lobster Regular"
COPYRIGHT "Copyright 2010 The Lobster Project Authors (https://github.com/impallari/The-Lobster-Font), with Reserved Font Name "Lobster"."
FONT_VERSION "2.100"
FONT_ASCENT 7
FONT_DESCENT 2
UNDERLINE_POSITION -1
UNDERLINE_THICKNESS 1
X_HEIGHT 5
CAP_HEIGHT 6
DEFAULT_CHAR 1
RAW_ASCENT 800
RAW_DESCENT 200
NORM_SPACE 2
RELATIVE_WEIGHT 40
RELATIVE_SETWIDTH 50
SUPERSCRIPT_X 0
SUPERSCRIPT_Y 3
SUPERSCRIPT_SIZE 5
SUBSCRIPT_X 0
SUBSCRIPT_Y 0
SUBSCRIPT_SIZE 5
AVG_LOWERCASE_WIDTH 42
AVG_UPPERCASE_WIDTH 54
ENDPROPERTIES
CHARS 1148
STARTCHAR NULL.dup1
ENCODING 0
SWIDTH 600 0
DWIDTH 5 0
BBX 1 1 0 0
BITMAP
00
ENDCHAR
STARTCHAR nonmarkingreturn
ENCODING 13
SWIDTH 600 0
DWIDTH 5 0
BBX 1 1 0 0
BITMAP
00
ENDCHAR
STARTCHAR space
ENCODING 32
SWIDTH 217 0
DWIDTH 2 0
BBX 1 1 0 0
BITMAP
00
ENDCHAR
STARTCHAR exclam
ENCODING 33
SWIDTH 257 0
DWIDTH 2 0
BBX 3 8 0 0
BITMAP
0370
09A0
0B60
0D20
0D00
1500
3400
8800
ENDCHAR
STARTCHAR quotedbl
ENCODING 34
SWIDTH 353 0
DWIDTH 3 0
BBX 4 3 0 4
BITMAP
0B78
1A92
1230
ENDCHAR
STARTCHAR numbersign
ENCODING 35
SWIDTH 659 0
DWIDTH 6 0
BBX 6 7 0 0
BITMAP
008080
00A180
0CDDC3
046730
4DCEA0
091A00
070700
ENDCHAR
STARTCHAR dollar
ENCODING 36
SWIDTH 548 0
DWIDTH 5 0
BBX 5 11 0 -2
BITMAP
000200
000700
04AB60
0B98A0
06F300
00CC00
998F40
C36E30
5CD700
070000
020000
ENDCHAR
STARTCHAR percent
ENCODING 37
SWIDTH 796 0
DWIDTH 7 0
BBX 8 7 0 0
BITMAP
09A21900
57848200
85B38000
384839B0
002794C1
0091B1C0
03708840
ENDCHAR
STARTCHAR ampersand
ENCODING 38
SWIDTH 682 0
DWIDTH 6 0
BBX 6 7 0 0
BITMAP
02BA50
0A7580
08A100
2C859B
AD0AA2
CC0560
6ED700
ENDCHAR
STARTCHAR quotesingle
ENCODING 39
SWIDTH 196 0
DWIDTH 2 0
BBX 3 3 0 4
BITMAP
0B20
1B00
2300
ENDCHAR
STARTCHAR parenleft
ENCODING 40
SWIDTH 437 0
DWIDTH 4 0
BBX 4 9 1 -2
BITMAP
0025
02A0
0C20
4B00
8800
A600
8700
4900
0900
ENDCHAR
STARTCHAR parenright
ENCODING 41
SWIDTH 413 0
DWIDTH 4 0
BBX 4 9 -1 -2
BITMAP
0070
0075
004A
003C
005B
0088
00D2
0670
4600
ENDCHAR
STARTCHAR asterisk
ENCODING 42
SWIDTH 515 0
DWIDTH 5 0
BBX 4 4 0 3
BITMAP
1ACB
0AF5
29B9
0180
ENDCHAR
STARTCHAR plus
ENCODING 43
SWIDTH 442 0
DWIDTH 4 0
BBX 4 4 0 1
BITMAP
0470
9ED6
0A10
0500
ENDCHAR
STARTCHAR comma
ENCODING 44
SWIDTH 216 0
DWIDTH 2 0
BBX 2 3 0 -1
BITMAP
96
64
20
ENDCHAR
STARTCHAR hyphen
ENCODING 45
SWIDTH 290 0
DWIDTH 3 0
BBX 3 1 0 2
BITMAP
9B10
ENDCHAR
STARTCHAR period
ENCODING 46
SWIDTH 263 0
DWIDTH 2 0
BBX 2 2 0 0
BITMAP
33
88
ENDCHAR
STARTCHAR slash
ENCODING 47
SWIDTH 311 0
DWIDTH 3 0
BBX 3 9 0 -2
BITMAP
0280
0550
0820
0A00
0A00
3700
6400
9100
A000
ENDCHAR
STARTCHAR zero
ENCODING 48
SWIDTH 546 0
DWIDTH 5 0
BBX 5 7 0 0
BITMAP
03BB60
1E54D0
7E05E0
AB06D0
C90990
B91E30
4DB500
ENDCHAR
STARTCHAR one
ENCODING 49
SWIDTH 317 0
DWIDTH 3 0
BBX 3 8 0 0
BITMAP
0030
3CB0
0C80
0E50
2F20
5E00
8C00
B900
ENDCHAR
STARTCHAR two
ENCODING 50
SWIDTH 492 0
DWIDTH 4 0
BBX 6 7 -1 0
BITMAP
019AA0
0593F3
0155E1
001C30
01A200
0B9570
1BBEA0
ENDCHAR
STARTCHAR three
ENCODING 51
SWIDTH 514 0
DWIDTH 5 0
BBX 5 7 0 0
BITMAP
089C20
0E1B60
024D20
00AB10
771F50
E23F30
7BB600
ENDCHAR
STARTCHAR four
ENCODING 52
SWIDTH 476 0
DWIDTH 4 0
BBX 5 7 0 0
BITMAP
01E100
03E300
0A4A00
595C20
AAED20
00D300
02F100
ENDCHAR
STARTCHAR five
ENCODING 53
SWIDTH 517 0
DWIDTH 5 0
BBX 5 8 0 0
BITMAP
010110
0BFF60
0B1200
2DD900
113F30
790F40
C33E10
7BC500
ENDCHAR
STARTCHAR six
ENCODING 54
SWIDTH 500 0
DWIDTH 5 0
BBX 5 7 0 0
BITMAP
03BA60
1E2330
7CAA00
BA0D40
D70D40
B82D10
4DB300
ENDCHAR
STARTCHAR seven
ENCODING 55
SWIDTH 464 0
DWIDTH 4 0
BBX 5 7 0 0
BITMAP
4EFF80
446C10
007600
04C000
0D5000
4F2000
2E2000
ENDCHAR
STARTCHAR eight
ENCODING 56
SWIDTH 499 0
DWIDTH 4 0
BBX 5 7 0 0
BITMAP
07AA20
1F4870
0CCA10
1AEA00
C64F40
E41F30
6BB600
ENDCHAR
STARTCHAR nine
ENCODING 57
SWIDTH 489 0
DWIDTH 4 0
BBX 5 7 0 0
BITMAP
09AB00
890D50
B71F60
4C8F50
104F10
B1A900
9BA100
ENDCHAR
STARTCHAR colon
ENCODING 58
SWIDTH 267 0
DWIDTH 2 0
BBX 3 4 0 1
BITMAP
1D20
0710
3400
7900
ENDCHAR
STARTCHAR semicolon
ENCODING 59
SWIDTH 276 0
DWIDTH 2 0
BBX 3 6 0 -2
BITMAP
0710
1D20
0000
7900
3600
2000
ENDCHAR
STARTCHAR less
ENCODING 60
SWIDTH 358 0
DWIDTH 3 0
BBX 4 4 0 0
BITMAP
03A1
A910
2A70
0010
ENDCHAR
STARTCHAR equal
ENCODING 61
SWIDTH 515 0
DWIDTH 5 0
BBX 5 4 0 0
BITMAP
3FFF20
122200
9FFB00
122100
ENDCHAR
STARTCHAR greater
ENCODING 62
SWIDTH 362 0
DWIDTH 3 0
BBX 4 4 0 0
BITMAP
5910
05D1
8810
1000
ENDCHAR
STARTCHAR question
ENCODING 63
SWIDTH 441 0
DWIDTH 4 0
BBX 4 7 0 0
BITMAP
29B8
776C
13C4
0930
0700
3500
6A00
ENDCHAR
STARTCHAR at
ENCODING 64
SWIDTH 688 0
DWIDTH 6 0
BBX 7 7 -1 -1
BITMAP
0029BA20
02CA96A0
097A92C0
0C76C470
1B498800
0D207200
04CC8000
ENDCHAR
STARTCHAR A
ENCODING 65
SWIDTH 668 0
DWIDTH 6 0
BBX 7 8 0 -1
BITMAP
00026E20
00197E00
4AD8BB00
C5C0D800
0A71F500
0F23F200
3E06E000
1C000000
ENDCHAR
STARTCHAR B
ENCODING 66
SWIDTH 641 0
DWIDTH 6 0
BBX 6 7 0 0
BITMAP
1888A1
B3E4B2
73FAC1
06C0D6
09A0D6
0C81F2
0F9E80
ENDCHAR
STARTCHAR C
ENCODING 67
SWIDTH 497 0
DWIDTH 4 0
BBX 5 7 0 0
BITMAP
03C870
1E61A0
6F1000
AC0000
CA0000
BD0240
4DD900
ENDCHAR
STARTCHAR D
ENCODING 68
SWIDTH 663 0
DWIDTH 6 0
BBX 6 7 0 0
BITMAP
0777A1
A5E489
C3F17C
27D09B
0AA0C7
0D64F2
1FBE50
ENDCHAR
STARTCHAR E
ENCODING 69
SWIDTH 459 0
DWIDTH 4 0
BBX 5 7 0 0
BITMAP
02BA30
0B6650
0A9000
2C8000
BC0000
DB0320
7EC500
ENDCHAR
STARTCHAR F
ENCODING 70
SWIDTH 459 0
DWIDTH 4 0
BBX 6 7 0 0
BITMAP
3AEFF4
C2F320
74FB20
07B000
0A8000
0D5000
1F3000
ENDCHAR
STARTCHAR G
ENCODING 71
SWIDTH 578 0
DWIDTH 5 0
BBX 6 9 0 -2
BITMAP
04B890
3F30D1
AB0010
C904B0
AB0B90
2CBD60
195F20
585C00
188200
ENDCHAR
STARTCHAR H
ENCODING 72
SWIDTH 665 0
DWIDTH 6 0
BBX 7 7 0 0
BITMAP
13C73F20
B2F37E00
74FBEB00
07C0D800
09A1F500
0C73F200
0F46E000
ENDCHAR
STARTCHAR I
ENCODING 73
SWIDTH 375 0
DWIDTH 3 0
BBX 4 7 0 0
BITMAP
07D7
95F4
D3F1
26D0
09A0
0D70
1F40
ENDCHAR
STARTCHAR J
ENCODING 74
SWIDTH 536 0
DWIDTH 5 0
BBX 6 9 0 -2
BITMAP
0029E1
01B6D0
0489A0
001D70
001F40
004F10
5A8D00
C1C700
587000
ENDCHAR
STARTCHAR K
ENCODING 75
SWIDTH 601 0
DWIDTH 5 0
BBX 6 7 0 0
BITMAP
16D776
C2F850
64EB60
07B5D0
0A87C0
0D6A90
1F3A80
ENDCHAR
STARTCHAR L
ENCODING 76
SWIDTH 379 0
DWIDTH 3 0
BBX 6 9 0 -2
BITMAP
06D700
94F400
C3F100
27D000
0AA000
0D6000
1F6000
028D86
0004DA
ENDCHAR
STARTCHAR M
ENCODING 77
SWIDTH 787 0
DWIDTH 7 0
BBX 8 7 0 0
BITMAP
02AF24F2
2B7F2AF1
47CF2EE0
03BF7CB0
077FBA90
0B4F7C70
385F1E50
ENDCHAR
STARTCHAR N
ENCODING 78
SWIDTH 668 0
DWIDTH 6 0
BBX 7 7 0 0
BITMAP
19E80850
A4FC0B20
D3EF0D00
378F5B00
0A4CB800
0C19F500
1C05F200
ENDCHAR
STARTCHAR O
ENCODING 79
SWIDTH 665 0
DWIDTH 6 0
BBX 6 7 0 0
BITMAP
0578A3
77C65B
C7D05D
2C807C
0F60C7
0F54E1
08DB30
ENDCHAR
STARTCHAR P
ENCODING 80
SWIDTH 573 0
DWIDTH 5 0
BBX 6 7 0 0
BITMAP
067790
94E4B4
D3F1D3
27D790
0AB300
0D7000
1F4000
ENDCHAR
STARTCHAR Q
ENCODING 81
SWIDTH 665 0
DWIDTH 6 0
BBX 6 8 0 -1
BITMAP
0679A3
77C55B
C7D05D
1C808B
0F60C7
0F9AE1
08DE60
0004D3
ENDCHAR
STARTCHAR R
ENCODING 82
SWIDTH 601 0
DWIDTH 5 0
BBX 6 7 0 0
BITMAP
1788A1
C2F3C2
64EB90
07B5D0
0A87C0
0D6A90
1F3A80
ENDCHAR
STARTCHAR S
ENCODING 83
SWIDTH 570 0
DWIDTH 5 0
BBX 5 7 0 0
BITMAP
02B890
08B1D0
05F410
00AE20
5D2E80
960C80
3BB910
ENDCHAR
STARTCHAR T
ENCODING 84
SWIDTH 481 0
DWIDTH 4 0
BBX 7 7 0 0
BITMAP
2ADFEF40
B37C0000
C0A90000
10D60000
01F30000
04F00000
07C00000
ENDCHAR
STARTCHAR U
ENCODING 85
SWIDTH 716 0
DWIDTH 6 0
BBX 7 7 0 0
BITMAP
17BB08B0
B2C70B80
C1F30E50
24E02F20
08B06D00
08A0C800
03DD9000
ENDCHAR
STARTCHAR V
ENCODING 86
SWIDTH 615 0
DWIDTH 6 0
BBX 7 7 0 0
BITMAP
06C90910
94B90800
D0B94400
20B98000
00AA7000
00AE3000
00AD0000
ENDCHAR
STARTCHAR W
ENCODING 87
SWIDTH 962 0
DWIDTH 9 0
BBX 10 7 0 0
BITMAP
06C909A072
94B90EB090
D0B94DB260
20B989B710
00AA79B700
00AE38E500
00AD08E000
ENDCHAR
STARTCHAR X
ENCODING 88
SWIDTH 620 0
DWIDTH 6 0
BBX 6 7 0 0
BITMAP
06CA45
949D90
D06F40
203F40
006F70
018CA0
0719D0
ENDCHAR
STARTCHAR Y
ENCODING 89
SWIDTH 620 0
DWIDTH 6 0
BBX 7 7 0 0
BITMAP
06CA0710
948E0800
D05F7300
201FB000
000F7000
003F4000
006F1000
ENDCHAR
STARTCHAR Z
ENCODING 90
SWIDTH 542 0
DWIDTH 5 0
BBX 5 7 0 0
BITMAP
1B8EB0
153F40
00BB00
03F400
0AC000
3F4440
AF9B40
ENDCHAR
STARTCHAR bracketleft
ENCODING 91
SWIDTH 400 0
DWIDTH 4 0
BBX 4 9 0 -2
BITMAP
04C6
0770
0B30
0D00
2C00
5900
8600
B200
E800
ENDCHAR
STARTCHAR backslash
ENCODING 92
SWIDTH 362 0
DWIDTH 3 0
BBX 3 9 0 -2
BITMAP
8200
5500
1800
0A00
0A00
0730
0460
0190
00A0
ENDCHAR
STARTCHAR bracketright
ENCODING 93
SWIDTH 400 0
DWIDTH 4 0
BBX 5 9 -1 -2
BITMAP
006E30
000D00
002B00
006800
009500
00C200
01D000
04B000
4B7000
ENDCHAR
STARTCHAR asciicircum
ENCODING 94
SWIDTH 421 0
DWIDTH 4 0
BBX 3 2 0 6
BITMAP
0390
2880
ENDCHAR
STARTCHAR underscore
ENCODING 95
SWIDTH 444 0
DWIDTH 4 0
BBX 4 1 0 0
BITMAP
7BB6
ENDCHAR
STARTCHAR grave
ENCODING 96
SWIDTH 201 0
DWIDTH 2 0
BBX 2 2 0 6
BITMAP
83
45
ENDCHAR
STARTCHAR a
ENCODING 97
SWIDTH 526 0
DWIDTH 5 0
BBX 6 5 -1 0
BITMAP
02C9F3
0AA4F1
0E57D0
1F4BA4
0BC8E5
ENDCHAR
STARTCHAR b
ENCODING 98
SWIDTH 444 0
DWIDTH 4 0
BBX 4 7 0 0
BITMAP
1C30
4F00
7EC5
A949
D658
F4B4
BE70
ENDCHAR
STARTCHAR c
ENCODING 99
SWIDTH 384 0
DWIDTH 3 0
BBX 5 5 -1 0
BITMAP
01BA20
0A9410
0E5000
1F4140
0BD800
ENDCHAR
STARTCHAR d
ENCODING 100
SWIDTH 525 0
DWIDTH 5 0
BBX 6 7 -1 0
BITMAP
000088
0000D6
02C9F3
0AA4F1
0E57D0
1F4BA4
0BC8E5
ENDCHAR
STARTCHAR e
ENCODING 101
SWIDTH 384 0
DWIDTH 3 0
BBX 5 5 -1 0
BITMAP
01BA20
0A9920
0E9400
1F4150
0BD700
ENDCHAR
STARTCHAR f
ENCODING 102
SWIDTH 267 0
DWIDTH 2 0
BBX 6 9 -2 -2
BITMAP
000AD4
003F12
007D30
00A900
00D600
01F300
06F000
69B000
9E4000
ENDCHAR
STARTCHAR g
ENCODING 103
SWIDTH 507 0
DWIDTH 5 0
BBX 6 7 -1 -2
BITMAP
02C9F3
0AA4F1
0E57C0
1F4BA4
0BDE92
028F30
04DA00
ENDCHAR
STARTCHAR h
ENCODING 104
SWIDTH 505 0
DWIDTH 5 0
BBX 6 7 -1 0
BITMAP
01C300
04F000
07EDA0
0AB7C0
0D69A0
1F4B75
4F18D4
ENDCHAR
STARTCHAR i
ENCODING 105
SWIDTH 267 0
DWIDTH 2 0
BBX 4 7 -1 0
BITMAP
01D1
0070
07C0
0A90
0D70
1F45
0DC2
ENDCHAR
STARTCHAR j
ENCODING 106
SWIDTH 240 0
DWIDTH 2 0
BBX 5 9 -2 -2
BITMAP
002D10
001600
007C00
00A900
00D600
01F540
06F500
6BC000
8D4000
ENDCHAR
STARTCHAR k
ENCODING 107
SWIDTH 518 0
DWIDTH 5 0
BBX 6 7 -1 0
BITMAP
01D300
04F000
07C480
0ADD40
0D9BA0
1F4B95
4F18E5
ENDCHAR
STARTCHAR l
ENCODING 108
SWIDTH 267 0
DWIDTH 2 0
BBX 4 7 -1 0
BITMAP
02F3
05F0
07C0
0A90
0D60
1F56
0DC1
ENDCHAR
STARTCHAR m
ENCODING 109
SWIDTH 752 0
DWIDTH 7 0
BBX 8 5 -1 0
BITMAP
07EDABD0
0AB7D4F1
0D6AA6D0
1F4D78A4
4F1F45E6
ENDCHAR
STARTCHAR n
ENCODING 110
SWIDTH 505 0
DWIDTH 5 0
BBX 6 5 -1 0
BITMAP
07EDA0
0AA7C0
0D69A0
1F4B75
4F18D4
ENDCHAR
STARTCHAR o
ENCODING 111
SWIDTH 439 0
DWIDTH 4 0
BBX 6 5 -1 0
BITMAP
01BB30
0AA6A6
0E5660
1F4A20
0BE600
ENDCHAR
STARTCHAR p
ENCODING 112
SWIDTH 468 0
DWIDTH 4 0
BBX 5 9 -1 -3
BITMAP
037000
08ECA0
0AA4E0
0D76D0
1F4B90
4FDC20
7D0000
AA0000
410000
ENDCHAR
STARTCHAR q
ENCODING 113
SWIDTH 486 0
DWIDTH 4 0
BBX 6 8 -1 -3
BITMAP
02C9F3
0AA4F1
0E57C0
1F4B90
0BDE70
001F40
004F10
002300
ENDCHAR
STARTCHAR r
ENCODING 114
SWIDTH 376 0
DWIDTH 3 0
BBX 5 5 -1 0
BITMAP
07EC50
0A9320
0D6000
1F4000
4F1000
ENDCHAR
STARTCHAR s
ENCODING 115
SWIDTH 382 0
DWIDTH 3 0
BBX 5 6 -1 0
BITMAP
004400
00EA00
04BB00
078C00
378E40
1BD400
ENDCHAR
STARTCHAR t
ENCODING 116
SWIDTH 267 0
DWIDTH 2 0
BBX 4 7 -1 0
BITMAP
0171
04F0
09D2
0A90
0D70
1F45
0DC2
ENDCHAR
STARTCHAR u
ENCODING 117
SWIDTH 505 0
DWIDTH 5 0
BBX 6 5 -1 0
BITMAP
07C4F1
0A97D0
0D7AA0
1F5D75
0DC9D3
ENDCHAR
STARTCHAR v
ENCODING 118
SWIDTH 414 0
DWIDTH 4 0
BBX 5 5 -1 0
BITMAP
07C670
0A9180
0D7450
1F4A10
0CD400
ENDCHAR
STARTCHAR w
ENCODING 119
SWIDTH 661 0
DWIDTH 6 0
BBX 7 5 -1 0
BITMAP
07C4F4A0
0A97D080
0D7AA180
1F5D7830
0DBAE600
ENDCHAR
STARTCHAR x
ENCODING 120
SWIDTH 522 0
DWIDTH 5 0
BBX 5 6 0 0
BITMAP
000750
1AC360
52F910
60F500
17D650
547E50
ENDCHAR
STARTCHAR y
ENCODING 121
SWIDTH 486 0
DWIDTH 4 0
BBX 6 7 -1 -2
BITMAP
07C4F1
0A97D0
0D7AA0
1F5D74
0DCF71
049F10
06D800
ENDCHAR
STARTCHAR z
ENCODING 122
SWIDTH 428 0
DWIDTH 4 0
BBX 4 5 0 0
BITMAP
4AE9
35E2
0B80
3E43
BEB4
ENDCHAR
STARTCHAR braceleft
ENCODING 123
SWIDTH 352 0
DWIDTH 3 0
BBX 4 9 0 -2
BITMAP
01B4
0680
0860
0A40
4C00
0D00
4A00
8800
5B00
ENDCHAR
STARTCHAR bar
ENCODING 124
SWIDTH 532 0
DWIDTH 5 0
BBX 1 9 2 -2
BITMAP
C0
C0
C0
C0
C0
C0
C0
C0
C0
ENDCHAR
STARTCHAR braceright
ENCODING 125
SWIDTH 352 0
DWIDTH 3 0
BBX 4 9 -1 -2
BITMAP
00C5
0078
00A4
00D1
00B5
04A0
0680
0860
4B10
ENDCHAR
STARTCHAR asciitilde
ENCODING 126
SWIDTH 431 0
DWIDTH 4 0
BBX 4 1 0 6
BITMAP
18EA
ENDCHAR
STARTCHAR uni00A0
ENCODING 160
SWIDTH 217 0
DWIDTH 2 0
BBX 1 1 0 0
BITMAP
00
ENDCHAR
STARTCHAR exclamdown
ENCODING 161
SWIDTH 219 0
DWIDTH 2 0
BBX 3 8 -1 -3
BITMAP
03D0
0160
0230
0850
0B30
1F10
4E00
4600
ENDCHAR
STARTCHAR cent
ENCODING 162
SWIDTH 384 0
DWIDTH 3 0
BBX 4 8 0 -1
BITMAP
0070
09C7
7978
D730
DA20
5EA0
0700
0100
ENDCHAR
STARTCHAR sterling
ENCODING 163
SWIDTH 455 0
DWIDTH 4 0
BBX 5 7 0 0
BITMAP
00AA60
05D450
099000
5DB500
0F3000
4D1330
BFFE30
ENDCHAR
STARTCHAR currency
ENCODING 164
SWIDTH 500 0
DWIDTH 5 0
BBX 4 4 0 2
BITMAP
1001
2B98
1708
2A98
ENDCHAR
STARTCHAR yen
ENCODING 165
SWIDTH 558 0
DWIDTH 5 0
BBX 6 7 0 0
BITMAP
0E8081
0AC170
07F620
03FA00
08FA40
1AF920
08E000
ENDCHAR
STARTCHAR brokenbar
ENCODING 166
SWIDTH 532 0
DWIDTH 5 0
BBX 1 9 2 -2
BITMAP
C0
C0
C0
C0
D0
C0
C0
C0
C0
ENDCHAR
STARTCHAR section
ENCODING 167
SWIDTH 542 0
DWIDTH 5 0
BBX 5 8 0 -1
BITMAP
01A670
05D050
0BF600
3D7F40
0AC880
64DC30
D0B600
588000
ENDCHAR
STARTCHAR dieresis
ENCODING 168
SWIDTH 392 0
DWIDTH 4 0
BBX 4 1 0 6
BITMAP
4581
ENDCHAR
STARTCHAR copyright
ENCODING 169
SWIDTH 587 0
DWIDTH 5 0
BBX 5 6 0 0
BITMAP
047600
278750
770370
781160
268750
046500
ENDCHAR
STARTCHAR ordfeminine
ENCODING 170
SWIDTH 345 0
DWIDTH 3 0
BBX 3 3 0 4
BITMAP
38B0
8680
3540
ENDCHAR
STARTCHAR guillemotleft
ENCODING 171
SWIDTH 589 0
DWIDTH 5 0
BBX 5 3 0 1
BITMAP
027360
759500
176830
ENDCHAR
STARTCHAR logicalnot
ENCODING 172
SWIDTH 444 0
DWIDTH 4 0
BBX 4 3 0 0
BITMAP
9CD7
00B5
0051
ENDCHAR
STARTCHAR uni00AD
ENCODING 173
SWIDTH 290 0
DWIDTH 3 0
BBX 3 1 0 2
BITMAP
9B10
ENDCHAR
STARTCHAR registered
ENCODING 174
SWIDTH 553 0
DWIDTH 5 0
BBX 5 6 0 0
BITMAP
056500
486640
760660
768360
481740
056400
ENDCHAR
STARTCHAR macron
ENCODING 175
SWIDTH 446 0
DWIDTH 4 0
BBX 4 1 0 6
BITMAP
3BB7
ENDCHAR
STARTCHAR degree
ENCODING 176
SWIDTH 314 0
DWIDTH 3 0
BBX 3 4 0 3
BITMAP
1730
7370
A350
5700
ENDCHAR
STARTCHAR plusminus
ENCODING 177
SWIDTH 479 0
DWIDTH 4 0
BBX 4 6 0 1
BITMAP
0010
00B0
5CEB
0460
0320
8CC5
ENDCHAR
STARTCHAR uni00B2
ENCODING 178
SWIDTH 328 0
DWIDTH 3 0
BBX 3 4 0 3
BITMAP
17A0
0580
1600
6C80
ENDCHAR
STARTCHAR uni00B3
ENCODING 179
SWIDTH 336 0
DWIDTH 3 0
BBX 3 4 0 3
BITMAP
19A0
0570
64C0
3740
ENDCHAR
STARTCHAR acute
ENCODING 180
SWIDTH 316 0
DWIDTH 3 0
BBX 2 2 1 6
BITMAP
58
91
ENDCHAR
STARTCHAR uni00B5
ENCODING 181
SWIDTH 505 0
DWIDTH 5 0
BBX 6 7 -1 -2
BITMAP
07C4F1
0A97D0
0D7AA0
1F5D75
4FB9D4
7D0000
540000
ENDCHAR
STARTCHAR paragraph
ENCODING 182
SWIDTH 542 0
DWIDTH 5 0
BBX 5 9 0 -2
BITMAP
06ED30
2FFA80
5FF970
2FFA40
04DD10
03AC00
06AA00
09A700
011000
ENDCHAR
STARTCHAR periodcentered
ENCODING 183
SWIDTH 434 0
DWIDTH 4 0
BBX 2 2 1 2
BITMAP
98
B9
ENDCHAR
STARTCHAR cedilla
ENCODING 184
SWIDTH 227 0
DWIDTH 2 0
BBX 3 3 0 -2
BITMAP
3500
2C10
6700
ENDCHAR
STARTCHAR uni00B9
ENCODING 185
SWIDTH 229 0
DWIDTH 2 0
BBX 2 5 0 3
BITMAP
03
4C
39
66
41
ENDCHAR
STARTCHAR ordmasculine
ENCODING 186
SWIDTH 329 0
DWIDTH 3 0
BBX 3 3 0 4
BITMAP
4870
9520
3500
ENDCHAR
STARTCHAR guillemotright
ENCODING 187
SWIDTH 586 0
DWIDTH 5 0
BBX 5 3 0 1
BITMAP
262600
03A3A0
567620
ENDCHAR
STARTCHAR onequarter
ENCODING 188
SWIDTH 749 0
DWIDTH 7 0
BBX 7 8 0 0
BITMAP
03000000
4C008200
39028000
66091000
41375870
00917860
03608C50
09000B00
ENDCHAR
STARTCHAR onehalf
ENCODING 189
SWIDTH 745 0
DWIDTH 7 0
BBX 7 8 0 0
BITMAP
03000000
4C008200
39028000
66091000
41374860
00912750
03602700
0900AA40
ENDCHAR
STARTCHAR threequarters
ENCODING 190
SWIDTH 836 0
DWIDTH 8 0
BBX 8 7 0 0
BITMAP
19A00900
05705500
64C09000
37464885
000909A2
007319D2
019001B0
ENDCHAR
STARTCHAR questiondown
ENCODING 191
SWIDTH 439 0
DWIDTH 4 0
BBX 5 7 -1 -2
BITMAP
000D30
000610
000700
006600
079300
1F3B30
0BA900
ENDCHAR
STARTCHAR Agrave
ENCODING 192
SWIDTH 668 0
DWIDTH 6 0
BBX 7 11 0 -1
BITMAP
00006500
00004800
00000000
00026E20
00197E00
4AD8BB00
C5C0D800
0A71F500
0F23F200
3E06E000
1C000000
ENDCHAR
STARTCHAR Aacute
ENCODING 193
SWIDTH 668 0
DWIDTH 6 0
BBX 7 11 0 -1
BITMAP
000003A0
00000920
00000000
00026E20
00197E00
4AD8BB00
C5C0D800
0A71F500
0F23F200
3E06E000
1C000000
ENDCHAR
STARTCHAR Acircumflex
ENCODING 194
SWIDTH 668 0
DWIDTH 6 0
BBX 7 11 0 -1
BITMAP
00000570
00004770
00000000
00026E20
00197E00
4AD8BB00
C5C0D800
0A71F500
0F23F200
3E06E000
1C000000
ENDCHAR
STARTCHAR Atilde
ENCODING 195
SWIDTH 668 0
DWIDTH 6 0
BBX 8 10 0 -1
BITMAP
00006EC1
00000000
00026E20
00197E00
4AD8BB00
C5C0D800
0A71F500
0F23F200
3E06E000
1C000000
ENDCHAR
STARTCHAR Adieresis
ENCODING 196
SWIDTH 668 0
DWIDTH 6 0
BBX 7 10 0 -1
BITMAP
0000B4A0
00001010
00026E20
00197E00
4AD8BB00
C5C0D800
0A71F500
0F23F200
3E06E000
1C000000
ENDCHAR
STARTCHAR Aring
ENCODING 197
SWIDTH 668 0
DWIDTH 6 0
BBX 7 11 0 -1
BITMAP
00001610
00001600
00000000
00026E20
00197E00
4AD8BB00
C5C0D800
0A71F500
0F23F200
3E06E000
1C000000
ENDCHAR
STARTCHAR AE
ENCODING 198
SWIDTH 764 0
DWIDTH 7 0
BBX 9 8 0 -1
BITMAP
00028FBB10
002A6E0000
3AD7AB0000
D6C1DDA000
5A70F50000
1F23F20000
3E06FFE000
2C00000000
ENDCHAR
STARTCHAR Ccedilla
ENCODING 199
SWIDTH 497 0
DWIDTH 4 0
BBX 5 9 0 -2
BITMAP
03C870
1E71B0
6F1000
AC0000
CA0000
BC0140
4EDA10
02A100
036100
ENDCHAR
STARTCHAR Egrave
ENCODING 200
SWIDTH 459 0
DWIDTH 4 0
BBX 5 10 0 0
BITMAP
009400
004500
000000
02BA30
0B6650
0A9000
2C8000
BC0000
DB0320
7EC500
ENDCHAR
STARTCHAR Eacute
ENCODING 201
SWIDTH 459 0
DWIDTH 4 0
BBX 5 10 0 0
BITMAP
000670
000B00
000000
02BA30
0B6650
0A9000
2C8000
BC0000
DB0320
7EC500
ENDCHAR
STARTCHAR Ecircumflex
ENCODING 202
SWIDTH 459 0
DWIDTH 4 0
BBX 5 10 0 0
BITMAP
000B10
008640
000000
02BA30
0B6650
0A9000
2C8000
BC0000
DB0320
7EC500
ENDCHAR
STARTCHAR Edieresis
ENCODING 203
SWIDTH 459 0
DWIDTH 4 0
BBX 5 9 0 0
BITMAP
00B4B0
001010
02BA30
0B6650
0A9000
2C8000
BC0000
DB0320
7EC500
ENDCHAR
STARTCHAR Igrave
ENCODING 204
SWIDTH 375 0
DWIDTH 3 0
BBX 4 10 0 0
BITMAP
00B0
00A1
0000
07D7
95F4
D3F1
26D0
09A0
0D70
1F40
ENDCHAR
STARTCHAR Iacute
ENCODING 205
SWIDTH 375 0
DWIDTH 3 0
BBX 5 10 0 0
BITMAP
000B20
002900
000000
07D700
95F400
D3F100
26D000
09A000
0D7000
1F4000
ENDCHAR
STARTCHAR Icircumflex
ENCODING 206
SWIDTH 375 0
DWIDTH 3 0
BBX 5 10 0 0
BITMAP
002A00
028810
000000
07D700
95F400
D3F100
26D000
09A000
0D7000
1F4000
ENDCHAR
STARTCHAR Idieresis
ENCODING 207
SWIDTH 375 0
DWIDTH 3 0
BBX 5 9 0 0
BITMAP
03A940
001100
07D700
95F400
D3F100
26D000
09A000
0D7000
1F4000
ENDCHAR
STARTCHAR Eth
ENCODING 208
SWIDTH 663 0
DWIDTH 6 0
BBX 6 7 0 0
BITMAP
0677A2
94E489
D3F17C
3AE69B
09A0C7
0D74F2
1FBE50
ENDCHAR
STARTCHAR Ntilde
ENCODING 209
SWIDTH 686 0
DWIDTH 6 0
BBX 7 10 0 0
BITMAP
00001000
001AFB10
00002100
19E80850
A4FC0B20
D3EF0D00
378F5B00
0A4CB800
0C19F500
1C05F200
ENDCHAR
STARTCHAR Ograve
ENCODING 210
SWIDTH 665 0
DWIDTH 6 0
BBX 6 10 0 0
BITMAP
002900
000B00
000000
0578A3
77C65B
C7D05D
2C807C
0F60C7
0F54E1
08DB30
ENDCHAR
STARTCHAR Oacute
ENCODING 211
SWIDTH 665 0
DWIDTH 6 0
BBX 6 10 0 0
BITMAP
0000C2
000380
000000
0578A3
77C65B
C7D05D
2C807C
0F60C7
0F54E1
08DB30
ENDCHAR
STARTCHAR Ocircumflex
ENCODING 212
SWIDTH 665 0
DWIDTH 6 0
BBX 6 10 0 0
BITMAP
000390
002880
000000
0578A3
77C65B
C7D05D
2C807C
0F60C7
0F54E1
08DB30
ENDCHAR
STARTCHAR Otilde
ENCODING 213
SWIDTH 665 0
DWIDTH 6 0
BBX 6 9 0 0
BITMAP
0018EA
000000
0578A3
77C65B
C7D05D
2C807C
0F60C7
0F54E1
08DB30
ENDCHAR
STARTCHAR Odieresis
ENCODING 214
SWIDTH 665 0
DWIDTH 6 0
BBX 6 9 0 0
BITMAP
0048A3
000110
0578A3
77C65B
C7D05D
2C807C
0F60C7
0F54E1
08DB30
ENDCHAR
STARTCHAR multiply
ENCODING 215
SWIDTH 414 0
DWIDTH 4 0
BBX 4 4 0 1
BITMAP
2130
3CB1
4BB1
1120
ENDCHAR
STARTCHAR Oslash
ENCODING 216
SWIDTH 658 0
DWIDTH 6 0
BBX 6 8 0 -1
BITMAP
0568C2
66AD98
C6E68A
3C96A9
0F56E5
0F69D0
09DD20
005000
ENDCHAR
STARTCHAR Ugrave
ENCODING 217
SWIDTH 716 0
DWIDTH 6 0
BBX 7 10 0 0
BITMAP
00038000
0000B000
00000000
17CA09A0
A2D60C70
C1F20F40
25D03F10
08A07C00
09A1D700
05EE9000
ENDCHAR
STARTCHAR Uacute
ENCODING 218
SWIDTH 716 0
DWIDTH 6 0
BBX 7 10 0 0
BITMAP
00006800
0000A100
00000000
17CA09A0
A2D60C70
C1F20F40
25D03F10
08A07C00
09A1D700
05EE9000
ENDCHAR
STARTCHAR Ucircumflex
ENCODING 219
SWIDTH 716 0
DWIDTH 6 0
BBX 7 10 0 0
BITMAP
00005700
00047700
00000000
17CA09A0
A2D60C70
C1F20F40
25D03F10
08A07C00
09A1D700
05EE9000
ENDCHAR
STARTCHAR Udieresis
ENCODING 220
SWIDTH 716 0
DWIDTH 6 0
BBX 7 9 0 0
BITMAP
00076C10
00010100
17CA09A0
A2D60C70
C1F20F40
25D03F10
08A07C00
09A1D700
05EE9000
ENDCHAR
STARTCHAR Yacute
ENCODING 221
SWIDTH 620 0
DWIDTH 6 0
BBX 7 10 0 0
BITMAP
00000C00
00006600
00000000
06CA0710
948E0800
D05F7300
201FB000
000F7000
003F4000
006F1000
ENDCHAR
STARTCHAR Thorn
ENCODING 222
SWIDTH 583 0
DWIDTH 5 0
BBX 6 8 0 0
BITMAP
008600
01EA50
2DF2C2
B9F0B5
D6D0D3
39A5B0
0DA710
1F4000
ENDCHAR
STARTCHAR germandbls
ENCODING 223
SWIDTH 480 0
DWIDTH 4 0
BBX 5 10 -1 -3
BITMAP
007B80
02F2A0
06D540
09A930
0C74C0
0F44D0
3F6B60
6D0000
9B0000
310000
ENDCHAR
STARTCHAR agrave
ENCODING 224
SWIDTH 526 0
DWIDTH 5 0
BBX 6 7 -1 0
BITMAP
000D00
000810
02C9F3
0AA4F1
0E57D0
1F4BA4
0BC8E5
ENDCHAR
STARTCHAR aacute
ENCODING 225
SWIDTH 526 0
DWIDTH 5 0
BBX 6 7 -1 0
BITMAP
000490
000510
02C9F3
0AA4F1
0E57D0
1F4BA4
0BC8E5
ENDCHAR
STARTCHAR acircumflex
ENCODING 226
SWIDTH 526 0
DWIDTH 5 0
BBX 6 7 -1 0
BITMAP
000590
002330
02C9F3
0AA4F1
0E57D0
1F4BA4
0BC8E5
ENDCHAR
STARTCHAR atilde
ENCODING 227
SWIDTH 526 0
DWIDTH 5 0
BBX 6 7 -1 0
BITMAP
006EB4
000130
02C9F3
0AA4F1
0E57D0
1F4BA4
0BC8E5
ENDCHAR
STARTCHAR adieresis
ENCODING 228
SWIDTH 526 0
DWIDTH 5 0
BBX 6 7 -1 0
BITMAP
004993
000110
02C9F3
0AA4F1
0E57D0
1F4BA4
0BC8E5
ENDCHAR
STARTCHAR aring
ENCODING 229
SWIDTH 526 0
DWIDTH 5 0
BBX 6 7 -1 0
BITMAP
000640
000520
02C9F3
0AA4F1
0E57D0
1F4BA4
0BC8E5
ENDCHAR
STARTCHAR ae
ENCODING 230
SWIDTH 650 0
DWIDTH 6 0
BBX 6 5 0 0
BITMAP
18CBB8
007E48
6BDC60
F4DA05
CC7EA2
ENDCHAR
STARTCHAR ccedilla
ENCODING 231
SWIDTH 384 0
DWIDTH 3 0
BBX 5 7 -1 -2
BITMAP
01BA20
0A9410
0E5000
1F4140
0BE900
008500
016400
ENDCHAR
STARTCHAR egrave
ENCODING 232
SWIDTH 384 0
DWIDTH 3 0
BBX 5 7 -1 0
BITMAP
007600
002700
01BA20
0A9920
0E9400
1F4150
0BD700
ENDCHAR
STARTCHAR eacute
ENCODING 233
SWIDTH 384 0
DWIDTH 3 0
BBX 5 7 -1 0
BITMAP
000760
000600
01BA20
0A9920
0E9400
1F4150
0BD700
ENDCHAR
STARTCHAR ecircumflex
ENCODING 234
SWIDTH 384 0
DWIDTH 3 0
BBX 5 7 -1 0
BITMAP
001A30
005130
01BA20
0A9920
0E9400
1F4150
0BD700
ENDCHAR
STARTCHAR edieresis
ENCODING 235
SWIDTH 384 0
DWIDTH 3 0
BBX 5 7 -1 0
BITMAP
00C4A0
001010
01BA20
0A9920
0E9400
1F4150
0BD700
ENDCHAR
STARTCHAR igrave
ENCODING 236
SWIDTH 267 0
DWIDTH 2 0
BBX 4 7 -1 0
BITMAP
0580
0180
07C0
0A90
0D70
1F45
0DC2
ENDCHAR
STARTCHAR iacute
ENCODING 237
SWIDTH 267 0
DWIDTH 2 0
BBX 4 7 -1 0
BITMAP
0076
0060
07C0
0A90
0D70
1F45
0DC2
ENDCHAR
STARTCHAR icircumflex
ENCODING 238
SWIDTH 267 0
DWIDTH 2 0
BBX 4 7 -1 0
BITMAP
01A4
0413
07C0
0A90
0D70
1F45
0DC2
ENDCHAR
STARTCHAR idieresis
ENCODING 239
SWIDTH 267 0
DWIDTH 2 0
BBX 4 7 -1 0
BITMAP
0B5A
0101
07C0
0A90
0D70
1F45
0DC2
ENDCHAR
STARTCHAR eth
ENCODING 240
SWIDTH 526 0
DWIDTH 5 0
BBX 6 8 -1 0
BITMAP
000220
0008D7
0014F2
02C9F3
0AA4F1
0E57D0
1F4BA4
0BC8E5
ENDCHAR
STARTCHAR ntilde
ENCODING 241
SWIDTH 505 0
DWIDTH 5 0
BBX 6 7 -1 0
BITMAP
009EA2
000210
07EDA0
0AA7C0
0D69A0
1F4B75
4F18D4
ENDCHAR
STARTCHAR ograve
ENCODING 242
SWIDTH 433 0
DWIDTH 4 0
BBX 6 7 -1 0
BITMAP
004900
000900
02BB30
0B97A6
1F4750
2F3B10
0CD600
ENDCHAR
STARTCHAR oacute
ENCODING 243
SWIDTH 439 0
DWIDTH 4 0
BBX 6 7 -1 0
BITMAP
000670
000600
01BB30
0AA6A6
0E5660
1F4A20
0BE600
ENDCHAR
STARTCHAR ocircumflex
ENCODING 244
SWIDTH 433 0
DWIDTH 4 0
BBX 6 7 -1 0
BITMAP
001B20
005130
02BB30
0B97A6
1F4750
2F3B10
0CD600
ENDCHAR
STARTCHAR otilde
ENCODING 245
SWIDTH 433 0
DWIDTH 4 0
BBX 6 7 -1 0
BITMAP
03DD70
001400
02BB30
0B97A6
1F4750
2F3B10
0CD600
ENDCHAR
STARTCHAR odieresis
ENCODING 246
SWIDTH 433 0
DWIDTH 4 0
BBX 6 7 -1 0
BITMAP
00D580
001010
02BB30
0B97A6
1F4750
2F3B10
0CD600
ENDCHAR
STARTCHAR divide
ENCODING 247
SWIDTH 415 0
DWIDTH 4 0
BBX 4 5 0 1
BITMAP
04C0
0160
7CC7
0620
0C50
ENDCHAR
STARTCHAR oslash
ENCODING 248
SWIDTH 428 0
DWIDTH 4 0
BBX 6 6 -1 -1
BITMAP
01BA91
0AA770
0F9B60
1F8B20
0DD600
310000
ENDCHAR
STARTCHAR ugrave
ENCODING 249
SWIDTH 505 0
DWIDTH 5 0
BBX 6 7 -1 0
BITMAP
003A00
000900
07C4F1
0A97D0
0D7AA0
1F5D75
0DC9D3
ENDCHAR
STARTCHAR uacute
ENCODING 250
SWIDTH 505 0
DWIDTH 5 0
BBX 6 7 -1 0
BITMAP
000580
000500
07C4F1
0A97D0
0D7AA0
1F5D75
0DC9D3
ENDCHAR
STARTCHAR ucircumflex
ENCODING 251
SWIDTH 505 0
DWIDTH 5 0
BBX 6 7 -1 0
BITMAP
000860
003130
07C4F1
0A97D0
0D7AA0
1F5D75
0DC9D3
ENDCHAR
STARTCHAR udieresis
ENCODING 252
SWIDTH 505 0
DWIDTH 5 0
BBX 6 7 -1 0
BITMAP
00A4C0
001010
07C4F1
0A97D0
0D7AA0
1F5D75
0DC9D3
ENDCHAR
STARTCHAR yacute
ENCODING 253
SWIDTH 505 0
DWIDTH 5 0
BBX 6 9 -1 -2
BITMAP
000580
000500
07C4F1
0A97D0
0D7AA0
1F5D74
0DCF71
049F10
06D800
ENDCHAR
STARTCHAR thorn
ENCODING 254
SWIDTH 473 0
DWIDTH 4 0
BBX 5 11 -1 -3
BITMAP
004200
01F300
04F000
07ECA0
0AA4E0
0D66D0
1F4B90
4FAC10
7D0000
AA0000
410000
ENDCHAR
STARTCHAR ydieresis
ENCODING 255
SWIDTH 505 0
DWIDTH 5 0
BBX 6 9 -1 -2
BITMAP
00B4A0
001010
07C4F1
0A97D0
0D7AA0
1F5D74
0DCF71
049F10
06D800
ENDCHAR
STARTCHAR Amacron
ENCODING 256
SWIDTH 668 0
DWIDTH 6 0
BBX 7 10 0 -1
BITMAP
0000ABB0
00000000
00026E20
00197E00
4AD8BB00
C5C0D800
0A71F500
0F23F200
3E06E000
1C000000
ENDCHAR
STARTCHAR amacron
ENCODING 257
SWIDTH 526 0
DWIDTH 5 0
BBX 6 7 -1 0
BITMAP
005BB5
000000
02C9F3
0AA4F1
0E57D0
1F4BA4
0BC8E5
ENDCHAR
STARTCHAR Abreve
ENCODING 258
SWIDTH 668 0
DWIDTH 6 0
BBX 8 11 0 -1
BITMAP
00007053
00005970
00000000
00026E20
00197E00
4AD8BB00
C5C0D800
0A71F500
0F23F200
3E06E000
1C000000
ENDCHAR
STARTCHAR abreve
ENCODING 259
SWIDTH 526 0
DWIDTH 5 0
BBX 6 7 -1 0
BITMAP
005983
000000
02C9F3
0AA4F1
0E57D0
1F4BA4
0BC8E5
ENDCHAR
STARTCHAR Aogonek
ENCODING 260
SWIDTH 668 0
DWIDTH 6 0
BBX 7 9 0 -2
BITMAP
00026E20
00197E00
4AD8BB00
C5C0D800
0A71F500
0E23F200
3E06E000
1C072000
00077000
ENDCHAR
STARTCHAR aogonek
ENCODING 261
SWIDTH 526 0
DWIDTH 5 0
BBX 6 7 -1 -2
BITMAP
02C9F3
0AA4F1
0E57D0
1F4BA4
0BC8E5
000370
000391
ENDCHAR
STARTCHAR Cacute
ENCODING 262
SWIDTH 497 0
DWIDTH 4 0
BBX 5 10 0 0
BITMAP
000580
000A10
000000
03C870
1E61A0
6F1000
AC0000
CA0000
BD0240
4DD900
ENDCHAR
STARTCHAR cacute
ENCODING 263
SWIDTH 384 0
DWIDTH 3 0
BBX 5 7 -1 0
BITMAP
000490
000510
01BA20
0A9410
0E5000
1F4140
0BD800
ENDCHAR
STARTCHAR Ccircumflex
ENCODING 264
SWIDTH 497 0
DWIDTH 4 0
BBX 5 10 0 0
BITMAP
000B10
008640
000000
03C870
1E61A0
6F1000
AC0000
CA0000
BD0240
4DD900
ENDCHAR
STARTCHAR ccircumflex
ENCODING 265
SWIDTH 384 0
DWIDTH 3 0
BBX 5 7 -1 0
BITMAP
001A30
004130
01BA20
0A9410
0E5000
1F4140
0BD800
ENDCHAR
STARTCHAR Cdotaccent
ENCODING 266
SWIDTH 497 0
DWIDTH 4 0
BBX 5 10 0 0
BITMAP
000340
000880
000000
03C870
1E61A0
6F1000
AC0000
CA0000
BD0240
4DD900
ENDCHAR
STARTCHAR cdotaccent
ENCODING 267
SWIDTH 384 0
DWIDTH 3 0
BBX 5 7 -1 0
BITMAP
000D40
000610
01BA20
0A9410
0E5000
1F4140
0BD800
ENDCHAR
STARTCHAR Ccaron
ENCODING 268
SWIDTH 497 0
DWIDTH 4 0
BBX 6 10 0 0
BITMAP
003681
000B10
000000
03C870
1E61A0
6F1000
AC0000
CA0000
BD0240
4DD900
ENDCHAR
STARTCHAR ccaron
ENCODING 269
SWIDTH 384 0
DWIDTH 3 0
BBX 6 7 -1 0
BITMAP
001871
000500
01BA20
0A9410
0E5000
1F4140
0BD800
ENDCHAR
STARTCHAR Dcaron
ENCODING 270
SWIDTH 663 0
DWIDTH 6 0
BBX 6 10 0 0
BITMAP
003681
000B10
000000
0777A1
A5E489
C3F17C
27D09B
0AA0C7
0D64F2
1FBE50
ENDCHAR
STARTCHAR dcaron
ENCODING 271
SWIDTH 525 0
DWIDTH 5 0
BBX 8 7 -1 0
BITMAP
000044C1
0000D740
02C9F400
0AA4F100
0E57D000
1F4BA400
0BC8E500
ENDCHAR
STARTCHAR Dcroat
ENCODING 272
SWIDTH 663 0
DWIDTH 6 0
BBX 6 7 0 0
BITMAP
0677A2
94E489
D3F17C
3AE69B
09A0C7
0D74F2
1FBE50
ENDCHAR
STARTCHAR dcroat
ENCODING 273
SWIDTH 525 0
DWIDTH 5 0
BBX 7 7 -1 0
BITMAP
00005600
0005EB10
02C9F400
0AA4F100
0E57D000
1F4BA400
0BC8E500
ENDCHAR
STARTCHAR Emacron
ENCODING 274
SWIDTH 459 0
DWIDTH 4 0
BBX 5 9 0 0
BITMAP
00ABB0
000000
02BA30
0B6650
0A9000
2C8000
BC0000
DB0320
7EC500
ENDCHAR
STARTCHAR emacron
ENCODING 275
SWIDTH 384 0
DWIDTH 3 0
BBX 5 7 -1 0
BITMAP
02BB80
000000
01BA20
0A9920
0E9400
1F4150
0BD700
ENDCHAR
STARTCHAR Ebreve
ENCODING 276
SWIDTH 459 0
DWIDTH 4 0
BBX 6 10 0 0
BITMAP
008061
007960
000000
02BA30
0B6650
0A9000
2C8000
BC0000
DB0320
7EC500
ENDCHAR
STARTCHAR ebreve
ENCODING 277
SWIDTH 384 0
DWIDTH 3 0
BBX 5 7 -1 0
BITMAP
029860
000000
01BA20
0A9920
0E9400
1F4150
0BD700
ENDCHAR
STARTCHAR Edotaccent
ENCODING 278
SWIDTH 459 0
DWIDTH 4 0
BBX 5 10 0 0
BITMAP
000610
000D30
000000
02BA30
0B6650
0A9000
2C8000
BC0000
DB0320
7EC500
ENDCHAR
STARTCHAR edotaccent
ENCODING 279
SWIDTH 384 0
DWIDTH 3 0
BBX 5 7 -1 0
BITMAP
000D30
000710
01BA20
0A9920
0E9400
1F4150
0BD700
ENDCHAR
STARTCHAR Eogonek
ENCODING 280
SWIDTH 459 0
DWIDTH 4 0
BBX 5 9 0 -2
BITMAP
079830
1F1660
0C7000
2C9000
BC0000
CC0220
5DD700
009000
009400
ENDCHAR
STARTCHAR eogonek
ENCODING 281
SWIDTH 384 0
DWIDTH 3 0
BBX 5 7 -1 -2
BITMAP
01BA20
0A9920
0E9400
1F4250
0BE800
009000
009500
ENDCHAR
STARTCHAR Ecaron
ENCODING 282
SWIDTH 459 0
DWIDTH 4 0
BBX 6 10 0 0
BITMAP
003681
000B10
000000
02BA30
0B6650
0A9000
2C8000
BC0000
DB0320
7EC500
ENDCHAR
STARTCHAR ecaron
ENCODING 283
SWIDTH 384 0
DWIDTH 3 0
BBX 6 7 -1 0
BITMAP
002871
000500
01BA20
0A9920
0E9400
1F4150
0BD700
ENDCHAR
STARTCHAR Gcircumflex
ENCODING 284
SWIDTH 578 0
DWIDTH 5 0
BBX 5 12 0 -2
BITMAP
000470
002A80
002020
04B8A0
3F3080
AB0130
C905B0
AB1C80
2CBD50
195F20
585B00
188200
ENDCHAR
STARTCHAR gcircumflex
ENCODING 285
SWIDTH 507 0
DWIDTH 5 0
BBX 6 9 -1 -2
BITMAP
000590
002330
02C9F3
0AA4F1
0E57C0
1F4BA4
0BDE92
028F30
04DA00
ENDCHAR
STARTCHAR Gbreve
ENCODING 286
SWIDTH 578 0
DWIDTH 5 0
BBX 6 12 0 -2
BITMAP
004416
002A92
000000
04B890
3F30D1
AB0010
C904B0
AB0B90
2CBD60
195F20
585C00
188200
ENDCHAR
STARTCHAR gbreve
ENCODING 287
SWIDTH 507 0
DWIDTH 5 0
BBX 6 9 -1 -2
BITMAP
005983
000000
02C9F3
0AA4F1
0E57C0
1F4BA4
0BDE92
028F30
04DA00
ENDCHAR
STARTCHAR Gdotaccent
ENCODING 288
SWIDTH 578 0
DWIDTH 5 0
BBX 6 12 0 -2
BITMAP
000520
000C50
000000
04B890
3F30D1
AB0010
C904B0
AB0B90
2CBD60
195F20
585C00
188200
ENDCHAR
STARTCHAR gdotaccent
ENCODING 289
SWIDTH 507 0
DWIDTH 5 0
BBX 6 9 -1 -2
BITMAP
000790
000340
02C9F3
0AA4F1
0E57C0
1F4BA4
0BDE92
028F30
04DA00
ENDCHAR
STARTCHAR Gcommaaccent
ENCODING 290
SWIDTH 578 0
DWIDTH 5 0
BBX 5 10 0 -3
BITMAP
03B960
1E5490
8D0000
DA0370
E80890
CA1E60
5EAF30
015000
019000
001000
ENDCHAR
STARTCHAR gcommaaccent
ENCODING 291
SWIDTH 507 0
DWIDTH 5 0
BBX 6 10 -1 -2
BITMAP
000320
000830
000000
02C9F3
0AA4F1
0E57C0
1F4BA4
0BDE92
028F30
04DA00
ENDCHAR
STARTCHAR Hcircumflex
ENCODING 292
SWIDTH 665 0
DWIDTH 6 0
BBX 7 10 0 0
BITMAP
00008400
00066600
00000000
13C73F20
B2F37E00
74FBEB00
07C0D800
09A1F500
0C73F200
0F46E000
ENDCHAR
STARTCHAR hcircumflex
ENCODING 293
SWIDTH 505 0
DWIDTH 5 0
BBX 6 9 -1 0
BITMAP
002A00
028810
019200
04F100
07EDA0
0AB7C0
0D69A0
1F4B75
4F18D4
ENDCHAR
STARTCHAR Hbar
ENCODING 294
SWIDTH 665 0
DWIDTH 6 0
BBX 7 7 0 0
BITMAP
17D73F20
B6F9BE50
74FBEA00
07C0D700
09A1F400
0C73F100
0F46E000
ENDCHAR
STARTCHAR hbar
ENCODING 295
SWIDTH 505 0
DWIDTH 5 0
BBX 6 7 -1 0
BITMAP
008200
08F800
06EDA0
09B7C0
0D69A0
1F4B75
4F18E4
ENDCHAR
STARTCHAR Itilde
ENCODING 296
SWIDTH 375 0
DWIDTH 3 0
BBX 5 9 0 0
BITMAP
02AE60
000000
07D700
95F400
D3F100
26D000
09A000
0D7000
1F4000
ENDCHAR
STARTCHAR itilde
ENCODING 297
SWIDTH 267 0
DWIDTH 2 0
BBX 4 7 -1 0
BITMAP
07D5
0020
07C0
0A90
0D70
1F45
0DC2
ENDCHAR
STARTCHAR Imacron
ENCODING 298
SWIDTH 375 0
DWIDTH 3 0
BBX 5 9 0 0
BITMAP
06BB40
000000
07D700
95F400
D3F100
26D000
09A000
0D7000
1F4000
ENDCHAR
STARTCHAR imacron
ENCODING 299
SWIDTH 267 0
DWIDTH 2 0
BBX 4 7 -1 0
BITMAP
08B7
0000
07C0
0A90
0D70
1F45
0DC2
ENDCHAR
STARTCHAR Ibreve
ENCODING 300
SWIDTH 375 0
DWIDTH 3 0
BBX 5 10 0 0
BITMAP
034160
01A920
000000
07D700
95F400
D3F100
26D000
09A000
0D7000
1F4000
ENDCHAR
STARTCHAR ibreve
ENCODING 301
SWIDTH 267 0
DWIDTH 2 0
BBX 4 7 -1 0
BITMAP
0686
0000
07C0
0A90
0D70
1F45
0DC2
ENDCHAR
STARTCHAR Iogonek
ENCODING 302
SWIDTH 375 0
DWIDTH 3 0
BBX 4 12 0 -2
BITMAP
0470
01A0
0000
06D7
94F4
D3F1
26D0
0AA0
0D70
1F40
4600
3A30
ENDCHAR
STARTCHAR iogonek
ENCODING 303
SWIDTH 267 0
DWIDTH 2 0
BBX 4 9 -1 -2
BITMAP
01D1
0070
07C0
0A90
0D70
1F45
0DC2
3600
2A40
ENDCHAR
STARTCHAR Idotaccent
ENCODING 304
SWIDTH 375 0
DWIDTH 3 0
BBX 4 10 0 0
BITMAP
0025
005B
0000
07D7
95F4
D3F1
26D0
09A0
0D70
1F40
ENDCHAR
STARTCHAR dotlessi
ENCODING 305
SWIDTH 267 0
DWIDTH 2 0
BBX 4 5 -1 0
BITMAP
07C0
0A90
0D70
1F45
0DC2
ENDCHAR
STARTCHAR IJ
ENCODING 306
SWIDTH 663 0
DWIDTH 6 0
BBX 6 9 0 -2
BITMAP
06D74C
94F48B
D3F1C8
26D0F5
0AA3F2
0D76E0
1F7AA0
0C1D50
068600
ENDCHAR
STARTCHAR ij
ENCODING 307
SWIDTH 507 0
DWIDTH 5 0
BBX 6 9 -1 -2
BITMAP
01D1A6
007052
07C1F3
0A94F1
0D77C0
1F4AA4
0DAE92
03AF30
04DA00
ENDCHAR
STARTCHAR Jcircumflex
ENCODING 308
SWIDTH 536 0
DWIDTH 5 0
BBX 6 12 0 -2
BITMAP
000075
000567
000000
0029E1
01B6D0
0489A0
001D70
001F40
004F10
5A8D00
C1C700
587000
ENDCHAR
STARTCHAR jcircumflex
ENCODING 309
SWIDTH 240 0
DWIDTH 2 0
BBX 5 9 -2 -2
BITMAP
001B30
004130
007C00
00A900
00D600
01F540
06F500
6BC000
8D4000
ENDCHAR
STARTCHAR Kcommaaccent
ENCODING 310
SWIDTH 601 0
DWIDTH 5 0
BBX 6 10 0 -3
BITMAP
16D776
C2F850
64EB60
07B5D0
0A87C0
0D6A90
1F3A80
005100
008100
001000
ENDCHAR
STARTCHAR kcommaaccent
ENCODING 311
SWIDTH 518 0
DWIDTH 5 0
BBX 6 10 -1 -3
BITMAP
01D300
04F000
07C480
0ADD40
0D9BA0
1F4B95
4F18E5
005100
008100
001000
ENDCHAR
STARTCHAR kgreenlandic
ENCODING 312
SWIDTH 518 0
DWIDTH 5 0
BBX 6 5 -1 0
BITMAP
07C480
0ADD40
0D9BA0
1F4B95
4F18E5
ENDCHAR
STARTCHAR Lacute
ENCODING 313
SWIDTH 379 0
DWIDTH 3 0
BBX 6 13 0 -2
BITMAP
000430
000B10
001400
000000
06D700
94F400
C3F100
27D000
0AA000
0D6000
1F6000
028D86
0004DA
ENDCHAR
STARTCHAR lacute
ENCODING 314
SWIDTH 267 0
DWIDTH 2 0
BBX 4 9 -1 0
BITMAP
001B
0032
01D3
04F0
07C0
0A90
0D60
1F56
0DC1
ENDCHAR
STARTCHAR Lcommaaccent
ENCODING 315
SWIDTH 379 0
DWIDTH 3 0
BBX 6 9 0 -2
BITMAP
06D700
94F400
C3F100
27D000
0AA000
0D6000
1F6000
288D86
1504DA
ENDCHAR
STARTCHAR lcommaaccent
ENCODING 316
SWIDTH 267 0
DWIDTH 2 0
BBX 4 10 -1 -3
BITMAP
02F3
05F0
07C0
0A90
0D60
1F56
0DC1
0500
0900
0100
ENDCHAR
STARTCHAR Lcaron
ENCODING 317
SWIDTH 379 0
DWIDTH 3 0
BBX 6 13 0 -2
BITMAP
002040
002C40
000400
000000
06D700
94F400
C3F100
27D000
0AA000
0D6000
1F6000
028D86
0004DA
ENDCHAR
STARTCHAR lcaron
ENCODING 318
SWIDTH 267 0
DWIDTH 2 0
BBX 4 7 0 0
BITMAP
0478
3F53
6D00
9A00
C700
F440
DC20
ENDCHAR
STARTCHAR Ldot
ENCODING 319
SWIDTH 605 0
DWIDTH 5 0
BBX 6 9 0 -2
BITMAP
07D700
A3F400
A4F100
07D160
0A94D0
0D6000
1F7000
028D86
0004DA
ENDCHAR
STARTCHAR ldot
ENCODING 320
SWIDTH 353 0
DWIDTH 3 0
BBX 4 7 -1 0
BITMAP
01D3
04F0
07C0
0A9D
0D62
1F40
0D90
ENDCHAR
STARTCHAR Lslash
ENCODING 321
SWIDTH 392 0
DWIDTH 4 0
BBX 6 9 0 -2
BITMAP
06D700
94F400
C3F910
29D000
1BA000
0D6000
1F6000
028D86
0004DA
ENDCHAR
STARTCHAR lslash
ENCODING 322
SWIDTH 286 0
DWIDTH 3 0
BBX 4 7 -1 0
BITMAP
02F3
05E3
08E5
2D90
1E60
1F56
0CC1
ENDCHAR
STARTCHAR Nacute
ENCODING 323
SWIDTH 702 0
DWIDTH 6 0
BBX 7 10 0 0
BITMAP
00000C10
00005600
00000000
19E80850
A4FC0B20
D3EF0D00
378F5B00
0A4CB800
0C19F500
1C05F200
ENDCHAR
STARTCHAR nacute
ENCODING 324
SWIDTH 505 0
DWIDTH 5 0
BBX 6 7 -1 0
BITMAP
0002B0
000420
07EDA0
0AA7C0
0D69A0
1F4B75
4F18D4
ENDCHAR
STARTCHAR Ncommaaccent
ENCODING 325
SWIDTH 668 0
DWIDTH 6 0
BBX 7 10 0 -3
BITMAP
19E80850
A4FC0B20
D3EF0D00
378F5B00
0A4CB800
0C19F500
1C05F200
00510000
00810000
00100000
ENDCHAR
STARTCHAR ncommaaccent
ENCODING 326
SWIDTH 505 0
DWIDTH 5 0
BBX 6 8 -1 -3
BITMAP
07EDA0
0AA7C0
0D69A0
1F4B75
4F18D4
005000
009000
001000
ENDCHAR
STARTCHAR Ncaron
ENCODING 327
SWIDTH 668 0
DWIDTH 6 0
BBX 7 10 0 0
BITMAP
00007730
00009300
00000000
19E80850
A4FC0B20
D3EF0D00
378F5B00
0A4CB800
0C19F500
1C05F200
ENDCHAR
STARTCHAR ncaron
ENCODING 328
SWIDTH 505 0
DWIDTH 5 0
BBX 6 7 -1 0
BITMAP
003860
000500
07EDA0
0AA7C0
0D69A0
1F4B75
4F18D4
ENDCHAR
STARTCHAR napostrophe
ENCODING 329
SWIDTH 505 0
DWIDTH 5 0
BBX 6 7 -1 0
BITMAP
085000
031000
07EDA0
0AA7C0
0D69A0
1F4B75
4F18D4
ENDCHAR
STARTCHAR Eng
ENCODING 330
SWIDTH 723 0
DWIDTH 7 0
BBX 7 10 0 -3
BITMAP
05CE01C0
499F34A0
86CE7770
13D9AA40
03A5DD10
0761FD00
0A30CA00
0081C600
00B1E100
00484000
ENDCHAR
STARTCHAR eng
ENCODING 331
SWIDTH 505 0
DWIDTH 5 0
BBX 5 7 -1 -2
BITMAP
07ED90
0AB7B0
0D6990
1F3C60
4F3F30
049E00
05C700
ENDCHAR
STARTCHAR Omacron
ENCODING 332
SWIDTH 665 0
DWIDTH 6 0
BBX 6 9 0 0
BITMAP
005BB4
000000
0578A3
77C65B
C7D05D
2C807C
0F60C7
0F54E1
08DB30
ENDCHAR
STARTCHAR omacron
ENCODING 333
SWIDTH 433 0
DWIDTH 4 0
BBX 6 7 -1 0
BITMAP
01BB90
000000
02BB30
0B97A6
1F4750
2F3B10
0CD600
ENDCHAR
STARTCHAR Obreve
ENCODING 334
SWIDTH 665 0
DWIDTH 6 0
BBX 6 10 0 0
BITMAP
002607
000994
000000
0578A3
77C65B
C7D05D
2C807C
0F60C7
0F54E1
08DB30
ENDCHAR
STARTCHAR obreve
ENCODING 335
SWIDTH 433 0
DWIDTH 4 0
BBX 6 7 -1 0
BITMAP
009880
000000
02BB30
0B97A6
1F4750
2F3B10
0CD600
ENDCHAR
STARTCHAR Ohungarumlaut
ENCODING 336
SWIDTH 665 0
DWIDTH 6 0
BBX 7 10 0 0
BITMAP
0001A730
00064900
00000000
0578A300
77C65B00
C7D05D00
2C807C00
0F60C700
0F54E100
08DB3000
ENDCHAR
STARTCHAR ohungarumlaut
ENCODING 337
SWIDTH 433 0
DWIDTH 4 0
BBX 6 7 -1 0
BITMAP
002AA3
006370
02BB30
0B97A6
1F4750
2F3B10
0CD600
ENDCHAR
STARTCHAR OE
ENCODING 338
SWIDTH 846 0
DWIDTH 8 0
BBX 9 7 0 0
BITMAP
0578BDFE10
67B65C1100
C7D05D0000
3C807EA000
0F60B80000
0F54E20000
08DEFFC000
ENDCHAR
STARTCHAR oe
ENCODING 339
SWIDTH 663 0
DWIDTH 6 0
BBX 8 5 -1 0
BITMAP
02BA7C80
0B88F490
0F46F830
1F3AE043
0BD7DA40
ENDCHAR
STARTCHAR Racute
ENCODING 340
SWIDTH 601 0
DWIDTH 5 0
BBX 6 10 0 0
BITMAP
0001C0
000740
000000
1788A1
C2F3C2
64EB90
07B5D0
0A87C0
0D6A90
1F3A80
ENDCHAR
STARTCHAR racute
ENCODING 341
SWIDTH 376 0
DWIDTH 3 0
BBX 5 7 -1 0
BITMAP
000940
000500
07EC50
0A9320
0D6000
1F4000
4F1000
ENDCHAR
STARTCHAR Rcommaaccent
ENCODING 342
SWIDTH 601 0
DWIDTH 5 0
BBX 6 10 0 -3
BITMAP
1788A1
C2F3C2
64EB90
07B5D0
0A87C0
0D6A90
1F3A80
005000
009000
001000
ENDCHAR
STARTCHAR rcommaaccent
ENCODING 343
SWIDTH 376 0
DWIDTH 3 0
BBX 5 8 -1 -3
BITMAP
07EC50
0A9320
0D6000
1F4000
4F1000
042000
063000
010000
ENDCHAR
STARTCHAR Rcaron
ENCODING 344
SWIDTH 601 0
DWIDTH 5 0
BBX 6 10 0 0
BITMAP
000774
000750
000000
1788A1
C2F3C2
64EB90
07B5D0
0A87C0
0D6A90
1F3A80
ENDCHAR
STARTCHAR rcaron
ENCODING 345
SWIDTH 376 0
DWIDTH 3 0
BBX 5 7 -1 0
BITMAP
007830
003200
07EC50
0A9320
0D6000
1F4000
4F1000
ENDCHAR
STARTCHAR Sacute
ENCODING 346
SWIDTH 570 0
DWIDTH 5 0
BBX 5 10 0 0
BITMAP
0002B0
000830
000000
02B890
08B1D0
05F410
00AE20
5D2E80
960C80
3BB910
ENDCHAR
STARTCHAR sacute
ENCODING 347
SWIDTH 382 0
DWIDTH 3 0
BBX 5 7 -1 0
BITMAP
000860
000800
00B900
02DB00
068C00
398D30
1BD600
ENDCHAR
STARTCHAR Scircumflex
ENCODING 348
SWIDTH 570 0
DWIDTH 5 0
BBX 5 10 0 0
BITMAP
000570
004770
000000
02B890
08B1D0
05F410
00AE20
5D2E80
960C80
3BB910
ENDCHAR
STARTCHAR scircumflex
ENCODING 349
SWIDTH 382 0
DWIDTH 3 0
BBX 5 7 -1 0
BITMAP
002B00
016410
00B900
02DB00
068C00
398D30
1BD600
ENDCHAR
STARTCHAR Scedilla
ENCODING 350
SWIDTH 570 0
DWIDTH 5 0
BBX 5 9 0 -2
BITMAP
02B890
08B1D0
05F410
00AE20
5C2E80
A60C80
4CBA10
02A200
04A200
ENDCHAR
STARTCHAR scedilla
ENCODING 351
SWIDTH 382 0
DWIDTH 3 0
BBX 5 8 -1 -2
BITMAP
004400
00EA00
04BB00
078C00
389E50
1DE500
068000
06A000
ENDCHAR
STARTCHAR Scaron
ENCODING 352
SWIDTH 570 0
DWIDTH 5 0
BBX 6 10 0 0
BITMAP
000774
000750
000000
02B890
08B1D0
05F410
00AE20
5D2E80
960C80
3BB910
ENDCHAR
STARTCHAR scaron
ENCODING 353
SWIDTH 369 0
DWIDTH 3 0
BBX 5 7 -1 0
BITMAP
007740
004400
00B900
02DB00
068C00
398D30
1BD600
ENDCHAR
STARTCHAR uni0162
ENCODING 354
SWIDTH 481 0
DWIDTH 4 0
BBX 7 9 0 -2
BITMAP
2ADFEF40
B37C0000
C0A90000
10D60000
01F30000
04F00000
07C00000
04910000
05A10000
ENDCHAR
STARTCHAR uni0163
ENCODING 355
SWIDTH 267 0
DWIDTH 2 0
BBX 4 9 -1 -2
BITMAP
0171
04F0
09D2
0A90
0D70
1F45
0DC2
0950
1870
ENDCHAR
STARTCHAR Tcaron
ENCODING 356
SWIDTH 481 0
DWIDTH 4 0
BBX 7 10 0 0
BITMAP
00078200
000A2000
00000000
2ADFEF40
B37C0000
C0A90000
10D60000
01F30000
04F00000
07C00000
ENDCHAR
STARTCHAR tcaron
ENCODING 357
SWIDTH 267 0
DWIDTH 2 0
BBX 5 7 -1 0
BITMAP
002490
04F220
09D200
0A9000
0D7000
1F4500
0DC200
ENDCHAR
STARTCHAR Tbar
ENCODING 358
SWIDTH 481 0
DWIDTH 4 0
BBX 7 7 0 0
BITMAP
1ADFFF40
B47D0000
D09A0000
40C70000
27F95000
04F10000
07C00000
ENDCHAR
STARTCHAR tbar
ENCODING 359
SWIDTH 267 0
DWIDTH 2 0
BBX 4 7 -1 0
BITMAP
0171
04F0
09D2
1CC2
0D70
0F44
0DC2
ENDCHAR
STARTCHAR Utilde
ENCODING 360
SWIDTH 716 0
DWIDTH 6 0
BBX 7 9 0 0
BITMAP
0003BE40
00000000
17CA09A0
A2D60C70
C1F20F40
25D03F10
08A07C00
09A1D700
05EE9000
ENDCHAR
STARTCHAR utilde
ENCODING 361
SWIDTH 505 0
DWIDTH 5 0
BBX 6 7 -1 0
BITMAP
009EA2
000210
07C4F1
0A97D0
0D7AA0
1F5D75
0DC9D3
ENDCHAR
STARTCHAR Umacron
ENCODING 362
SWIDTH 716 0
DWIDTH 6 0
BBX 7 9 0 0
BITMAP
0007BB30
00000000
17CA09A0
A2D60C70
C1F20F40
25D03F10
08A07C00
09A1D700
05EE9000
ENDCHAR
STARTCHAR umacron
ENCODING 363
SWIDTH 505 0
DWIDTH 5 0
BBX 6 7 -1 0
BITMAP
00ABB0
000000
07C4F1
0A97D0
0D7AA0
1F5D75
0DC9D3
ENDCHAR
STARTCHAR Ubreve
ENCODING 364
SWIDTH 716 0
DWIDTH 6 0
BBX 7 10 0 0
BITMAP
00052340
0003A810
00000000
17CA09A0
A2D60C70
C1F20F40
25D03F10
08A07C00
09A1D700
05EE9000
ENDCHAR
STARTCHAR ubreve
ENCODING 365
SWIDTH 505 0
DWIDTH 5 0
BBX 6 7 -1 0
BITMAP
008881
000000
07C4F1
0A97D0
0D7AA0
1F5D75
0DC9D3
ENDCHAR
STARTCHAR Uring
ENCODING 366
SWIDTH 716 0
DWIDTH 6 0
BBX 7 10 0 0
BITMAP
00005300
00005200
00000000
17CA09A0
A2D60C70
C1F20F40
25D03F10
08A07C00
09A1D700
05EE9000
ENDCHAR
STARTCHAR uring
ENCODING 367
SWIDTH 505 0
DWIDTH 5 0
BBX 6 7 -1 0
BITMAP
001820
001610
07C4F1
0A97D0
0D7AA0
1F5D75
0DC9D3
ENDCHAR
STARTCHAR Uhungarumlaut
ENCODING 368
SWIDTH 716 0
DWIDTH 6 0
BBX 7 10 0 0
BITMAP
00007590
00019720
00000000
17CA09A0
A2D60C70
C1F20F40
25D03F10
08A07C00
09A1D700
05EE9000
ENDCHAR
STARTCHAR uhungarumlaut
ENCODING 369
SWIDTH 505 0
DWIDTH 5 0
BBX 6 7 -1 0
BITMAP
002B93
006370
07C4F1
0A97D0
0D7AA0
1F5D75
0DC9D3
ENDCHAR
STARTCHAR Uogonek
ENCODING 370
SWIDTH 716 0
DWIDTH 6 0
BBX 7 12 0 -2
BITMAP
00038000
0000B000
00000000
17BA09A0
A2D60C70
C1F20F40
25D03F10
08A07C00
09A1D700
05EEA000
00910000
00781000
ENDCHAR
STARTCHAR uogonek
ENCODING 371
SWIDTH 505 0
DWIDTH 5 0
BBX 6 7 -1 -2
BITMAP
07C4F1
0A97D0
0D7AA0
1F5D75
0DCAC3
000810
000791
ENDCHAR
STARTCHAR Wcircumflex
ENCODING 372
SWIDTH 962 0
DWIDTH 9 0
BBX 10 10 0 0
BITMAP
000000B100
0000086400
0000000000
06C909A072
94B90EB090
D0B94DB260
20B989B710
00AA79B700
00AE38E500
00AD08E000
ENDCHAR
STARTCHAR wcircumflex
ENCODING 373
SWIDTH 661 0
DWIDTH 6 0
BBX 7 7 -1 0
BITMAP
0001A300
00052400
07C4F4A0
0A97D080
0D7AA180
1F5D7830
0DBAE600
ENDCHAR
STARTCHAR Ycircumflex
ENCODING 374
SWIDTH 620 0
DWIDTH 6 0
BBX 7 10 0 0
BITMAP
00007500
00056700
00000000
06CA0710
948E0800
D05F7300
201FB000
000F7000
003F4000
006F1000
ENDCHAR
STARTCHAR ycircumflex
ENCODING 375
SWIDTH 505 0
DWIDTH 5 0
BBX 6 9 -1 -2
BITMAP
000950
004130
07C4F1
0A97D0
0D7AA0
1F5D74
0DCF71
049F10
06D800
ENDCHAR
STARTCHAR Ydieresis
ENCODING 376
SWIDTH 620 0
DWIDTH 6 0
BBX 7 9 0 0
BITMAP
00076C10
00010100
06CA0710
948E0800
D05F7300
201FB000
000F7000
003F4000
006F1000
ENDCHAR
STARTCHAR Zacute
ENCODING 377
SWIDTH 542 0
DWIDTH 5 0
BBX 5 10 0 0
BITMAP
0002B0
000830
000000
1B8EB0
153F40
00BB00
03F400
0AC000
3F4440
AF9B40
ENDCHAR
STARTCHAR zacute
ENCODING 378
SWIDTH 428 0
DWIDTH 4 0
BBX 4 7 0 0
BITMAP
0057
0050
4AE9
35E2
0B80
3E43
BEB4
ENDCHAR
STARTCHAR Zdotaccent
ENCODING 379
SWIDTH 530 0
DWIDTH 5 0
BBX 5 9 0 0
BITMAP
003A00
000100
1B8EB0
153F40
00BB00
03F400
0AC000
3F4440
AF9B40
ENDCHAR
STARTCHAR zdotaccent
ENCODING 380
SWIDTH 428 0
DWIDTH 4 0
BBX 4 7 0 0
BITMAP
00D0
0010
4AE9
35E2
0B80
3E43
BEB4
ENDCHAR
STARTCHAR Zcaron
ENCODING 381
SWIDTH 542 0
DWIDTH 5 0
BBX 6 10 0 0
BITMAP
002781
000B10
000000
1B8EB0
153F40
00BB00
03F400
0AC000
3F4440
AF9B40
ENDCHAR
STARTCHAR zcaron
ENCODING 382
SWIDTH 428 0
DWIDTH 4 0
BBX 5 7 0 0
BITMAP
028710
005000
4AE900
35E200
0B8000
3E4300
BEB400
ENDCHAR
STARTCHAR longs
ENCODING 383
SWIDTH 267 0
DWIDTH 2 0
BBX 6 9 -2 -2
BITMAP
000BD4
004F22
00AD00
00AA00
00D700
02F300
07F000
79C000
9E4000
ENDCHAR
STARTCHAR uni018F
ENCODING 399
SWIDTH 544 0
DWIDTH 5 0
BBX 5 7 0 0
BITMAP
09EC30
183DA0
0009C0
038DB0
4C2E60
B57D00
7CB200
ENDCHAR
STARTCHAR florin
ENCODING 402
SWIDTH 267 0
DWIDTH 2 0
BBX 7 9 -3 -2
BITMAP
00004BA0
0000E570
0008E600
0009B000
000D7000
002F2000
006D0000
17B70000
2BA10000
ENDCHAR
STARTCHAR Ohorn
ENCODING 416
SWIDTH 665 0
DWIDTH 6 0
BBX 7 9 0 0
BITMAP
00000230
00000560
0578BA10
77C65C00
C7D05D00
2C807C00
0F60C800
0F54E100
08DB3000
ENDCHAR
STARTCHAR ohorn
ENCODING 417
SWIDTH 439 0
DWIDTH 4 0
BBX 6 7 -1 0
BITMAP
000022
000064
01BA90
0AA470
0F5660
1F4C20
0BE600
ENDCHAR
STARTCHAR Uhorn
ENCODING 431
SWIDTH 716 0
DWIDTH 6 0
BBX 8 9 0 0
BITMAP
0000000B
00000037
17CA09B0
A2D60C70
C1F20F40
25D03F10
08A07C00
09A1D600
05EE9000
ENDCHAR
STARTCHAR uhorn
ENCODING 432
SWIDTH 505 0
DWIDTH 5 0
BBX 6 7 -1 0
BITMAP
000005
00000A
07C4F2
0A97D0
0D7AA0
1F5D75
0DC9D3
ENDCHAR
STARTCHAR uni01B7
ENCODING 439
SWIDTH 555 0
DWIDTH 5 0
BBX 5 7 0 0
BITMAP
0B7DC0
064E20
01E600
018E30
000F70
A32F50
7AB700
ENDCHAR
STARTCHAR uni01CD
ENCODING 461
SWIDTH 668 0
DWIDTH 6 0
BBX 8 11 0 -1
BITMAP
00000773
00000840
00000000
00026E20
00197E00
4AD8BB00
C5C0D800
0A71F500
0F23F200
3E06E000
1C000000
ENDCHAR
STARTCHAR uni01CE
ENCODING 462
SWIDTH 526 0
DWIDTH 5 0
BBX 6 7 -1 0
BITMAP
000783
000320
02C9F3
0AA4F1
0E57D0
1F4BA4
0BC8E5
ENDCHAR
STARTCHAR uni01CF
ENCODING 463
SWIDTH 375 0
DWIDTH 3 0
BBX 5 10 0 0
BITMAP
006560
003900
000000
07D700
95F400
D3F100
26D000
09A000
0D7000
1F4000
ENDCHAR
STARTCHAR uni01D0
ENCODING 464
SWIDTH 267 0
DWIDTH 2 0
BBX 5 7 -1 0
BITMAP
028710
005000
07C000
0A9000
0D7000
1F4500
0DC200
ENDCHAR
STARTCHAR uni01D1
ENCODING 465
SWIDTH 665 0
DWIDTH 6 0
BBX 7 10 0 0
BITMAP
00036810
0000B100
00000000
0578A300
77C65B00
C7D05D00
2C807C00
0F60C700
0F54E100
08DB3000
ENDCHAR
STARTCHAR uni01D2
ENCODING 466
SWIDTH 433 0
DWIDTH 4 0
BBX 6 7 -1 0
BITMAP
003870
000500
02BB30
0B97A6
1F4750
2F3B10
0CD600
ENDCHAR
STARTCHAR uni01D3
ENCODING 467
SWIDTH 716 0
DWIDTH 6 0
BBX 7 10 0 0
BITMAP
00007740
00007500
00000000
17CA09A0
A2D60C70
C1F20F40
25D03F10
08A07C00
09A1D700
05EE9000
ENDCHAR
STARTCHAR uni01D4
ENCODING 468
SWIDTH 505 0
DWIDTH 5 0
BBX 6 7 -1 0
BITMAP
001971
000500
07C4F1
0A97D0
0D7AA0
1F5D75
0DC9D3
ENDCHAR
STARTCHAR uni01D5
ENCODING 469
SWIDTH 716 0
DWIDTH 6 0
BBX 7 10 0 0
BITMAP
00038840
00076940
00010100
17CA09A0
A2D60C70
C1F20F40
25D03F10
08A07C00
09A1D700
05EE9000
ENDCHAR
STARTCHAR uni01D6
ENCODING 470
SWIDTH 505 0
DWIDTH 5 0
BBX 6 9 -1 0
BITMAP
006BB3
000000
00A4C0
001010
07C4F1
0A97D0
0D7AA0
1F5D75
0DC9D3
ENDCHAR
STARTCHAR uni01D7
ENCODING 471
SWIDTH 716 0
DWIDTH 6 0
BBX 7 10 0 0
BITMAP
00003A00
000D96B0
00023020
17CA09A0
A2D60C70
C1F20F40
25D03F10
08A07C00
09A1D700
05EE9000
ENDCHAR
STARTCHAR uni01D8
ENCODING 472
SWIDTH 505 0
DWIDTH 5 0
BBX 6 9 -1 0
BITMAP
0002B0
000410
00A4C0
001010
07C4F1
0A97D0
0D7AA0
1F5D75
0DC9D3
ENDCHAR
STARTCHAR uni01D9
ENCODING 473
SWIDTH 716 0
DWIDTH 6 0
BBX 7 10 0 0
BITMAP
00003310
000CA7A0
00011010
17CA09A0
A2D60C70
C1F20F40
25D03F10
08A07C00
09A1D700
05EE9000
ENDCHAR
STARTCHAR uni01DA
ENCODING 474
SWIDTH 505 0
DWIDTH 5 0
BBX 6 9 -1 0
BITMAP
000773
000840
00A4C0
001010
07C4F1
0A97D0
0D7AA0
1F5D75
0DC9D3
ENDCHAR
STARTCHAR uni01DB
ENCODING 475
SWIDTH 716 0
DWIDTH 6 0
BBX 7 10 0 0
BITMAP
00006200
000D77B0
00021220
17CA09A0
A2D60C70
C1F20F40
25D03F10
08A07C00
09A1D700
05EE9000
ENDCHAR
STARTCHAR uni01DC
ENCODING 476
SWIDTH 505 0
DWIDTH 5 0
BBX 6 9 -1 0
BITMAP
002B00
000A00
00A4C0
001010
07C4F1
0A97D0
0D7AA0
1F5D75
0DC9D3
ENDCHAR
STARTCHAR uni01E4
ENCODING 484
SWIDTH 601 0
DWIDTH 5 0
BBX 6 9 0 -2
BITMAP
04B8A0
3F30B0
AB0140
C93AD2
AB1C80
2CBD50
195F10
585B00
188200
ENDCHAR
STARTCHAR uni01E5
ENCODING 485
SWIDTH 507 0
DWIDTH 5 0
BBX 6 7 -1 -2
BITMAP
02C9F3
0AA4F1
0E57C0
1F4BA4
0BEF71
07CF60
04D900
ENDCHAR
STARTCHAR Gcaron
ENCODING 486
SWIDTH 578 0
DWIDTH 5 0
BBX 6 12 0 -2
BITMAP
000764
000660
000000
04B890
3F30D1
AB0010
C904B0
AB0B90
2CBD60
195F20
585C00
188200
ENDCHAR
STARTCHAR gcaron
ENCODING 487
SWIDTH 507 0
DWIDTH 5 0
BBX 6 9 -1 -2
BITMAP
000783
000320
02C9F3
0AA4F1
0E57C0
1F4BA4
0BDE92
028F30
04DA00
ENDCHAR
STARTCHAR uni01E8
ENCODING 488
SWIDTH 601 0
DWIDTH 5 0
BBX 7 10 0 0
BITMAP
00017810
0000A200
00000000
16D77600
C2F85000
64EB6000
07B5D000
0A87C000
0D6A9000
1F3A8000
ENDCHAR
STARTCHAR uni01E9
ENCODING 489
SWIDTH 518 0
DWIDTH 5 0
BBX 6 10 -1 0
BITMAP
000666
000480
000000
01D300
04F000
07C480
0ADD40
0D9BA0
1F4B95
4F18E5
ENDCHAR
STARTCHAR uni01EA
ENCODING 490
SWIDTH 665 0
DWIDTH 6 0
BBX 6 12 0 -2
BITMAP
003800
000B00
000000
0578A3
77C65B
C7D05D
2C807C
0F60C7
0F54E1
08DB30
045000
03A300
ENDCHAR
STARTCHAR uni01EB
ENCODING 491
SWIDTH 433 0
DWIDTH 4 0
BBX 6 7 -1 -2
BITMAP
02BB30
0B97A6
0F4750
2F3B10
0BD600
090000
088000
ENDCHAR
STARTCHAR uni01EE
ENCODING 494
SWIDTH 525 0
DWIDTH 5 0
BBX 5 10 0 0
BITMAP
004680
001B00
000000
0B7DC0
064E20
01E600
018E30
000F70
A32F50
7AB700
ENDCHAR
STARTCHAR uni01EF
ENCODING 495
SWIDTH 600 0
DWIDTH 5 0
BBX 5 10 0 -2
BITMAP
036810
00B100
000000
79F500
37C000
1E3000
1C6420
0AC400
8C9000
AD2000
ENDCHAR
STARTCHAR uni01F4
ENCODING 500
SWIDTH 578 0
DWIDTH 5 0
BBX 5 12 0 -2
BITMAP
0001C0
000570
000310
04B8A0
3F3080
AB0130
C905B0
AB1C80
2CBD50
195F20
585B00
188200
ENDCHAR
STARTCHAR uni01F5
ENCODING 501
SWIDTH 507 0
DWIDTH 5 0
BBX 6 9 -1 -2
BITMAP
000490
000510
02C9F3
0AA4F1
0E57C0
1F4BA4
0BDE92
028F30
04DA00
ENDCHAR
STARTCHAR Aringacute
ENCODING 506
SWIDTH 668 0
DWIDTH 6 0
BBX 7 11 0 -1
BITMAP
000001B0
00000850
00001D30
0004AF10
002A7D00
4AD8BA00
C5C0D700
0A71F500
0F23F200
3E06E000
1C000000
ENDCHAR
STARTCHAR aringacute
ENCODING 507
SWIDTH 526 0
DWIDTH 5 0
BBX 6 8 -1 0
BITMAP
0001B0
000750
000530
02C9F3
0AA4F1
0E57D0
1F4BA4
0BC8E5
ENDCHAR
STARTCHAR AEacute
ENCODING 508
SWIDTH 764 0
DWIDTH 7 0
BBX 9 11 0 -1
BITMAP
000000A300
0000018000
0000000000
00028FBB10
002A6E0000
3AD7AB0000
D6C1DDA000
5A70F50000
1F23F20000
3E06FFE000
2C00000000
ENDCHAR
STARTCHAR aeacute
ENCODING 509
SWIDTH 650 0
DWIDTH 6 0
BBX 6 7 0 0
BITMAP
0001C1
000330
18CBB8
007E48
6BDC60
F4DA05
CC7EA2
ENDCHAR
STARTCHAR Oslashacute
ENCODING 510
SWIDTH 658 0
DWIDTH 6 0
BBX 6 11 0 -1
BITMAP
000076
0000B0
000000
0568C2
66AD98
C6E68A
3C96A9
0F56E5
0F69D0
09DD20
005000
ENDCHAR
STARTCHAR oslashacute
ENCODING 511
SWIDTH 428 0
DWIDTH 4 0
BBX 6 8 -1 -1
BITMAP
000480
000500
01BA91
0AA770
0F9B60
1F8B20
0DD600
310000
ENDCHAR
STARTCHAR uni0200
ENCODING 512
SWIDTH 668 0
DWIDTH 6 0
BBX 7 11 0 -1
BITMAP
00075900
00019720
00000000
00026E20
00197E00
4AD8BB00
C5C0D800
0A71F500
0F23F200
3E06E000
1C000000
ENDCHAR
STARTCHAR uni0201
ENCODING 513
SWIDTH 526 0
DWIDTH 5 0
BBX 6 7 -1 0
BITMAP
01B840
005370
02C9F3
0AA4F1
0E57D0
1F4BA4
0BC8E5
ENDCHAR
STARTCHAR uni0202
ENCODING 514
SWIDTH 668 0
DWIDTH 6 0
BBX 8 11 0 -1
BITMAP
00003890
00007052
00000000
00026E20
00197E00
4AD8BB00
C5C0D800
0A71F500
0F23F200
3E06E000
1C000000
ENDCHAR
STARTCHAR uni0203
ENCODING 515
SWIDTH 526 0
DWIDTH 5 0
BBX 6 7 -1 0
BITMAP
0059B2
004032
02C9F3
0AA4F1
0E57D0
1F4BA4
0BC8E5
ENDCHAR
STARTCHAR uni0204
ENCODING 516
SWIDTH 459 0
DWIDTH 4 0
BBX 5 10 0 0
BITMAP
0A6900
016700
000000
02BA30
0B6650
0A9000
2C8000
BC0000
DB0320
7EC500
ENDCHAR
STARTCHAR uni0205
ENCODING 517
SWIDTH 384 0
DWIDTH 3 0
BBX 5 7 -1 0
BITMAP
096A00
017610
01BA20
0A9920
0E9400
1F4150
0BD700
ENDCHAR
STARTCHAR uni0206
ENCODING 518
SWIDTH 459 0
DWIDTH 4 0
BBX 5 10 0 0
BITMAP
005970
017070
000000
02BA30
0B6650
0A9000
2C8000
BC0000
DB0320
7EC500
ENDCHAR
STARTCHAR uni0207
ENCODING 519
SWIDTH 384 0
DWIDTH 3 0
BBX 5 7 -1 0
BITMAP
029A60
032140
01BA20
0A9920
0E9400
1F4150
0BD700
ENDCHAR
STARTCHAR uni0208
ENCODING 520
SWIDTH 375 0
DWIDTH 3 0
BBX 4 10 0 0
BITMAP
2A93
0637
0000
05D7
A3F4
A4F1
07D0
0AA0
0D70
1F40
ENDCHAR
STARTCHAR uni0209
ENCODING 521
SWIDTH 267 0
DWIDTH 2 0
BBX 4 7 -1 0
BITMAP
86A0
0762
07C0
0A90
0D70
1F45
0DC2
ENDCHAR
STARTCHAR uni020A
ENCODING 522
SWIDTH 375 0
DWIDTH 3 0
BBX 5 10 0 0
BITMAP
028910
061440
000000
07D700
95F400
D3F100
26D000
09A000
0D7000
1F4000
ENDCHAR
STARTCHAR uni020B
ENCODING 523
SWIDTH 267 0
DWIDTH 2 0
BBX 4 7 -1 0
BITMAP
0796
0404
07C0
0A90
0D70
1F45
0DC2
ENDCHAR
STARTCHAR uni020C
ENCODING 524
SWIDTH 665 0
DWIDTH 6 0
BBX 6 10 0 0
BITMAP
01A740
006490
000000
0578A3
77C65B
C7D05D
2C807C
0F60C7
0F54E1
08DB30
ENDCHAR
STARTCHAR uni020D
ENCODING 525
SWIDTH 433 0
DWIDTH 4 0
BBX 6 7 -1 0
BITMAP
096A00
017710
02BB30
0B97A6
1F4750
2F3B10
0CD600
ENDCHAR
STARTCHAR uni020E
ENCODING 526
SWIDTH 665 0
DWIDTH 6 0
BBX 6 10 0 0
BITMAP
000795
002507
000000
0578A3
77C65B
C7D05D
2C807C
0F60C7
0F54E1
08DB30
ENDCHAR
STARTCHAR uni020F
ENCODING 527
SWIDTH 433 0
DWIDTH 4 0
BBX 6 7 -1 0
BITMAP
009990
013050
02BB30
0B97A6
1F4750
2F3B10
0CD600
ENDCHAR
STARTCHAR uni0210
ENCODING 528
SWIDTH 601 0
DWIDTH 5 0
BBX 6 10 0 0
BITMAP
096A00
017710
000000
1788A1
C2F3C2
64EB90
07B5D0
0A87C0
0D6A90
1F3A80
ENDCHAR
STARTCHAR uni0211
ENCODING 529
SWIDTH 376 0
DWIDTH 3 0
BBX 5 7 -1 0
BITMAP
1B8500
044700
07EC50
0A9320
0D6000
1F4000
4F1000
ENDCHAR
STARTCHAR uni0212
ENCODING 530
SWIDTH 601 0
DWIDTH 5 0
BBX 6 10 0 0
BITMAP
005970
017070
000000
1788A1
C2F3C2
64EB90
07B5D0
0A87C0
0D6A90
1F3A80
ENDCHAR
STARTCHAR uni0213
ENCODING 531
SWIDTH 376 0
DWIDTH 3 0
BBX 5 7 -1 0
BITMAP
029A60
022140
07EC50
0A9320
0D6000
1F4000
4F1000
ENDCHAR
STARTCHAR uni0214
ENCODING 532
SWIDTH 716 0
DWIDTH 6 0
BBX 7 10 0 0
BITMAP
0038A100
00083600
00000000
17CA09A0
A2D60C70
C1F20F40
25D03F10
08A07C00
09A1D700
05EE9000
ENDCHAR
STARTCHAR uni0215
ENCODING 533
SWIDTH 505 0
DWIDTH 5 0
BBX 6 7 -1 0
BITMAP
077B00
008530
07C4F1
0A97D0
0D7AA0
1F5D75
0DC9D3
ENDCHAR
STARTCHAR uni0216
ENCODING 534
SWIDTH 716 0
DWIDTH 6 0
BBX 7 10 0 0
BITMAP
00028910
00061430
00000000
17CA09A0
A2D60C70
C1F20F40
25D03F10
08A07C00
09A1D700
05EE9000
ENDCHAR
STARTCHAR uni0217
ENCODING 535
SWIDTH 505 0
DWIDTH 5 0
BBX 6 7 -1 0
BITMAP
0089A0
014050
07C4F1
0A97D0
0D7AA0
1F5D75
0DC9D3
ENDCHAR
STARTCHAR Scommaaccent
ENCODING 536
SWIDTH 570 0
DWIDTH 5 0
BBX 5 10 0 -3
BITMAP
02B890
08B1D0
05F410
00AE20
5D2E80
960C80
3BB910
032000
054000
010000
ENDCHAR
STARTCHAR scommaaccent
ENCODING 537
SWIDTH 382 0
DWIDTH 3 0
BBX 5 9 -1 -3
BITMAP
004400
00EA00
04BB00
078C00
378E40
1BD400
032000
064000
010000
ENDCHAR
STARTCHAR uni021A
ENCODING 538
SWIDTH 481 0
DWIDTH 4 0
BBX 7 10 0 -3
BITMAP
2ADFEF40
B37C0000
C0A90000
10D60000
01F30000
04F00000
07C00000
03200000
05400000
01000000
ENDCHAR
STARTCHAR uni021B
ENCODING 539
SWIDTH 267 0
DWIDTH 2 0
BBX 4 10 -1 -3
BITMAP
0171
04F0
09D2
0A90
0D70
1F45
0DC2
0500
0900
0100
ENDCHAR
STARTCHAR uni021E
ENCODING 542
SWIDTH 665 0
DWIDTH 6 0
BBX 7 10 0 0
BITMAP
00017810
0000A200
00000000
13C73F20
B2F37E00
74FBEB00
07C0D800
09A1F500
0C73F200
0F46E000
ENDCHAR
STARTCHAR uni021F
ENCODING 543
SWIDTH 600 0
DWIDTH 5 0
BBX 6 10 -1 0
BITMAP
000557
0001A0
000000
01C300
04F000
07EDA0
0AB7C0
0D69A0
1F4B75
4F18D4
ENDCHAR
STARTCHAR uni0237
ENCODING 567
SWIDTH 240 0
DWIDTH 2 0
BBX 5 7 -2 -2
BITMAP
007C00
00A900
00D600
01F540
06F500
6BC000
8D4000
ENDCHAR
STARTCHAR uni0259
ENCODING 601
SWIDTH 404 0
DWIDTH 4 0
BBX 4 5 0 0
BITMAP
4DD2
20E6
18E5
B4E1
AA40
ENDCHAR
STARTCHAR uni0292
ENCODING 658
SWIDTH 442 0
DWIDTH 4 0
BBX 5 7 0 -2
BITMAP
79F500
37C000
1E3000
1C6420
0AC400
8C9000
AD2000
ENDCHAR
STARTCHAR uni02BB
ENCODING 699
SWIDTH 241 0
DWIDTH 2 0
BBX 2 3 1 5
BITMAP
01
81
B3
ENDCHAR
STARTCHAR uni02BC
ENCODING 700
SWIDTH 228 0
DWIDTH 2 0
BBX 2 2 1 5
BITMAP
85
62
ENDCHAR
STARTCHAR circumflex
ENCODING 710
SWIDTH 293 0
DWIDTH 3 0
BBX 3 2 0 6
BITMAP
0930
6660
ENDCHAR
STARTCHAR caron
ENCODING 711
SWIDTH 294 0
DWIDTH 3 0
BBX 3 2 1 6
BITMAP
8820
9300
ENDCHAR
STARTCHAR uni02C9
ENCODING 713
SWIDTH 421 0
DWIDTH 4 0
BBX 4 1 1 6
BITMAP
9BB1
ENDCHAR
STARTCHAR uni02CA
ENCODING 714
SWIDTH 256 0
DWIDTH 2 0
BBX 2 2 1 6
BITMAP
57
90
ENDCHAR
STARTCHAR uni02CB
ENCODING 715
SWIDTH 274 0
DWIDTH 2 0
BBX 2 2 1 6
BITMAP
65
18
ENDCHAR
STARTCHAR breve
ENCODING 728
SWIDTH 431 0
DWIDTH 4 0
BBX 4 2 0 5
BITMAP
3517
1993
ENDCHAR
STARTCHAR dotaccent
ENCODING 729
SWIDTH 250 0
DWIDTH 2 0
BBX 2 2 0 6
BITMAP
49
5B
ENDCHAR
STARTCHAR ring
ENCODING 730
SWIDTH 156 0
DWIDTH 1 0
BBX 2 2 0 5
BITMAP
73
72
ENDCHAR
STARTCHAR ogonek
ENCODING 731
SWIDTH 291 0
DWIDTH 3 0
BBX 3 3 0 -2
BITMAP
0100
6410
5A20
ENDCHAR
STARTCHAR tilde
ENCODING 732
SWIDTH 403 0
DWIDTH 4 0
BBX 4 1 0 6
BITMAP
19E8
ENDCHAR
STARTCHAR hungarumlaut
ENCODING 733
SWIDTH 436 0
DWIDTH 4 0
BBX 4 2 0 6
BITMAP
0759
1872
ENDCHAR
STARTCHAR gravecomb
ENCODING 768
SWIDTH 0 0
DWIDTH 0 0
BBX 2 2 -2 6
BITMAP
65
18
ENDCHAR
STARTCHAR acutecomb
ENCODING 769
SWIDTH 0 0
DWIDTH 0 0
BBX 2 2 -2 6
BITMAP
2A
82
ENDCHAR
STARTCHAR uni0302
ENCODING 770
SWIDTH 0 0
DWIDTH 0 0
BBX 4 2 -3 6
BITMAP
02A0
2881
ENDCHAR
STARTCHAR tildecomb
ENCODING 771
SWIDTH 0 0
DWIDTH 0 0
BBX 4 1 -3 6
BITMAP
5DC1
ENDCHAR
STARTCHAR uni0304
ENCODING 772
SWIDTH 0 0
DWIDTH 0 0
BBX 4 1 -3 6
BITMAP
7BB3
ENDCHAR
STARTCHAR uni0306
ENCODING 774
SWIDTH 0 0
DWIDTH 0 0
BBX 4 2 -3 5
BITMAP
7052
5970
ENDCHAR
STARTCHAR uni0307
ENCODING 775
SWIDTH 0 0
DWIDTH 0 0
BBX 2 2 -1 6
BITMAP
B2
D3
ENDCHAR
STARTCHAR uni0308
ENCODING 776
SWIDTH 0 0
DWIDTH 0 0
BBX 4 1 -3 6
BITMAP
3572
ENDCHAR
STARTCHAR hookabovecomb
ENCODING 777
SWIDTH 0 0
DWIDTH 0 0
BBX 2 2 -2 5
BITMAP
76
74
ENDCHAR
STARTCHAR uni030A
ENCODING 778
SWIDTH 0 0
DWIDTH 0 0
BBX 3 2 -2 5
BITMAP
0810
1810
ENDCHAR
STARTCHAR uni030B
ENCODING 779
SWIDTH 0 0
DWIDTH 0 0
BBX 4 2 -3 6
BITMAP
1A83
7380
ENDCHAR
STARTCHAR uni030C
ENCODING 780
SWIDTH 0 0
DWIDTH 0 0
BBX 4 2 -3 6
BITMAP
1882
0A20
ENDCHAR
STARTCHAR uni030F
ENCODING 783
SWIDTH 0 0
DWIDTH 0 0
BBX 3 2 -3 6
BITMAP
A570
3790
ENDCHAR
STARTCHAR uni0311
ENCODING 785
SWIDTH 0 0
DWIDTH 0 0
BBX 4 2 -3 5
BITMAP
5980
7071
ENDCHAR
STARTCHAR uni031B
ENCODING 795
SWIDTH 0 0
DWIDTH 0 0
BBX 2 3 -1 4
BITMAP
82
A0
10
ENDCHAR
STARTCHAR dotbelowcomb
ENCODING 803
SWIDTH 0 0
DWIDTH 0 0
BBX 2 2 -2 -2
BITMAP
67
79
ENDCHAR
STARTCHAR uni0324
ENCODING 804
SWIDTH 0 0
DWIDTH 0 0
BBX 3 1 -4 -2
BITMAP
8370
ENDCHAR
STARTCHAR uni0326
ENCODING 806
SWIDTH 0 0
DWIDTH 0 0
BBX 2 2 -3 -3
BITMAP
1A
04
ENDCHAR
STARTCHAR uni0327
ENCODING 807
SWIDTH 0 0
DWIDTH 0 0
BBX 3 3 -4 -2
BITMAP
0720
04B0
1740
ENDCHAR
STARTCHAR uni0328
ENCODING 808
SWIDTH 0 0
DWIDTH 0 0
BBX 3 3 -4 -2
BITMAP
0100
1810
1B50
ENDCHAR
STARTCHAR uni032E
ENCODING 814
SWIDTH 0 0
DWIDTH 0 0
BBX 3 2 -4 -2
BITMAP
4040
5740
ENDCHAR
STARTCHAR uni0331
ENCODING 817
SWIDTH 0 0
DWIDTH 0 0
BBX 4 1 -5 -2
BITMAP
1BB9
ENDCHAR
STARTCHAR uni0335
ENCODING 821
SWIDTH 0 0
DWIDTH 0 0
BBX 4 1 -4 2
BITMAP
3774
ENDCHAR
STARTCHAR uni0394
ENCODING 916
SWIDTH 619 0
DWIDTH 6 0
BBX 6 8 0 0
BITMAP
000110
000BA0
0049C0
00B1E0
0660D1
1B00B4
850096
BBBBC6
ENDCHAR
STARTCHAR uni03A9
ENCODING 937
SWIDTH 745 0
DWIDTH 7 0
BBX 7 7 0 0
BITMAP
004BC700
05A10C20
0C000840
2A000920
1A001A00
09208100
7B67B900
ENDCHAR
STARTCHAR uni03BC
ENCODING 956
SWIDTH 505 0
DWIDTH 5 0
BBX 6 7 -1 -2
BITMAP
048291
09A6D0
0D79A0
1F5D84
4FA8C4
7C0000
320000
ENDCHAR
STARTCHAR pi
ENCODING 960
SWIDTH 530 0
DWIDTH 5 0
BBX 6 5 -1 0
BITMAP
1BCBC8
065290
092560
0B0830
080530
ENDCHAR
STARTCHAR uni0400
ENCODING 1024
SWIDTH 459 0
DWIDTH 4 0
BBX 5 10 0 0
BITMAP
006500
002700
000000
02BA30
0B6650
0A9000
2C8000
BC0000
DB0320
7EC500
ENDCHAR
STARTCHAR uni0401
ENCODING 1025
SWIDTH 459 0
DWIDTH 4 0
BBX 5 9 0 0
BITMAP
008370
000000
02BA30
0B6650
0A9000
2C8000
BC0000
DB0320
7EC500
ENDCHAR
STARTCHAR uni0402
ENCODING 1026
SWIDTH 725 0
DWIDTH 7 0
BBX 7 9 0 -2
BITMAP
2BDFFF50
C36D0000
709DC700
00C66D00
00F37C00
03F1A900
06D0D500
0015E000
006D4000
ENDCHAR
STARTCHAR uni0403
ENCODING 1027
SWIDTH 400 0
DWIDTH 4 0
BBX 6 10 0 0
BITMAP
000084
000190
000000
19DFF9
A4E620
D3F200
36E000
09B000
0C8000
0F5000
ENDCHAR
STARTCHAR uni0404
ENCODING 1028
SWIDTH 497 0
DWIDTH 4 0
BBX 5 7 0 0
BITMAP
03B780
1E5160
6FB600
AB0000
CA0000
BD0250
4DD800
ENDCHAR
STARTCHAR uni0405
ENCODING 1029
SWIDTH 570 0
DWIDTH 5 0
BBX 5 7 0 0
BITMAP
02B890
08B1D0
05F410
00AE20
5D2E80
960C80
3BB910
ENDCHAR
STARTCHAR uni0406
ENCODING 1030
SWIDTH 374 0
DWIDTH 3 0
BBX 4 7 0 0
BITMAP
07D8
85E5
C2F2
36E0
09B0
0C80
0F50
ENDCHAR
STARTCHAR uni0407
ENCODING 1031
SWIDTH 375 0
DWIDTH 3 0
BBX 5 9 0 0
BITMAP
027630
000000
07D700
95F400
D3F100
26D000
09A000
0D7000
1F4000
ENDCHAR
STARTCHAR uni0408
ENCODING 1032
SWIDTH 536 0
DWIDTH 5 0
BBX 6 9 0 -2
BITMAP
0029E1
01B6D0
0489A0
001D70
001F40
004F10
5A8D00
C1C700
587000
ENDCHAR
STARTCHAR uni0409
ENCODING 1033
SWIDTH 817 0
DWIDTH 7 0
BBX 8 8 -1 -1
BITMAP
00018E10
00097C00
00759CA5
01D0C65E
0880F34E
0E23F28B
3E06D9D3
2C000000
ENDCHAR
STARTCHAR uni040A
ENCODING 1034
SWIDTH 931 0
DWIDTH 8 0
BBX 8 7 0 0
BITMAP
17D73F20
B2F37D00
63FBECA6
06C0D64E
0991F44F
0C73F27B
0F46E9E3
ENDCHAR
STARTCHAR uni040B
ENCODING 1035
SWIDTH 745 0
DWIDTH 7 0
BBX 7 7 0 0
BITMAP
2BDFFF50
C36D0000
709DC700
00C66D00
00F37C00
03F1AA00
06D0A900
ENDCHAR
STARTCHAR uni040C
ENCODING 1036
SWIDTH 635 0
DWIDTH 6 0
BBX 7 10 0 0
BITMAP
00008400
00019000
00000000
18D89E10
B3EB4300
63FB7000
06C4E000
0996C000
0C799000
0F499000
ENDCHAR
STARTCHAR uni040D
ENCODING 1037
SWIDTH 705 0
DWIDTH 6 0
BBX 7 10 0 0
BITMAP
00037000
00009000
00000000
07D81E80
85E57F40
C2F3DF10
36E89D00
09D99A00
0CE1C700
0F71F400
ENDCHAR
STARTCHAR uni040E
ENCODING 1038
SWIDTH 644 0
DWIDTH 6 0
BBX 7 10 0 0
BITMAP
00074420
00058500
00000000
07CB0630
847E0900
C03F6600
200ED100
000A9000
00482000
01E80000
ENDCHAR
STARTCHAR uni040F
ENCODING 1039
SWIDTH 665 0
DWIDTH 6 0
BBX 7 11 0 -4
BITMAP
07D82F20
85E55E00
C3F28B00
26E0C800
09A0E500
0C73F200
0FCCE000
00800000
00E40000
00840000
00100000
ENDCHAR
STARTCHAR uni0410
ENCODING 1040
SWIDTH 668 0
DWIDTH 6 0
BBX 7 8 0 -1
BITMAP
00026E20
00197E00
4AD8BB00
C5C0D800
0A71F500
0F23F200
3E06E000
1C000000
ENDCHAR
STARTCHAR uni0411
ENCODING 1041
SWIDTH 638 0
DWIDTH 6 0
BBX 6 7 0 0
BITMAP
3AEFF8
C2F320
64E980
08A1F3
0B70F4
0E63E1
2F8E60
ENDCHAR
STARTCHAR uni0412
ENCODING 1042
SWIDTH 641 0
DWIDTH 6 0
BBX 6 7 0 0
BITMAP
1888A1
B3E4B2
73FAC1
06C0D6
09A0D6
0C81F2
0F9E80
ENDCHAR
STARTCHAR uni0413
ENCODING 1043
SWIDTH 400 0
DWIDTH 4 0
BBX 6 7 0 0
BITMAP
19DFF9
A4E620
D3F200
36E000
09B000
0C8000
0F5000
ENDCHAR
STARTCHAR uni0414
ENCODING 1044
SWIDTH 669 0
DWIDTH 6 0
BBX 7 7 -1 0
BITMAP
01888A20
0A4F5790
094F16C0
008D08C0
06DA0B80
25E73F20
1CC8D600
ENDCHAR
STARTCHAR uni0415
ENCODING 1045
SWIDTH 459 0
DWIDTH 4 0
BBX 5 7 0 0
BITMAP
02BA30
0B6650
0A9000
2C8000
BC0000
DB0320
7EC500
ENDCHAR
STARTCHAR uni0416
ENCODING 1046
SWIDTH 777 0
DWIDTH 7 0
BBX 9 7 -1 0
BITMAP
01E75B4E50
003AAAA310
0008DB4000
01D9F9F200
07B4F1F300
0A87C4F000
2D4A94D000
ENDCHAR
STARTCHAR uni0417
ENCODING 1047
SWIDTH 525 0
DWIDTH 5 0
BBX 6 7 -1 0
BITMAP
007AD3
0112F5
006E90
0005F2
0304F3
1D07E1
0A9C30
ENDCHAR
STARTCHAR uni0418
ENCODING 1048
SWIDTH 705 0
DWIDTH 6 0
BBX 7 7 0 0
BITMAP
07D81E80
85E57F40
C2F3DF10
36E89D00
09D99A00
0CE1C700
0F71F400
ENDCHAR
STARTCHAR uni0419
ENCODING 1049
SWIDTH 705 0
DWIDTH 6 0
BBX 7 10 0 0
BITMAP
00082510
00068400
00000000
07D81E80
85E57F40
C2F3DF10
36E89D00
09D99A00
0CE1C700
0F71F400
ENDCHAR
STARTCHAR uni041A
ENCODING 1050
SWIDTH 635 0
DWIDTH 6 0
BBX 7 7 0 0
BITMAP
18D89E10
B3EB4300
63FB7000
06C4E000
0996C000
0C799000
0F499000
ENDCHAR
STARTCHAR uni041B
ENCODING 1051
SWIDTH 549 0
DWIDTH 5 0
BBX 7 8 -1 -1
BITMAP
00019E10
000A7E00
00769B00
01D1C800
0880F500
0E33F100
3E06D000
2C000000
ENDCHAR
STARTCHAR uni041C
ENCODING 1052
SWIDTH 787 0
DWIDTH 7 0
BBX 8 7 0 0
BITMAP
02AF24F2
2B7F2AF1
47CF2EE0
03BF7CB0
077FBA90
0B4F7C70
385F1E50
ENDCHAR
STARTCHAR uni041D
ENCODING 1053
SWIDTH 665 0
DWIDTH 6 0
BBX 7 7 0 0
BITMAP
13C73F20
B2F37E00
74FBEB00
07C0D800
09A1F500
0C73F200
0F46E000
ENDCHAR
STARTCHAR uni041E
ENCODING 1054
SWIDTH 665 0
DWIDTH 6 0
BBX 6 7 0 0
BITMAP
0578A3
77C65B
C7D05D
2C807C
0F60C7
0F54E1
08DB30
ENDCHAR
STARTCHAR uni041F
ENCODING 1055
SWIDTH 688 0
DWIDTH 6 0
BBX 7 7 0 0
BITMAP
1AEDEED0
A4E55E10
C2F28B00
26E0C800
09B0E500
0C83F200
0F56E000
ENDCHAR
STARTCHAR uni0420
ENCODING 1056
SWIDTH 573 0
DWIDTH 5 0
BBX 6 7 0 0
BITMAP
067790
94E4B4
D3F1D3
27D790
0AB300
0D7000
1F4000
ENDCHAR
STARTCHAR uni0421
ENCODING 1057
SWIDTH 497 0
DWIDTH 4 0
BBX 5 7 0 0
BITMAP
03C870
1E61A0
6F1000
AC0000
CA0000
BD0240
4DD900
ENDCHAR
STARTCHAR uni0422
ENCODING 1058
SWIDTH 481 0
DWIDTH 4 0
BBX 7 7 0 0
BITMAP
2ADFEF40
B37C0000
C0A90000
10D60000
01F30000
04F00000
07C00000
ENDCHAR
STARTCHAR uni0423
ENCODING 1059
SWIDTH 644 0
DWIDTH 6 0
BBX 7 7 0 0
BITMAP
07CB0630
847E0900
C03F6600
200ED100
000A9000
00482000
01E80000
ENDCHAR
STARTCHAR uni0424
ENCODING 1060
SWIDTH 786 0
DWIDTH 7 0
BBX 7 8 0 0
BITMAP
04788000
0A08B000
058DB920
7B0F57A0
B73F18B0
A96D1D40
18CC8400
00C80000
ENDCHAR
STARTCHAR uni0425
ENCODING 1061
SWIDTH 620 0
DWIDTH 6 0
BBX 6 7 0 0
BITMAP
06CA45
949D90
D06F40
203F40
006F70
018CA0
0719D0
ENDCHAR
STARTCHAR uni0426
ENCODING 1062
SWIDTH 692 0
DWIDTH 6 0
BBX 7 9 0 -2
BITMAP
06C82F20
84E55E00
C3F28B00
26E0C800
09B0E400
0C83F100
0FCAD000
0027EF40
00001200
ENDCHAR
STARTCHAR uni0427
ENCODING 1063
SWIDTH 695 0
DWIDTH 6 0
BBX 7 7 0 0
BITMAP
07D80D60
94E52F30
C2F25F00
12FCDC00
0046B900
0000D600
0002F300
ENDCHAR
STARTCHAR uni0428
ENCODING 1064
SWIDTH 906 0
DWIDTH 8 0
BBX 9 7 0 0
BITMAP
07D86D0E50
85E59A3F20
C3F2C76E00
26E1F49B00
09A4F1C700
0C77D0F400
0FCDEBF100
ENDCHAR
STARTCHAR uni0429
ENCODING 1065
SWIDTH 934 0
DWIDTH 8 0
BBX 9 9 0 -2
BITMAP
07D86D0E50
84E59A3F20
C3F2D76D00
26E1F49A00
09B4F1C700
0C77D0F400
0FCDB4F100
00248CFF60
0000001200
ENDCHAR
STARTCHAR uni042A
ENCODING 1066
SWIDTH 714 0
DWIDTH 6 0
BBX 7 7 0 0
BITMAP
29CF2000
B15D0000
818DA600
00B74F00
00E43F10
02F36C00
05E8E400
ENDCHAR
STARTCHAR uni042B
ENCODING 1067
SWIDTH 909 0
DWIDTH 8 0
BBX 9 7 0 0
BITMAP
17D7000E50
B2F3002F20
63F9906E00
06C0E59B00
0990D6C800
0C82F2E500
0F8E83F200
ENDCHAR
STARTCHAR uni042C
ENCODING 1068
SWIDTH 640 0
DWIDTH 6 0
BBX 6 7 0 0
BITMAP
17D700
B2F300
63F990
06C0E5
0990D6
0C82F2
0F8E80
ENDCHAR
STARTCHAR uni042D
ENCODING 1069
SWIDTH 544 0
DWIDTH 5 0
BBX 6 7 -1 0
BITMAP
008DD4
0210CB
007BEC
0000EA
0403F6
1C09D0
098B20
ENDCHAR
STARTCHAR uni042E
ENCODING 1070
SWIDTH 946 0
DWIDTH 9 0
BBX 9 7 0 0
BITMAP
18D729BA00
B3E37C0D40
73FCF60C60
06C5F10E50
09A7E03E10
0C76D0A800
0F41CB8000
ENDCHAR
STARTCHAR uni042F
ENCODING 1071
SWIDTH 630 0
DWIDTH 6 0
BBX 8 7 -1 0
BITMAP
00398880
00D2AAA3
00D1D720
01ABF400
06C4F100
0A87D000
1D3AA000
ENDCHAR
STARTCHAR uni0430
ENCODING 1072
SWIDTH 526 0
DWIDTH 5 0
BBX 6 5 -1 0
BITMAP
02C9F3
0AA4F1
0E57D0
1F4BA4
0BC8E5
ENDCHAR
STARTCHAR uni0431
ENCODING 1073
SWIDTH 430 0
DWIDTH 4 0
BBX 6 8 -1 0
BITMAP
000110
007FFD
003B41
019C30
0AA460
0F5660
1F3A20
0AD600
ENDCHAR
STARTCHAR uni0432
ENCODING 1074
SWIDTH 449 0
DWIDTH 4 0
BBX 6 7 -1 0
BITMAP
004C70
01E380
07C440
0C9E85
0F5670
1F4840
0AE800
ENDCHAR
STARTCHAR uni0433
ENCODING 1075
SWIDTH 375 0
DWIDTH 3 0
BBX 5 5 -1 0
BITMAP
05DC00
066E00
05D500
1F5140
1DD800
ENDCHAR
STARTCHAR uni0434
ENCODING 1076
SWIDTH 507 0
DWIDTH 5 0
BBX 6 7 -1 -2
BITMAP
02C9F3
0AA4F1
0E57C0
1F4BA4
0BDE92
028F30
04DA00
ENDCHAR
STARTCHAR uni0435
ENCODING 1077
SWIDTH 384 0
DWIDTH 3 0
BBX 5 5 -1 0
BITMAP
01BA20
0A9920
0E9400
1F4150
0BD700
ENDCHAR
STARTCHAR uni0436
ENCODING 1078
SWIDTH 882 0
DWIDTH 8 0
BBX 10 5 -1 0
BITMAP
07C66C3A90
035C8AB450
006DDCF000
2597E6F031
2AA3F1CB50
ENDCHAR
STARTCHAR uni0437
ENCODING 1079
SWIDTH 498 0
DWIDTH 4 0
BBX 5 7 0 -2
BITMAP
1BE700
729C00
60B700
0BC060
03F710
49F100
5D8000
ENDCHAR
STARTCHAR uni0438
ENCODING 1080
SWIDTH 505 0
DWIDTH 5 0
BBX 6 5 -1 0
BITMAP
07C4F1
0A97D0
0D7AA0
1F5D75
0DC9D3
ENDCHAR
STARTCHAR uni0439
ENCODING 1081
SWIDTH 505 0
DWIDTH 5 0
BBX 6 7 -1 0
BITMAP
009251
007840
07C4F1
0A97D0
0D7AA0
1F5D75
0DC9D3
ENDCHAR
STARTCHAR uni043A
ENCODING 1082
SWIDTH 501 0
DWIDTH 5 0
BBX 6 5 -1 0
BITMAP
07C3C3
0AC920
0DBE70
1F3C75
4F19D3
ENDCHAR
STARTCHAR uni043B
ENCODING 1083
SWIDTH 558 0
DWIDTH 5 0
BBX 7 5 -1 0
BITMAP
0008D700
0034E500
0063F200
3774E230
2A63E900
ENDCHAR
STARTCHAR uni043C
ENCODING 1084
SWIDTH 827 0
DWIDTH 7 0
BBX 9 5 -1 0
BITMAP
000AB0AE00
003AB2EB00
0066C8B800
3774D8D650
2A63F2AD30
ENDCHAR
STARTCHAR uni043D
ENCODING 1085
SWIDTH 507 0
DWIDTH 5 0
BBX 6 5 -1 0
BITMAP
07C2F1
0AA5D0
0DCCA0
1F4B84
4F19D4
ENDCHAR
STARTCHAR uni043E
ENCODING 1086
SWIDTH 439 0
DWIDTH 4 0
BBX 6 5 -1 0
BITMAP
01BB30
0AA6A6
0E5660
1F4A20
0BE600
ENDCHAR
STARTCHAR uni043F
ENCODING 1087
SWIDTH 505 0
DWIDTH 5 0
BBX 6 5 -1 0
BITMAP
07EDA0
0AA7C0
0D69A0
1F4B75
4F18D4
ENDCHAR
STARTCHAR uni0440
ENCODING 1088
SWIDTH 468 0
DWIDTH 4 0
BBX 5 9 -1 -3
BITMAP
037000
08ECA0
0AA4E0
0D76D0
1F4B90
4FDC20
7D0000
AA0000
410000
ENDCHAR
STARTCHAR uni0441
ENCODING 1089
SWIDTH 384 0
DWIDTH 3 0
BBX 5 5 -1 0
BITMAP
01BA20
0A9410
0E5000
1F4140
0BD800
ENDCHAR
STARTCHAR uni0442
ENCODING 1090
SWIDTH 752 0
DWIDTH 7 0
BBX 8 5 -1 0
BITMAP
07EDABD0
0AB7D4F1
0D6AA6D0
1F4D78A4
4F1F45E6
ENDCHAR
STARTCHAR uni0443
ENCODING 1091
SWIDTH 486 0
DWIDTH 4 0
BBX 6 7 -1 -2
BITMAP
07C4F1
0A97D0
0D7AA0
1F5D74
0DCF71
049F10
06D800
ENDCHAR
STARTCHAR uni0444
ENCODING 1092
SWIDTH 738 0
DWIDTH 7 0
BBX 8 10 -1 -3
BITMAP
00008700
0000D500
01C9F9D1
0AA4E0F4
0F57B1F2
1F4B87E0
0BDEDE40
001F2000
004E0000
00220000
ENDCHAR
STARTCHAR uni0445
ENCODING 1093
SWIDTH 522 0
DWIDTH 5 0
BBX 5 6 0 0
BITMAP
000750
1AC360
52F910
60F500
17D650
547E50
ENDCHAR
STARTCHAR uni0446
ENCODING 1094
SWIDTH 535 0
DWIDTH 5 0
BBX 6 7 -1 -2
BITMAP
07C4F1
0A97D0
0D7AA0
1F5D70
0DCAF3
00CFC0
025310
ENDCHAR
STARTCHAR uni0447
ENCODING 1095
SWIDTH 505 0
DWIDTH 5 0
BBX 5 5 0 0
BITMAP
7C4F10
A97D00
BCDA00
36C750
009D30
ENDCHAR
STARTCHAR uni0448
ENCODING 1096
SWIDTH 752 0
DWIDTH 7 0
BBX 8 5 -1 0
BITMAP
07C4F1F4
0A97D3F1
0D7AA6D0
1F5D7AB4
0DC9D8E6
ENDCHAR
STARTCHAR uni0449
ENCODING 1097
SWIDTH 782 0
DWIDTH 7 0
BBX 8 7 -1 -2
BITMAP
07C4F1F4
0A97D3F1
0D7AA6D0
1F5D7AB0
0DC9D9F6
0000AFE2
00018410
ENDCHAR
STARTCHAR uni044A
ENCODING 1098
SWIDTH 448 0
DWIDTH 4 0
BBX 4 5 0 0
BITMAP
AC40
6DB5
B68A
F4B7
BDA0
ENDCHAR
STARTCHAR uni044B
ENCODING 1099
SWIDTH 655 0
DWIDTH 6 0
BBX 7 5 0 0
BITMAP
7B05C600
AAD5F300
D587F000
F3B7D410
BD64E700
ENDCHAR
STARTCHAR uni044C
ENCODING 1100
SWIDTH 448 0
DWIDTH 4 0
BBX 4 5 0 0
BITMAP
7C00
AC82
D8A9
F4B7
BDA1
ENDCHAR
STARTCHAR uni044D
ENCODING 1101
SWIDTH 413 0
DWIDTH 4 0
BBX 5 5 -1 0
BITMAP
05DD10
040F50
019F30
335D00
4AA300
ENDCHAR
STARTCHAR uni044E
ENCODING 1102
SWIDTH 675 0
DWIDTH 6 0
BBX 9 5 -1 0
BITMAP
07C0AA5000
0AA7B5B510
0DCE747000
1F4F683000
4F1AE80000
ENDCHAR
STARTCHAR uni044F
ENCODING 1103
SWIDTH 527 0
DWIDTH 5 0
BBX 6 5 -1 0
BITMAP
01A9F3
05C3F1
01CBD0
4999A6
2B66E5
ENDCHAR
STARTCHAR uni0450
ENCODING 1104
SWIDTH 384 0
DWIDTH 3 0
BBX 5 8 -1 0
BITMAP
006500
002700
000000
01BA20
0A9920
0E9400
1F4150
0BD700
ENDCHAR
STARTCHAR uni0451
ENCODING 1105
SWIDTH 384 0
DWIDTH 3 0
BBX 5 7 -1 0
BITMAP
008370
000000
01BA20
0A9920
0E9400
1F4150
0BD700
ENDCHAR
STARTCHAR uni0452
ENCODING 1106
SWIDTH 491 0
DWIDTH 4 0
BBX 6 10 -1 -2
BITMAP
001100
02F200
09F810
08DD70
0BA9B0
0D5B90
1F3E65
4F5F50
06BE00
05D700
ENDCHAR
STARTCHAR uni0453
ENCODING 1107
SWIDTH 375 0
DWIDTH 3 0
BBX 5 8 -1 0
BITMAP
000750
000900
000000
05DC00
066E00
05D500
1F5140
1DD800
ENDCHAR
STARTCHAR uni0454
ENCODING 1108
SWIDTH 384 0
DWIDTH 3 0
BBX 5 5 -1 0
BITMAP
01BA20
0AA410
0EB400
1F4140
0BD910
ENDCHAR
STARTCHAR uni0455
ENCODING 1109
SWIDTH 382 0
DWIDTH 3 0
BBX 5 6 -1 0
BITMAP
004400
00EA00
04BB00
078C00
378E40
1BD400
ENDCHAR
STARTCHAR uni0456
ENCODING 1110
SWIDTH 267 0
DWIDTH 2 0
BBX 4 7 -1 0
BITMAP
01D1
0070
07C0
0A90
0D70
1F45
0DC2
ENDCHAR
STARTCHAR uni0457
ENCODING 1111
SWIDTH 267 0
DWIDTH 2 0
BBX 4 7 -1 0
BITMAP
0B4B
0101
07C0
0A90
0D70
1F45
0DC2
ENDCHAR
STARTCHAR uni0458
ENCODING 1112
SWIDTH 240 0
DWIDTH 2 0
BBX 5 9 -2 -2
BITMAP
002D10
001600
007C00
00A900
00D600
01F540
06F500
6BC000
8D4000
ENDCHAR
STARTCHAR uni0459
ENCODING 1113
SWIDTH 745 0
DWIDTH 7 0
BBX 8 5 -1 0
BITMAP
0009E700
0036EA70
0074F4E4
3794E1E2
2B72DD60
ENDCHAR
STARTCHAR uni045A
ENCODING 1114
SWIDTH 694 0
DWIDTH 6 0
BBX 7 5 -1 0
BITMAP
07C2F100
0AA5E620
0DCCC9C0
1F4B77B0
4F17DC20
ENDCHAR
STARTCHAR uni045B
ENCODING 1115
SWIDTH 505 0
DWIDTH 5 0
BBX 6 8 -1 0
BITMAP
001100
02F200
09F810
08C000
0BDD70
0D99A0
1F4B74
4F19D4
ENDCHAR
STARTCHAR uni045C
ENCODING 1116
SWIDTH 501 0
DWIDTH 5 0
BBX 6 8 -1 0
BITMAP
0002B0
000720
000000
07C3C3
0AC920
0DBE70
1F3C75
4F19D3
ENDCHAR
STARTCHAR uni045D
ENCODING 1117
SWIDTH 505 0
DWIDTH 5 0
BBX 6 8 -1 0
BITMAP
003700
000900
000000
07C4F1
0A97D0
0D7AA0
1F5D75
0DC9D3
ENDCHAR
STARTCHAR uni045E
ENCODING 1118
SWIDTH 486 0
DWIDTH 4 0
BBX 6 9 -1 -2
BITMAP
009250
007840
07C4F1
0A97D0
0D7AA0
1F5D74
0DCF71
049F10
06D800
ENDCHAR
STARTCHAR uni045F
ENCODING 1119
SWIDTH 505 0
DWIDTH 5 0
BBX 6 8 -1 -3
BITMAP
07C4F1
0A97D0
0D7AA0
1F5D75
0DC9D3
005400
007800
001100
ENDCHAR
STARTCHAR uni0462
ENCODING 1122
SWIDTH 659 0
DWIDTH 6 0
BBX 6 7 0 0
BITMAP
00D600
7CFEE6
95FAA0
07A1F4
0B80E4
0E63E1
2F8E60
ENDCHAR
STARTCHAR uni0463
ENCODING 1123
SWIDTH 692 0
DWIDTH 6 0
BBX 7 5 -1 0
BITMAP
07EDA000
0AA7EC70
0D6996D0
1F4B78A0
4F17EB10
ENDCHAR
STARTCHAR uni046A
ENCODING 1130
SWIDTH 834 0
DWIDTH 8 0
BBX 7 7 0 0
BITMAP
02AF98C0
2A1F7540
760CC800
14ACFA80
0B88B4E0
0E4B87B0
5D1E5990
ENDCHAR
STARTCHAR uni046B
ENCODING 1131
SWIDTH 750 0
DWIDTH 7 0
BBX 6 5 0 0
BITMAP
08CD87
486E90
08AFB7
0F5E6C
5C6B89
ENDCHAR
STARTCHAR uni0472
ENCODING 1138
SWIDTH 665 0
DWIDTH 6 0
BBX 6 7 0 0
BITMAP
0578A3
77C65B
C7E05D
1CB8CC
0F60C7
0F55E1
08DB30
ENDCHAR
STARTCHAR uni0473
ENCODING 1139
SWIDTH 439 0
DWIDTH 4 0
BBX 6 5 -1 0
BITMAP
01BB40
0A96B7
0EAB50
1F4B20
0BE600
ENDCHAR
STARTCHAR uni0474
ENCODING 1140
SWIDTH 668 0
DWIDTH 6 0
BBX 7 7 0 0
BITMAP
06C90B50
94B95A00
D0B9A300
20B9B000
00AB7000
00AE2000
00AC0000
ENDCHAR
STARTCHAR uni0475
ENCODING 1141
SWIDTH 414 0
DWIDTH 4 0
BBX 5 5 -1 0
BITMAP
07C670
0A9180
0D7450
1F4A10
0CD400
ENDCHAR
STARTCHAR uni0490
ENCODING 1168
SWIDTH 431 0
DWIDTH 4 0
BBX 6 8 0 0
BITMAP
000018
19EFF9
A3F420
C4F100
37D000
0A9000
0D6000
1F3000
ENDCHAR
STARTCHAR uni0491
ENCODING 1169
SWIDTH 342 0
DWIDTH 3 0
BBX 5 6 -1 0
BITMAP
000540
07EA20
0A9000
0D6000
1F4000
4F1000
ENDCHAR
STARTCHAR uni0492
ENCODING 1170
SWIDTH 400 0
DWIDTH 4 0
BBX 6 7 0 0
BITMAP
2AEFF9
B3E520
A4F100
2BE600
0AA000
0C7000
0F4000
ENDCHAR
STARTCHAR uni0493
ENCODING 1171
SWIDTH 375 0
DWIDTH 3 0
BBX 5 5 -1 0
BITMAP
05DC00
066E00
1ADA10
1F5140
1DD700
ENDCHAR
STARTCHAR uni0494
ENCODING 1172
SWIDTH 665 0
DWIDTH 6 0
BBX 6 7 0 0
BITMAP
2AEFF9
C3E520
93FAA1
05D0C7
09A0B8
0C81E3
0F8D70
ENDCHAR
STARTCHAR uni0495
ENCODING 1173
SWIDTH 486 0
DWIDTH 4 0
BBX 6 7 -1 -2
BITMAP
07EFD0
0ADD40
0D5C71
1F3E64
4F6F30
06BD00
06D600
ENDCHAR
STARTCHAR uni0496
ENCODING 1174
SWIDTH 777 0
DWIDTH 7 0
BBX 9 10 -1 -3
BITMAP
01E75B4E50
003AAAA310
0008DB4000
01D9F9F200
07B4F1F300
0A87C3F000
2D4A95E000
0000067000
000005D000
0000009000
ENDCHAR
STARTCHAR uni0497
ENCODING 1175
SWIDTH 882 0
DWIDTH 8 0
BBX 10 8 -1 -3
BITMAP
07C66C3A90
035C8AB450
006DDCF000
2597E6F031
2AA3F1CB50
0000004700
0000004A00
0000000100
ENDCHAR
STARTCHAR uni0498
ENCODING 1176
SWIDTH 525 0
DWIDTH 5 0
BBX 6 10 -1 -3
BITMAP
007AD3
0112F5
006E90
0005F2
0304F3
1D07D0
0A9A20
00B300
009900
003400
ENDCHAR
STARTCHAR uni0499
ENCODING 1177
SWIDTH 498 0
DWIDTH 4 0
BBX 5 10 0 -5
BITMAP
1BE700
729C00
60B700
0BC060
03F710
49F200
5D9000
190000
2D0000
020000
ENDCHAR
STARTCHAR uni049A
ENCODING 1178
SWIDTH 635 0
DWIDTH 6 0
BBX 7 10 0 -3
BITMAP
06C87E10
75E97300
C3FB0000
56FB7000
09B4E000
0C88B000
0F5A9000
00095000
0007B000
00027000
ENDCHAR
STARTCHAR uni049B
ENCODING 1179
SWIDTH 501 0
DWIDTH 5 0
BBX 6 8 -1 -3
BITMAP
07C3C3
0AC920
0DBE70
1F3C75
4F19E3
000470
000590
000110
ENDCHAR
STARTCHAR uni049C
ENCODING 1180
SWIDTH 721 0
DWIDTH 6 0
BBX 7 7 0 0
BITMAP
18D72BB0
A3E7B430
83FD9000
06C4D500
09A0E400
0C73F100
0F43E100
ENDCHAR
STARTCHAR uni049D
ENCODING 1181
SWIDTH 551 0
DWIDTH 5 0
BBX 7 5 -1 0
BITMAP
07C08B00
0ACA2100
0DDBD000
1FA5E320
4F13E900
ENDCHAR
STARTCHAR uni04A0
ENCODING 1184
SWIDTH 691 0
DWIDTH 6 0
BBX 7 7 0 0
BITMAP
3BDE4D70
C27D9220
70ADA200
00D4C700
01F2E500
04E2F200
07C2E100
ENDCHAR
STARTCHAR uni04A1
ENCODING 1185
SWIDTH 676 0
DWIDTH 6 0
BBX 7 5 0 0
BITMAP
6AE58B00
D1FA5300
64FBE000
07C3F230
0A92EA00
ENDCHAR
STARTCHAR uni04A2
ENCODING 1186
SWIDTH 665 0
DWIDTH 6 0
BBX 7 9 0 -2
BITMAP
17D73F20
B2F37E00
73FBEB00
06C0D700
09A1F400
0C73F100
0F46E400
00007F40
00000300
ENDCHAR
STARTCHAR uni04A3
ENCODING 1187
SWIDTH 507 0
DWIDTH 5 0
BBX 6 8 -1 -3
BITMAP
07C2F1
0AA5D0
0DCCA0
1F4B84
4F19E4
000470
0004A0
000010
ENDCHAR
STARTCHAR uni04A4
ENCODING 1188
SWIDTH 689 0
DWIDTH 6 0
BBX 9 7 0 0
BITMAP
18D73FEF20
B2F37E0000
73FBEB0000
06C0D80000
09A1F50000
0C73F20000
0F46E00000
ENDCHAR
STARTCHAR uni04A5
ENCODING 1189
SWIDTH 681 0
DWIDTH 6 0
BBX 8 5 -1 0
BITMAP
07C2EEF2
0AA5D010
0DCCA000
1F4B8400
4F19E400
ENDCHAR
STARTCHAR uni04AA
ENCODING 1194
SWIDTH 497 0
DWIDTH 4 0
BBX 5 11 0 -4
BITMAP
03C870
1D71B0
6F1010
AC0000
CB0000
CB0030
7FAA20
089100
05D000
00B000
001000
ENDCHAR
STARTCHAR uni04AB
ENCODING 1195
SWIDTH 384 0
DWIDTH 3 0
BBX 5 8 -1 -3
BITMAP
01BA20
0A9410
0E5000
1F4140
0BD900
02A000
02C000
001000
ENDCHAR
STARTCHAR uni04AE
ENCODING 1198
SWIDTH 620 0
DWIDTH 6 0
BBX 7 7 0 0
BITMAP
06CA0710
948E0800
D05F7300
201FB000
000F7000
003F4000
006F1000
ENDCHAR
STARTCHAR uni04AF
ENCODING 1199
SWIDTH 480 0
DWIDTH 4 0
BBX 4 8 0 -3
BITMAP
7C0D
6D07
5F07
3F53
2F70
3F20
6E00
3300
ENDCHAR
STARTCHAR uni04B0
ENCODING 1200
SWIDTH 620 0
DWIDTH 6 0
BBX 7 7 0 0
BITMAP
06CA0710
948E0800
D05F7300
201FB000
006FE200
003F4000
006F1000
ENDCHAR
STARTCHAR uni04B1
ENCODING 1201
SWIDTH 480 0
DWIDTH 4 0
BBX 4 8 0 -3
BITMAP
7C0D
6D07
5F07
3F53
9FF0
3F20
6E00
3300
ENDCHAR
STARTCHAR uni04B6
ENCODING 1206
SWIDTH 695 0
DWIDTH 6 0
BBX 7 9 0 -2
BITMAP
07D80D60
94E42F30
B2F25E00
01FCEB00
0046B800
0000E500
0002F610
00004F80
00000200
ENDCHAR
STARTCHAR uni04B7
ENCODING 1207
SWIDTH 505 0
DWIDTH 5 0
BBX 5 8 0 -3
BITMAP
7C4F10
A97D00
BCDA00
36C750
00AD30
005700
005900
000100
ENDCHAR
STARTCHAR uni04B8
ENCODING 1208
SWIDTH 715 0
DWIDTH 6 0
BBX 7 7 0 0
BITMAP
06C80A90
84E50E60
C2F43F30
21FCBE00
00499C00
0002B900
0000E600
ENDCHAR
STARTCHAR uni04B9
ENCODING 1209
SWIDTH 545 0
DWIDTH 5 0
BBX 6 5 0 0
BITMAP
7C0E60
A96F30
BDEF00
2A9D41
024E70
ENDCHAR
STARTCHAR uni04BA
ENCODING 1210
SWIDTH 679 0
DWIDTH 6 0
BBX 6 7 0 0
BITMAP
06C800
84F500
C3F561
36FBF8
09B0B8
0C80D6
0F52F3
ENDCHAR
STARTCHAR uni04BB
ENCODING 1211
SWIDTH 505 0
DWIDTH 5 0
BBX 6 7 -1 0
BITMAP
01C300
04F000
07EDA0
0AB7C0
0D69A0
1F4B75
4F18D4
ENDCHAR
STARTCHAR uni04C0
ENCODING 1216
SWIDTH 375 0
DWIDTH 3 0
BBX 4 7 0 0
BITMAP
07D7
95F4
D3F1
26D0
09A0
0D70
1F40
ENDCHAR
STARTCHAR uni04C1
ENCODING 1217
SWIDTH 777 0
DWIDTH 7 0
BBX 9 10 -1 0
BITMAP
0000A15000
0000883000
0000000000
01E75B4E50
003AAAA310
0008DB4000
01D9F9F200
07B4F1F300
0A87C4F000
2D4A94D000
ENDCHAR
STARTCHAR uni04C2
ENCODING 1218
SWIDTH 882 0
DWIDTH 8 0
BBX 10 7 -1 0
BITMAP
0000A15000
0000883000
07C66C3A90
035C8AB450
006DDCF000
2597E6F031
2AA3F1CB50
ENDCHAR
STARTCHAR uni04CB
ENCODING 1227
SWIDTH 695 0
DWIDTH 6 0
BBX 7 9 0 -2
BITMAP
06C80D60
75E51F30
C2F24F00
42F7AC00
0046B900
0000D600
0115F300
03FA1000
00200000
ENDCHAR
STARTCHAR uni04CC
ENCODING 1228
SWIDTH 516 0
DWIDTH 5 0
BBX 5 7 0 -2
BITMAP
6E2F20
9B5E00
9DDB00
26BA60
006B20
5FE200
741000
ENDCHAR
STARTCHAR uni04CF
ENCODING 1231
SWIDTH 267 0
DWIDTH 2 0
BBX 4 7 -1 0
BITMAP
02F3
05F0
07C0
0A90
0D60
1F56
0DC1
ENDCHAR
STARTCHAR uni04D0
ENCODING 1232
SWIDTH 668 0
DWIDTH 6 0
BBX 8 11 0 -1
BITMAP
00007342
00005850
00000000
00026E20
00197E00
4AD8BB00
C5C0D800
0A71F500
0F23F200
3E06E000
1C000000
ENDCHAR
STARTCHAR uni04D1
ENCODING 1233
SWIDTH 526 0
DWIDTH 5 0
BBX 6 7 -1 0
BITMAP
004714
003970
02C9F3
0AA4F1
0E57D0
1F4BA4
0BC8E5
ENDCHAR
STARTCHAR uni04D2
ENCODING 1234
SWIDTH 668 0
DWIDTH 6 0
BBX 7 10 0 -1
BITMAP
00005480
00000000
00026E20
00197E00
4AD8BB00
C5C0D800
0A71F500
0F23F200
3E06E000
1C000000
ENDCHAR
STARTCHAR uni04D3
ENCODING 1235
SWIDTH 526 0
DWIDTH 5 0
BBX 6 7 -1 0
BITMAP
002753
000000
02C9F3
0AA4F1
0E57D0
1F4BA4
0BC8E5
ENDCHAR
STARTCHAR uni04D4
ENCODING 1236
SWIDTH 764 0
DWIDTH 7 0
BBX 9 8 0 -1
BITMAP
00028FBB10
002A6E0000
3AD7AB0000
D6C1DDA000
5A70F50000
1F23F20000
3E06FFE000
2C00000000
ENDCHAR
STARTCHAR uni04D5
ENCODING 1237
SWIDTH 650 0
DWIDTH 6 0
BBX 6 5 0 0
BITMAP
18CBB8
007E48
6BDC60
F4DA05
CC7EA2
ENDCHAR
STARTCHAR uni04D6
ENCODING 1238
SWIDTH 459 0
DWIDTH 4 0
BBX 5 10 0 0
BITMAP
00A050
008830
000000
02BA30
0B6650
0A9000
2C8000
BC0000
DB0320
7EC500
ENDCHAR
STARTCHAR uni04D7
ENCODING 1239
SWIDTH 384 0
DWIDTH 3 0
BBX 5 7 -1 0
BITMAP
00A050
008830
01BA20
0A9920
0E9400
1F4150
0BD700
ENDCHAR
STARTCHAR uni04D8
ENCODING 1240
SWIDTH 544 0
DWIDTH 5 0
BBX 5 7 0 0
BITMAP
09EC30
183DA0
0009C0
038DB0
4C2E60
B57D00
7CB200
ENDCHAR
STARTCHAR uni04D9
ENCODING 1241
SWIDTH 404 0
DWIDTH 4 0
BBX 4 5 0 0
BITMAP
4DD2
20E6
18E5
B4E1
AA40
ENDCHAR
STARTCHAR uni04DC
ENCODING 1244
SWIDTH 777 0
DWIDTH 7 0
BBX 9 9 -1 0
BITMAP
0000738000
0000000000
01E75B4E50
003AAAA310
0008DB4000
01D9F9F200
07B4F1F300
0A87C4F000
2D4A94D000
ENDCHAR
STARTCHAR uni04DD
ENCODING 1245
SWIDTH 882 0
DWIDTH 8 0
BBX 10 7 -1 0
BITMAP
0000738000
0000000000
07C66C3A90
035C8AB450
006DDCF000
2597E6F031
2AA3F1CB50
ENDCHAR
STARTCHAR uni04DE
ENCODING 1246
SWIDTH 525 0
DWIDTH 5 0
BBX 6 9 -1 0
BITMAP
000936
000000
007AD3
0112F5
006E90
0005F2
0304F3
1D07E1
0A9C30
ENDCHAR
STARTCHAR uni04DF
ENCODING 1247
SWIDTH 498 0
DWIDTH 4 0
BBX 5 9 0 -2
BITMAP
063900
000000
1BE700
729C00
60B700
0BC060
03F710
49F100
5D8000
ENDCHAR
STARTCHAR uni04E2
ENCODING 1250
SWIDTH 705 0
DWIDTH 6 0
BBX 7 9 0 0
BITMAP
0009BB10
00000000
07D81E80
85E57F40
C2F3DF10
36E89D00
09D99A00
0CE1C700
0F71F400
ENDCHAR
STARTCHAR uni04E3
ENCODING 1251
SWIDTH 505 0
DWIDTH 5 0
BBX 6 7 -1 0
BITMAP
009BB1
000000
07C4F1
0A97D0
0D7AA0
1F5D75
0DC9D3
ENDCHAR
STARTCHAR uni04E4
ENCODING 1252
SWIDTH 705 0
DWIDTH 6 0
BBX 7 9 0 0
BITMAP
00063900
00000000
07D81E80
85E57F40
C2F3DF10
36E89D00
09D99A00
0CE1C700
0F71F400
ENDCHAR
STARTCHAR uni04E5
ENCODING 1253
SWIDTH 505 0
DWIDTH 5 0
BBX 6 7 -1 0
BITMAP
006390
000000
07C4F1
0A97D0
0D7AA0
1F5D75
0DC9D3
ENDCHAR
STARTCHAR uni04E6
ENCODING 1254
SWIDTH 665 0
DWIDTH 6 0
BBX 6 9 0 0
BITMAP
000837
000000
0578A3
77C65B
C7D05D
2C807C
0F60C7
0F54E1
08DB30
ENDCHAR
STARTCHAR uni04E7
ENCODING 1255
SWIDTH 439 0
DWIDTH 4 0
BBX 6 7 -1 0
BITMAP
006390
000000
01BB30
0AA6A6
0E5660
1F4A20
0BE600
ENDCHAR
STARTCHAR uni04E8
ENCODING 1256
SWIDTH 665 0
DWIDTH 6 0
BBX 6 7 0 0
BITMAP
0578A3
77C55B
C7D05D
2CC8BC
0F60C7
0F54E1
08DB30
ENDCHAR
STARTCHAR uni04E9
ENCODING 1257
SWIDTH 439 0
DWIDTH 4 0
BBX 6 5 -1 0
BITMAP
01BB30
0AA6A6
0FDD90
1F4A20
0BE600
ENDCHAR
STARTCHAR uni04EE
ENCODING 1262
SWIDTH 644 0
DWIDTH 6 0
BBX 7 9 0 0
BITMAP
0007BB20
00000000
07CB0630
847E0900
C03F6600
200ED100
000A9000
00482000
01E80000
ENDCHAR
STARTCHAR uni04EF
ENCODING 1263
SWIDTH 486 0
DWIDTH 4 0
BBX 6 9 -1 -2
BITMAP
009BB1
000000
07C4F1
0A97D0
0D7AA0
1F5D74
0DCF71
049F10
06D800
ENDCHAR
STARTCHAR uni04F0
ENCODING 1264
SWIDTH 644 0
DWIDTH 6 0
BBX 7 9 0 0
BITMAP
00054800
00000000
07CB0630
847E0900
C03F6600
200ED100
000A9000
00482000
01E80000
ENDCHAR
STARTCHAR uni04F1
ENCODING 1265
SWIDTH 486 0
DWIDTH 4 0
BBX 6 9 -1 -2
BITMAP
006380
000000
07C4F1
0A97D0
0D7AA0
1F5D74
0DCF71
049F10
06D800
ENDCHAR
STARTCHAR uni04F2
ENCODING 1266
SWIDTH 644 0
DWIDTH 6 0
BBX 7 10 0 0
BITMAP
0000A650
00045900
00000000
07CB0630
847E0900
C03F6600
200ED100
000A9000
00482000
01E80000
ENDCHAR
STARTCHAR uni04F3
ENCODING 1267
SWIDTH 486 0
DWIDTH 4 0
BBX 6 10 -1 -2
BITMAP
001A83
006490
000000
07C4F1
0A97D0
0D7AA0
1F5D74
0DCF71
049F10
06D800
ENDCHAR
STARTCHAR uni04F4
ENCODING 1268
SWIDTH 695 0
DWIDTH 6 0
BBX 7 9 0 0
BITMAP
00063900
00000000
07D80D60
94E52F30
C2F25F00
12FCDC00
0046B900
0000D600
0002F300
ENDCHAR
STARTCHAR uni04F5
ENCODING 1269
SWIDTH 505 0
DWIDTH 5 0
BBX 5 7 0 0
BITMAP
073800
000000
7C4F10
A97D00
BCDA00
36C750
009D30
ENDCHAR
STARTCHAR uni04F6
ENCODING 1270
SWIDTH 442 0
DWIDTH 4 0
BBX 6 9 0 -2
BITMAP
19DFF9
A4E620
D3F200
26E000
09B000
0C8000
0F7100
02EA00
002100
ENDCHAR
STARTCHAR uni04F7
ENCODING 1271
SWIDTH 375 0
DWIDTH 3 0
BBX 5 8 -1 -3
BITMAP
05DC00
066E00
04D500
1F5140
1DD800
047000
04A000
001000
ENDCHAR
STARTCHAR uni04F8
ENCODING 1272
SWIDTH 909 0
DWIDTH 8 0
BBX 9 9 0 0
BITMAP
0000639000
0000000000
17D7000E50
B2F3002F20
63F9906E00
06C0E59B00
0990D6C800
0C82F2E500
0F8E83F200
ENDCHAR
STARTCHAR uni04F9
ENCODING 1273
SWIDTH 642 0
DWIDTH 6 0
BBX 6 7 0 0
BITMAP
008450
000000
6A04B4
ABD6F2
D587E0
F3B7B4
BD54E6
ENDCHAR
STARTCHAR uni051A
ENCODING 1306
SWIDTH 665 0
DWIDTH 6 0
BBX 6 8 0 -1
BITMAP
0679A3
77C55B
C7D05D
1C808B
0F60C7
0F9AE1
08DE60
0004D3
ENDCHAR
STARTCHAR uni051B
ENCODING 1307
SWIDTH 486 0
DWIDTH 4 0
BBX 6 8 -1 -3
BITMAP
02C9F3
0AA4F1
0E57C0
1F4B90
0BDE70
001F40
004F10
002300
ENDCHAR
STARTCHAR uni051C
ENCODING 1308
SWIDTH 962 0
DWIDTH 9 0
BBX 10 7 0 0
BITMAP
06C909A072
94B90EB090
D0B94DB260
20B989B710
00AA79B700
00AE38E500
00AD08E000
ENDCHAR
STARTCHAR uni051D
ENCODING 1309
SWIDTH 661 0
DWIDTH 6 0
BBX 7 5 -1 0
BITMAP
07C4F4A0
0A97D080
0D7AA180
1F5D7830
0DBAE600
ENDCHAR
STARTCHAR uni0524
ENCODING 1316
SWIDTH 742 0
DWIDTH 7 0
BBX 7 9 0 -2
BITMAP
19EDEED0
A3F55E10
C3F29B00
26E0C800
09B0F500
0C83F200
0F56E200
00008F40
00000300
ENDCHAR
STARTCHAR uni0525
ENCODING 1317
SWIDTH 505 0
DWIDTH 5 0
BBX 6 8 -1 -3
BITMAP
07EDA0
0AA7C0
0D69A0
1F4B75
4F19E4
000470
0004A0
000010
ENDCHAR
STARTCHAR uni1E0C
ENCODING 7692
SWIDTH 663 0
DWIDTH 6 0
BBX 6 9 0 -2
BITMAP
0777A1
A5E489
C3F17C
27D09B
0AA0C7
0D64F2
1FBE50
017000
03D000
ENDCHAR
STARTCHAR uni1E0D
ENCODING 7693
SWIDTH 525 0
DWIDTH 5 0
BBX 6 9 -1 -2
BITMAP
000088
0000D6
02C9F3
0AA4F1
0E57D0
1F4BA4
0BC8E5
007000
01D200
ENDCHAR
STARTCHAR uni1E20
ENCODING 7712
SWIDTH 578 0
DWIDTH 5 0
BBX 6 11 0 -2
BITMAP
009BB1
000000
04B890
3F30D1
AB0010
C904B0
AB0B90
2CBD60
195F20
585C00
188200
ENDCHAR
STARTCHAR uni1E21
ENCODING 7713
SWIDTH 507 0
DWIDTH 5 0
BBX 6 9 -1 -2
BITMAP
007BB3
000000
02C9F3
0AA4F1
0E57C0
1F4BA4
0BDE92
028F30
04DA00
ENDCHAR
STARTCHAR uni1E24
ENCODING 7716
SWIDTH 665 0
DWIDTH 6 0
BBX 7 9 0 -2
BITMAP
13C73F20
B2F37E00
74FBEB00
07C0D800
09A1F500
0C73F200
0F46E000
00710000
00D30000
ENDCHAR
STARTCHAR uni1E25
ENCODING 7717
SWIDTH 505 0
DWIDTH 5 0
BBX 6 9 -1 -2
BITMAP
01C300
04F000
07EDA0
0AB7C0
0D69A0
1F4B75
4F18D4
017000
02D100
ENDCHAR
STARTCHAR uni1E2A
ENCODING 7722
SWIDTH 665 0
DWIDTH 6 0
BBX 7 9 0 -2
BITMAP
13C73F20
B2F37E00
74FBEB00
07C0D800
09A1F500
0C73F200
0F46E000
06051000
05960000
ENDCHAR
STARTCHAR uni1E2B
ENCODING 7723
SWIDTH 505 0
DWIDTH 5 0
BBX 6 9 -1 -2
BITMAP
01C300
04F000
07EDA0
0AB7C0
0D69A0
1F4B75
4F18D4
060600
079500
ENDCHAR
STARTCHAR uni1E36
ENCODING 7734
SWIDTH 379 0
DWIDTH 3 0
BBX 6 9 0 -2
BITMAP
06D700
94F400
C3F100
27D000
0AA000
0D6000
1F6000
188D86
3D04DA
ENDCHAR
STARTCHAR uni1E37
ENCODING 7735
SWIDTH 293 0
DWIDTH 3 0
BBX 3 10 0 -2
BITMAP
0010
0D60
1F30
4F10
7D00
AA00
C870
9D40
7100
D300
ENDCHAR
STARTCHAR uni1E42
ENCODING 7746
SWIDTH 787 0
DWIDTH 7 0
BBX 8 9 0 -2
BITMAP
02AF24F2
2B7F2AF1
47CF2EE0
03BF7CB0
077FBA90
0B4F7C70
385F1E50
00440000
00880000
ENDCHAR
STARTCHAR uni1E43
ENCODING 7747
SWIDTH 752 0
DWIDTH 7 0
BBX 8 7 -1 -2
BITMAP
07EDABD0
0AB7D4F1
0D6AA6D0
1F4D78A4
4F1F45E6
00160000
003D0000
ENDCHAR
STARTCHAR uni1E44
ENCODING 7748
SWIDTH 668 0
DWIDTH 6 0
BBX 7 10 0 0
BITMAP
00005200
0000B500
00000000
19E80850
A4FC0B20
D3EF0D00
378F5B00
0A4CB800
0C19F500
1C05F200
ENDCHAR
STARTCHAR uni1E45
ENCODING 7749
SWIDTH 505 0
DWIDTH 5 0
BBX 6 7 -1 0
BITMAP
000C50
000620
07EDA0
0AA7C0
0D69A0
1F4B75
4F18D4
ENDCHAR
STARTCHAR uni1E46
ENCODING 7750
SWIDTH 668 0
DWIDTH 6 0
BBX 7 9 0 -2
BITMAP
19E80850
A4FC0B20
D3EF0D00
378F5B00
0A4CB800
0C19F500
1C05F200
00610000
00C40000
ENDCHAR
STARTCHAR uni1E47
ENCODING 7751
SWIDTH 505 0
DWIDTH 5 0
BBX 6 7 -1 -2
BITMAP
07EDA0
0AA7C0
0D69A0
1F4B75
4F18D4
007000
01D200
ENDCHAR
STARTCHAR uni1E5A
ENCODING 7770
SWIDTH 601 0
DWIDTH 5 0
BBX 6 9 0 -2
BITMAP
1788A1
C2F3C2
64EB90
07B5D0
0A87C0
0D6A90
1F3A80
007100
01D200
ENDCHAR
STARTCHAR uni1E5B
ENCODING 7771
SWIDTH 376 0
DWIDTH 3 0
BBX 5 7 -1 -2
BITMAP
07EC50
0A9320
0D6000
1F4000
4F1000
260000
4C0000
ENDCHAR
STARTCHAR uni1E60
ENCODING 7776
SWIDTH 570 0
DWIDTH 5 0
BBX 5 10 0 0
BITMAP
000520
000C50
000000
02B890
08B1D0
05F410
00AE20
5D2E80
960C80
3BB910
ENDCHAR
STARTCHAR uni1E61
ENCODING 7777
SWIDTH 382 0
DWIDTH 3 0
BBX 5 7 -1 0
BITMAP
004C00
002600
008700
02DB00
068C00
298D30
1BD600
ENDCHAR
STARTCHAR uni1E62
ENCODING 7778
SWIDTH 570 0
DWIDTH 5 0
BBX 5 9 0 -2
BITMAP
02B890
08B1D0
05F410
00AE20
5D2E80
960C80
3BB910
052000
0B5000
ENDCHAR
STARTCHAR uni1E63
ENCODING 7779
SWIDTH 382 0
DWIDTH 3 0
BBX 5 8 -1 -2
BITMAP
004400
00EA00
04BB00
078C00
378E40
1BD400
061000
0D4000
ENDCHAR
STARTCHAR uni1E6C
ENCODING 7788
SWIDTH 481 0
DWIDTH 4 0
BBX 7 9 0 -2
BITMAP
2ADFEF40
B37C0000
C0A90000
10D60000
01F30000
04F00000
07C00000
05300000
0A600000
ENDCHAR
STARTCHAR uni1E6D
ENCODING 7789
SWIDTH 267 0
DWIDTH 2 0
BBX 4 9 -1 -2
BITMAP
0171
04F0
09D2
0A90
0D70
1F45
0DC2
2600
4C00
ENDCHAR
STARTCHAR Wgrave
ENCODING 7808
SWIDTH 962 0
DWIDTH 9 0
BBX 10 10 0 0
BITMAP
0000093000
0000065000
0000000000
06C909A072
94B90EB090
D0B94DB260
20B989B710
00AA79B700
00AE38E500
00AD08E000
ENDCHAR
STARTCHAR wgrave
ENCODING 7809
SWIDTH 661 0
DWIDTH 6 0
BBX 7 7 -1 0
BITMAP
00085000
00036000
07C4F4A0
0A97D080
0D7AA180
1F5D7830
0DBAE600
ENDCHAR
STARTCHAR Wacute
ENCODING 7810
SWIDTH 962 0
DWIDTH 9 0
BBX 10 10 0 0
BITMAP
0000008500
000000B000
0000000000
06C909A072
94B90EB090
D0B94DB260
20B989B710
00AA79B700
00AE38E500
00AD08E000
ENDCHAR
STARTCHAR wacute
ENCODING 7811
SWIDTH 661 0
DWIDTH 6 0
BBX 7 7 -1 0
BITMAP
00006700
00007000
07C4F4A0
0A97D080
0D7AA180
1F5D7830
0DBAE600
ENDCHAR
STARTCHAR Wdieresis
ENCODING 7812
SWIDTH 962 0
DWIDTH 9 0
BBX 10 9 0 0
BITMAP
00002B7600
0000011000
06C909A072
94B90EB090
D0B94DB260
20B989B710
00AA79B700
00AE38E500
00AD08E000
ENDCHAR
STARTCHAR wdieresis
ENCODING 7813
SWIDTH 661 0
DWIDTH 6 0
BBX 7 7 -1 0
BITMAP
000C4900
00010100
07C4F4A0
0A97D080
0D7AA180
1F5D7830
0DBAE600
ENDCHAR
STARTCHAR uni1E8E
ENCODING 7822
SWIDTH 620 0
DWIDTH 6 0
BBX 7 10 0 0
BITMAP
00006100
0000C400
00000000
06CA0710
948E0800
D05F7300
201FB000
000F7000
003F4000
006F1000
ENDCHAR
STARTCHAR uni1E8F
ENCODING 7823
SWIDTH 505 0
DWIDTH 5 0
BBX 6 9 -1 -2
BITMAP
000D30
000710
07C4F1
0A97D0
0D7AA0
1F5D74
0DCF71
049F10
06D800
ENDCHAR
STARTCHAR uni1E92
ENCODING 7826
SWIDTH 542 0
DWIDTH 5 0
BBX 5 12 0 -2
BITMAP
0002B0
000830
000000
1B8EB0
153F40
00BB00
03F400
0AC000
3F4440
AF9B40
053000
0A7000
ENDCHAR
STARTCHAR uni1E93
ENCODING 7827
SWIDTH 428 0
DWIDTH 4 0
BBX 4 7 0 -2
BITMAP
4AE9
35E2
0B80
3E43
BEB4
3400
7900
ENDCHAR
STARTCHAR uni1E97
ENCODING 7831
SWIDTH 267 0
DWIDTH 2 0
BBX 5 8 -1 0
BITMAP
067C10
017200
04F000
09D200
0A9000
0D7000
1F4500
0DC200
ENDCHAR
STARTCHAR uni1E9E
ENCODING 7838
SWIDTH 559 0
DWIDTH 5 0
BBX 7 10 -1 -3
BITMAP
004CBF20
00D6BA00
02F5F300
06E4E100
09B0D600
0C80E500
0E8CA000
2F100000
5D000000
21000000
ENDCHAR
STARTCHAR uni1EA0
ENCODING 7840
SWIDTH 668 0
DWIDTH 6 0
BBX 7 9 0 -2
BITMAP
00026E20
00197E00
4AD8BB00
C5B0D800
0A61F500
1F23F200
3E06E000
1A160000
003D0000
ENDCHAR
STARTCHAR uni1EA1
ENCODING 7841
SWIDTH 526 0
DWIDTH 5 0
BBX 6 7 -1 -2
BITMAP
02C9F3
0AA4F1
0E57D0
1F4BA4
0BC8E5
007000
01D200
ENDCHAR
STARTCHAR uni1EA2
ENCODING 7842
SWIDTH 668 0
DWIDTH 6 0
BBX 7 11 0 -1
BITMAP
00000750
00000830
00000000
00026E20
00197E00
4AD8BB00
C5C0D800
0A71F500
0F23F200
3E06E000
1C000000
ENDCHAR
STARTCHAR uni1EA3
ENCODING 7843
SWIDTH 526 0
DWIDTH 5 0
BBX 6 7 -1 0
BITMAP
0004A1
000470
02C9F3
0AA4F1
0E57D0
1F4BA4
0BC8E5
ENDCHAR
STARTCHAR uni1EA4
ENCODING 7844
SWIDTH 668 0
DWIDTH 6 0
BBX 8 11 0 -1
BITMAP
00000237
00002891
00000000
00026E20
00197E00
4AD8BB00
C5C0D800
0A71F500
0F23F200
3E06E000
1C000000
ENDCHAR
STARTCHAR uni1EA5
ENCODING 7845
SWIDTH 526 0
DWIDTH 5 0
BBX 7 9 -1 0
BITMAP
00000320
00000900
00058200
00122000
02C9F300
0AA4F100
0E57D000
1F4BA400
0BC8E500
ENDCHAR
STARTCHAR uni1EA6
ENCODING 7846
SWIDTH 668 0
DWIDTH 6 0
BBX 8 11 0 -1
BITMAP
00000363
00002551
00000000
00026E20
00197E00
4AD8BB00
C5C0D800
0A71F500
0F23F200
3E06E000
1C000000
ENDCHAR
STARTCHAR uni1EA7
ENCODING 7847
SWIDTH 526 0
DWIDTH 5 0
BBX 6 9 -1 0
BITMAP
000016
000008
000460
000000
02C9F3
0AA4F1
0E57D0
1F4BA4
0BC8E5
ENDCHAR
STARTCHAR uni1EA8
ENCODING 7848
SWIDTH 668 0
DWIDTH 6 0
BBX 8 11 0 -1
BITMAP
00000035
00000884
00002120
00026E20
00197E00
4AD8BB00
C5C0D800
0A71F500
0F23F200
3E06E000
1C000000
ENDCHAR
STARTCHAR uni1EA9
ENCODING 7849
SWIDTH 526 0
DWIDTH 5 0
BBX 6 8 -1 0
BITMAP
000016
000586
001320
02C9F3
0AA4F1
0E57D0
1F4BA4
0BC8E5
ENDCHAR
STARTCHAR uni1EAA
ENCODING 7850
SWIDTH 668 0
DWIDTH 6 0
BBX 8 11 0 -1
BITMAP
000008A1
00002860
00000000
00026E20
00197E00
4AD8BB00
C5C0D800
0A71F500
0F23F200
3E06E000
1C000000
ENDCHAR
STARTCHAR uni1EAB
ENCODING 7851
SWIDTH 526 0
DWIDTH 5 0
BBX 6 9 -1 0
BITMAP
000393
000000
000580
001220
02C9F3
0AA4F1
0E57D0
1F4BA4
0BC8E5
ENDCHAR
STARTCHAR uni1EAC
ENCODING 7852
SWIDTH 668 0
DWIDTH 6 0
BBX 7 12 0 -2
BITMAP
00000570
00004770
00000000
00026E20
00197E00
4AD8BB00
C5B0D800
0A61F500
1F23F200
3E06E000
1A160000
003D0000
ENDCHAR
STARTCHAR uni1EAD
ENCODING 7853
SWIDTH 526 0
DWIDTH 5 0
BBX 6 9 -1 -2
BITMAP
000590
002330
02C9F3
0AA4F1
0E57D0
1F4BA4
0BC8E5
007000
01D200
ENDCHAR
STARTCHAR uni1EAE
ENCODING 7854
SWIDTH 668 0
DWIDTH 6 0
BBX 8 11 0 -1
BITMAP
00000280
00004451
00003860
00026E20
00197E00
4AD8BB00
C5C0D800
0A71F500
0F23F200
3E06E000
1C000000
ENDCHAR
STARTCHAR uni1EAF
ENCODING 7855
SWIDTH 526 0
DWIDTH 5 0
BBX 6 9 -1 0
BITMAP
000050
000270
003972
000000
02C9F3
0AA4F1
0E57D0
1F4BA4
0BC8E5
ENDCHAR
STARTCHAR uni1EB0
ENCODING 7856
SWIDTH 668 0
DWIDTH 6 0
BBX 8 12 0 -1
BITMAP
00000100
00000900
00006471
00002850
00026E20
00197E00
4AD8BB00
C5C0D800
0A71F500
0F23F200
3E06E000
1C000000
ENDCHAR
STARTCHAR uni1EB1
ENCODING 7857
SWIDTH 526 0
DWIDTH 5 0
BBX 6 9 -1 0
BITMAP
000510
000530
003872
000000
02C9F3
0AA4F1
0E57D0
1F4BA4
0BC8E5
ENDCHAR
STARTCHAR uni1EB2
ENCODING 7858
SWIDTH 668 0
DWIDTH 6 0
BBX 8 11 0 -1
BITMAP
00000430
00004461
00003860
00026E20
00197E00
4AD8BB00
C5C0D800
0A71F500
0F23F200
3E06E000
1C000000
ENDCHAR
STARTCHAR uni1EB3
ENCODING 7859
SWIDTH 526 0
DWIDTH 5 0
BBX 6 9 -1 0
BITMAP
000340
000060
003992
000000
02C9F3
0AA4F1
0E57D0
1F4BA4
0BC8E5
ENDCHAR
STARTCHAR uni1EB4
ENCODING 7860
SWIDTH 668 0
DWIDTH 6 0
BBX 8 11 0 -1
BITMAP
00001980
00003131
00003860
00026E20
00197E00
4AD8BB00
C5C0D800
0A71F500
0F23F200
3E06E000
1C000000
ENDCHAR
STARTCHAR uni1EB5
ENCODING 7861
SWIDTH 526 0
DWIDTH 5 0
BBX 6 9 -1 0
BITMAP
000592
000000
002872
000000
02C9F3
0AA4F1
0E57D0
1F4BA4
0BC8E5
ENDCHAR
STARTCHAR uni1EB6
ENCODING 7862
SWIDTH 668 0
DWIDTH 6 0
BBX 8 12 0 -2
BITMAP
00007053
00005970
00000000
00026E20
00197E00
4AD8BB00
C5B0D800
0A61F500
1F23F200
3E06E000
1A160000
003D0000
ENDCHAR
STARTCHAR uni1EB7
ENCODING 7863
SWIDTH 526 0
DWIDTH 5 0
BBX 6 9 -1 -2
BITMAP
005983
000000
02C9F3
0AA4F1
0E57D0
1F4BA4
0BC8E5
007000
01D200
ENDCHAR
STARTCHAR uni1EB8
ENCODING 7864
SWIDTH 459 0
DWIDTH 4 0
BBX 5 9 0 -2
BITMAP
02BA30
0B6650
0A9000
2C8000
BC0000
DB0320
7EC500
170000
3D0000
ENDCHAR
STARTCHAR uni1EB9
ENCODING 7865
SWIDTH 384 0
DWIDTH 3 0
BBX 5 7 -1 -2
BITMAP
01BA20
0A9920
0E9400
1F4150
0BD700
043000
097000
ENDCHAR
STARTCHAR uni1EBA
ENCODING 7866
SWIDTH 459 0
DWIDTH 4 0
BBX 5 10 0 0
BITMAP
001840
000920
000000
02BA30
0B6650
0A9000
2C8000
BC0000
DB0320
7EC500
ENDCHAR
STARTCHAR uni1EBB
ENCODING 7867
SWIDTH 384 0
DWIDTH 3 0
BBX 5 7 -1 0
BITMAP
002940
000910
01BA20
0A9920
0E9400
1F4150
0BD700
ENDCHAR
STARTCHAR uni1EBC
ENCODING 7868
SWIDTH 459 0
DWIDTH 4 0
BBX 6 10 0 0
BITMAP
003721
008DC1
000000
02BA30
0B6650
0A9000
2C8000
BC0000
DB0320
7EC500
ENDCHAR
STARTCHAR uni1EBD
ENCODING 7869
SWIDTH 384 0
DWIDTH 3 0
BBX 5 7 -1 0
BITMAP
02DD70
000410
01BA20
0A9920
0E9400
1F4150
0BD700
ENDCHAR
STARTCHAR uni1EBE
ENCODING 7870
SWIDTH 459 0
DWIDTH 4 0
BBX 6 10 0 0
BITMAP
000454
004870
000000
02BA30
0B6650
0A9000
2C8000
BC0000
DB0320
7EC500
ENDCHAR
STARTCHAR uni1EBF
ENCODING 7871
SWIDTH 384 0
DWIDTH 3 0
BBX 6 9 -1 0
BITMAP
000006
000037
001A40
003120
01BA20
0A9920
0E9400
1F4150
0BD700
ENDCHAR
STARTCHAR uni1EC0
ENCODING 7872
SWIDTH 459 0
DWIDTH 4 0
BBX 5 11 0 0
BITMAP
000010
000580
004540
000000
02BA30
0B6650
0A9000
2C8000
BC0000
DB0320
7EC500
ENDCHAR
STARTCHAR uni1EC1
ENCODING 7873
SWIDTH 384 0
DWIDTH 3 0
BBX 6 9 -1 0
BITMAP
000052
000044
002530
000000
01BA20
0A9920
0E9400
1F4150
0BD700
ENDCHAR
STARTCHAR uni1EC2
ENCODING 7874
SWIDTH 459 0
DWIDTH 4 0
BBX 6 10 0 0
BITMAP
000034
001A53
003120
02BA30
0B6650
0A9000
2C8000
BC0000
DB0320
7EC500
ENDCHAR
STARTCHAR uni1EC3
ENCODING 7875
SWIDTH 384 0
DWIDTH 3 0
BBX 6 8 -1 0
BITMAP
000043
001A72
003120
01BA20
0A9920
0E9400
1F4150
0BD700
ENDCHAR
STARTCHAR uni1EC4
ENCODING 7876
SWIDTH 459 0
DWIDTH 4 0
BBX 5 10 0 0
BITMAP
001B70
004930
000000
02BA30
0B6650
0A9000
2C8000
BC0000
DB0320
7EC500
ENDCHAR
STARTCHAR uni1EC5
ENCODING 7877
SWIDTH 384 0
DWIDTH 3 0
BBX 6 9 -1 0
BITMAP
000781
000000
001A30
003120
01BA20
0A9920
0E9400
1F4150
0BD700
ENDCHAR
STARTCHAR uni1EC6
ENCODING 7878
SWIDTH 459 0
DWIDTH 4 0
BBX 5 12 0 -2
BITMAP
000B10
008640
000000
02BA30
0B6650
0A9000
2C8000
BC0000
DB0320
7EC500
170000
3D0000
ENDCHAR
STARTCHAR uni1EC7
ENCODING 7879
SWIDTH 384 0
DWIDTH 3 0
BBX 5 9 -1 -2
BITMAP
001A30
005130
01BA20
0A9920
0E9400
1F4150
0BD700
043000
097000
ENDCHAR
STARTCHAR uni1EC8
ENCODING 7880
SWIDTH 375 0
DWIDTH 3 0
BBX 5 10 0 0
BITMAP
004810
004700
000000
07D700
95F400
D3F100
26D000
09A000
0D7000
1F4000
ENDCHAR
STARTCHAR uni1EC9
ENCODING 7881
SWIDTH 267 0
DWIDTH 2 0
BBX 4 7 -1 0
BITMAP
0186
0092
07C0
0A90
0D70
1F45
0DC2
ENDCHAR
STARTCHAR uni1ECA
ENCODING 7882
SWIDTH 375 0
DWIDTH 3 0
BBX 4 9 0 -2
BITMAP
07D7
95F4
D3F1
26D0
09A0
0D70
1F40
2600
5C00
ENDCHAR
STARTCHAR uni1ECB
ENCODING 7883
SWIDTH 267 0
DWIDTH 2 0
BBX 4 9 -1 -2
BITMAP
01D1
0070
07C0
0A90
0D70
1F45
0DC2
2600
4C00
ENDCHAR
STARTCHAR uni1ECC
ENCODING 7884
SWIDTH 665 0
DWIDTH 6 0
BBX 6 9 0 -2
BITMAP
0578A3
77C65B
C7D05D
2C807C
0F60C7
0F54E1
08DB30
016000
03D000
ENDCHAR
STARTCHAR uni1ECD
ENCODING 7885
SWIDTH 433 0
DWIDTH 4 0
BBX 6 7 -1 -2
BITMAP
02BB30
0B97A6
1F4750
2F3B10
0CD600
043000
097000
ENDCHAR
STARTCHAR uni1ECE
ENCODING 7886
SWIDTH 665 0
DWIDTH 6 0
BBX 6 10 0 0
BITMAP
000382
000281
000000
0578A3
77C65B
C7D05D
2C807C
0F60C7
0F54E1
08DB30
ENDCHAR
STARTCHAR uni1ECF
ENCODING 7887
SWIDTH 433 0
DWIDTH 4 0
BBX 6 7 -1 0
BITMAP
000870
000830
02BB30
0B97A6
1F4750
2F3B10
0CD600
ENDCHAR
STARTCHAR uni1ED0
ENCODING 7888
SWIDTH 665 0
DWIDTH 6 0
BBX 7 10 0 0
BITMAP
00004710
00079400
00000000
0578A300
77C65B00
C7D05D00
2C807C00
0F60C700
0F54E100
08DB3000
ENDCHAR
STARTCHAR uni1ED1
ENCODING 7889
SWIDTH 433 0
DWIDTH 4 0
BBX 6 9 -1 0
BITMAP
000006
000037
001A40
003120
02BB30
0B97A6
1F4750
2F3B10
0CD600
ENDCHAR
STARTCHAR uni1ED2
ENCODING 7890
SWIDTH 665 0
DWIDTH 6 0
BBX 6 11 0 0
BITMAP
000001
000058
000662
000000
0578A3
77C65B
C7D05D
2C807C
0F60C7
0F54E1
08DB30
ENDCHAR
STARTCHAR uni1ED3
ENCODING 7891
SWIDTH 433 0
DWIDTH 4 0
BBX 6 8 -1 0
BITMAP
000073
000A43
004330
02BB30
0B97A6
1F4750
2F3B10
0CD600
ENDCHAR
STARTCHAR uni1ED4
ENCODING 7892
SWIDTH 665 0
DWIDTH 6 0
BBX 7 10 0 0
BITMAP
00000520
0003A420
00032000
0578A300
77C65B00
C7D05D00
2C807C00
0F60C700
0F54E100
08DB3000
ENDCHAR
STARTCHAR uni1ED5
ENCODING 7893
SWIDTH 433 0
DWIDTH 4 0
BBX 6 8 -1 0
BITMAP
000034
001A61
003120
02BB30
0B97A6
1F4750
2F3B10
0CD600
ENDCHAR
STARTCHAR uni1ED6
ENCODING 7894
SWIDTH 665 0
DWIDTH 6 0
BBX 6 10 0 0
BITMAP
0002C4
000690
000000
0578A3
77C65B
C7D05D
2C807C
0F60C7
0F54E1
08DB30
ENDCHAR
STARTCHAR uni1ED7
ENCODING 7895
SWIDTH 433 0
DWIDTH 4 0
BBX 6 9 -1 0
BITMAP
000681
000260
001A30
003120
02BB30
0B97A6
1F4750
2F3B10
0CD600
ENDCHAR
STARTCHAR uni1ED8
ENCODING 7896
SWIDTH 665 0
DWIDTH 6 0
BBX 6 12 0 -2
BITMAP
000390
002880
000000
0578A3
77C65B
C7D05D
2C807C
0F60C7
0F54E1
08DB30
016000
03D000
ENDCHAR
STARTCHAR uni1ED9
ENCODING 7897
SWIDTH 433 0
DWIDTH 4 0
BBX 6 9 -1 -2
BITMAP
001B20
005130
02BB30
0B97A6
1F4750
2F3B10
0CD600
043000
097000
ENDCHAR
STARTCHAR uni1EDA
ENCODING 7898
SWIDTH 665 0
DWIDTH 6 0
BBX 7 10 0 0
BITMAP
0000C200
00038230
00000660
0578BA10
77C65C00
C7D05D00
2C807C00
0F60C800
0F54E100
08DB3000
ENDCHAR
STARTCHAR uni1EDB
ENCODING 7899
SWIDTH 439 0
DWIDTH 4 0
BBX 6 7 -1 0
BITMAP
000760
000665
01BA90
0AA470
0F5660
1F4C20
0BE600
ENDCHAR
STARTCHAR uni1EDC
ENCODING 7900
SWIDTH 665 0
DWIDTH 6 0
BBX 7 10 0 0
BITMAP
00290000
000B0350
00000660
0578BA10
77C65C00
C7D05D00
2C807C00
0F60C800
0F54E100
08DB3000
ENDCHAR
STARTCHAR uni1EDD
ENCODING 7901
SWIDTH 439 0
DWIDTH 4 0
BBX 6 7 -1 0
BITMAP
004900
000955
01BA91
0AA470
0F5660
1F4C20
0BE600
ENDCHAR
STARTCHAR uni1EDE
ENCODING 7902
SWIDTH 665 0
DWIDTH 6 0
BBX 7 10 0 0
BITMAP
00038200
00028560
00000650
0578BB10
77C65C00
C7D05D00
2C807C00
0F60C800
0F54E100
08DB3000
ENDCHAR
STARTCHAR uni1EDF
ENCODING 7903
SWIDTH 439 0
DWIDTH 4 0
BBX 6 7 -1 0
BITMAP
000870
000875
01BA91
0AA470
0F5660
1F4C20
0BE600
ENDCHAR
STARTCHAR uni1EE0
ENCODING 7904
SWIDTH 665 0
DWIDTH 6 0
BBX 7 9 0 0
BITMAP
003CD430
00000660
0578BA10
77C65C00
C7D05D00
2C807C00
0F60C800
0F54E100
08DB3000
ENDCHAR
STARTCHAR uni1EE1
ENCODING 7905
SWIDTH 439 0
DWIDTH 4 0
BBX 6 7 -1 0
BITMAP
01CB43
001364
01BA90
0AA470
0F5660
1F4C20
0BE600
ENDCHAR
STARTCHAR uni1EE2
ENCODING 7906
SWIDTH 665 0
DWIDTH 6 0
BBX 7 11 0 -2
BITMAP
00000470
00000650
0578BB00
77C65C00
C7D05D00
2C807C00
0F60C800
0F54E100
08DB3000
01600000
03D00000
ENDCHAR
STARTCHAR uni1EE3
ENCODING 7907
SWIDTH 439 0
DWIDTH 4 0
BBX 6 9 -1 -2
BITMAP
000022
000064
01BA90
0AA470
0F5660
1F4C20
0BE600
043000
097000
ENDCHAR
STARTCHAR uni1EE4
ENCODING 7908
SWIDTH 716 0
DWIDTH 6 0
BBX 7 9 0 -2
BITMAP
17CA09A0
A2D60C70
C1F20F40
25D03F10
08A07C00
09A1D700
05EE9000
00620000
00B50000
ENDCHAR
STARTCHAR uni1EE5
ENCODING 7909
SWIDTH 505 0
DWIDTH 5 0
BBX 6 7 -1 -2
BITMAP
07C4F1
0A97D0
0D7AA0
1F5D75
0DC9D3
017000
02D100
ENDCHAR
STARTCHAR uni1EE6
ENCODING 7910
SWIDTH 716 0
DWIDTH 6 0
BBX 7 10 0 0
BITMAP
00005700
00006500
00000000
17CA09A0
A2D60C70
C1F20F40
25D03F10
08A07C00
09A1D700
05EE9000
ENDCHAR
STARTCHAR uni1EE7
ENCODING 7911
SWIDTH 505 0
DWIDTH 5 0
BBX 6 7 -1 0
BITMAP
001950
000920
07C4F1
0A97D0
0D7AA0
1F5D75
0DC9D3
ENDCHAR
STARTCHAR uni1EE8
ENCODING 7912
SWIDTH 716 0
DWIDTH 6 0
BBX 8 10 0 0
BITMAP
00000C10
0000560B
00000037
17CA09B0
A2D60C70
C1F20F40
25D03F10
08A07C00
09A1D600
05EE9000
ENDCHAR
STARTCHAR uni1EE9
ENCODING 7913
SWIDTH 505 0
DWIDTH 5 0
BBX 6 7 -1 0
BITMAP
000583
00051B
07C4F3
0A97D0
0D7AA0
1F5D75
0DC9D3
ENDCHAR
STARTCHAR uni1EEA
ENCODING 7914
SWIDTH 716 0
DWIDTH 6 0
BBX 8 10 0 0
BITMAP
00038001
0000B00C
00000036
17CA09A0
A2D60C70
C1F20F40
25D03F10
08A07C00
09A1D600
05EE9000
ENDCHAR
STARTCHAR uni1EEB
ENCODING 7915
SWIDTH 505 0
DWIDTH 5 0
BBX 6 7 -1 0
BITMAP
003A01
00090B
07C4F4
0A97D0
0D7AA0
1F5D85
0DC9D3
ENDCHAR
STARTCHAR uni1EEC
ENCODING 7916
SWIDTH 716 0
DWIDTH 6 0
BBX 8 10 0 0
BITMAP
00005701
0000650C
00000036
17CA09A0
A2D60C70
C1F20F40
25D03F10
08A07C00
09A1D600
05EE9000
ENDCHAR
STARTCHAR uni1EED
ENCODING 7917
SWIDTH 505 0
DWIDTH 5 0
BBX 6 7 -1 0
BITMAP
001850
00092B
07C4F5
0A97E0
0D7AA0
1F5D85
0DC9D3
ENDCHAR
STARTCHAR uni1EEE
ENCODING 7918
SWIDTH 716 0
DWIDTH 6 0
BBX 8 9 0 0
BITMAP
0003BE5C
00000037
17CA09B0
A2D60C70
C1F20F40
25D03F10
08A07C00
09A1D600
05EE9000
ENDCHAR
STARTCHAR uni1EEF
ENCODING 7919
SWIDTH 505 0
DWIDTH 5 0
BBX 6 7 -1 0
BITMAP
007D58
000219
07C4F1
0A97C0
0D7AA0
1F5D75
0DC9D3
ENDCHAR
STARTCHAR uni1EF0
ENCODING 7920
SWIDTH 716 0
DWIDTH 6 0
BBX 8 12 0 -2
BITMAP
00000005
0000000B
00000023
17CA0990
A2D60C60
C1F20F30
25D03F00
08A07B00
09A1D600
05EE9000
00620000
00B50000
ENDCHAR
STARTCHAR uni1EF1
ENCODING 7921
SWIDTH 505 0
DWIDTH 5 0
BBX 6 9 -1 -2
BITMAP
00000A
000018
07C4F1
0A97C0
0D7AA0
1F5D75
0DC9D3
017000
02D100
ENDCHAR
STARTCHAR Ygrave
ENCODING 7922
SWIDTH 620 0
DWIDTH 6 0
BBX 7 10 0 0
BITMAP
0001A000
0000B000
00000000
06CA0710
948E0800
D05F7300
201FB000
000F7000
003F4000
006F1000
ENDCHAR
STARTCHAR ygrave
ENCODING 7923
SWIDTH 505 0
DWIDTH 5 0
BBX 6 9 -1 -2
BITMAP
003A00
000900
07C4F1
0A97D0
0D7AA0
1F5D74
0DCF71
049F10
06D800
ENDCHAR
STARTCHAR uni1EF4
ENCODING 7924
SWIDTH 620 0
DWIDTH 6 0
BBX 7 9 0 -2
BITMAP
06CA0710
948E0800
D05F7300
201FB000
000F7000
003F4000
006F1000
00440000
00980000
ENDCHAR
STARTCHAR uni1EF5
ENCODING 7925
SWIDTH 505 0
DWIDTH 5 0
BBX 6 7 -1 -2
BITMAP
07C4F1
0A97D0
0D7AA0
1F5D74
0DCF71
049F30
06D8B3
ENDCHAR
STARTCHAR uni1EF6
ENCODING 7926
SWIDTH 620 0
DWIDTH 6 0
BBX 7 10 0 0
BITMAP
00005700
00006500
00000000
06CA0710
948E0800
D05F7300
201FB000
000F7000
003F4000
006F1000
ENDCHAR
STARTCHAR uni1EF7
ENCODING 7927
SWIDTH 505 0
DWIDTH 5 0
BBX 6 9 -1 -2
BITMAP
001F30
000000
07C4F1
0A97D0
0D7AA0
1F5D74
0DCF71
049F10
06D800
ENDCHAR
STARTCHAR uni1EF8
ENCODING 7928
SWIDTH 620 0
DWIDTH 6 0
BBX 7 9 0 0
BITMAP
0005DD20
00000000
06CA0710
948E0800
D05F7300
201FB000
000F7000
003F4000
006F1000
ENDCHAR
STARTCHAR uni1EF9
ENCODING 7929
SWIDTH 505 0
DWIDTH 5 0
BBX 6 9 -1 -2
BITMAP
009EA2
000210
07C4F1
0A97D0
0D7AA0
1F5D74
0DCF71
049F10
06D800
ENDCHAR
STARTCHAR uni2010
ENCODING 8208
SWIDTH 290 0
DWIDTH 3 0
BBX 3 1 0 2
BITMAP
9B10
ENDCHAR
STARTCHAR endash
ENCODING 8211
SWIDTH 352 0
DWIDTH 3 0
BBX 3 1 0 2
BITMAP
9C70
ENDCHAR
STARTCHAR emdash
ENCODING 8212
SWIDTH 444 0
DWIDTH 4 0
BBX 4 1 0 2
BITMAP
9CC5
ENDCHAR
STARTCHAR quoteleft
ENCODING 8216
SWIDTH 209 0
DWIDTH 2 0
BBX 2 3 0 5
BITMAP
01
09
1D
ENDCHAR
STARTCHAR quoteright
ENCODING 8217
SWIDTH 238 0
DWIDTH 2 0
BBX 2 3 0 4
BITMAP
1D
09
01
ENDCHAR
STARTCHAR quotesinglbase
ENCODING 8218
SWIDTH 220 0
DWIDTH 2 0
BBX 2 3 0 -2
BITMAP
D1
90
10
ENDCHAR
STARTCHAR quotedblleft
ENCODING 8220
SWIDTH 429 0
DWIDTH 4 0
BBX 4 3 0 5
BITMAP
0101
0927
1D5A
ENDCHAR
STARTCHAR quotedblright
ENCODING 8221
SWIDTH 426 0
DWIDTH 4 0
BBX 3 3 1 4
BITMAP
D4C0
9180
1100
ENDCHAR
STARTCHAR quotedblbase
ENCODING 8222
SWIDTH 440 0
DWIDTH 4 0
BBX 3 3 0 -2
BITMAP
D4B0
9180
1100
ENDCHAR
STARTCHAR dagger
ENCODING 8224
SWIDTH 495 0
DWIDTH 4 0
BBX 5 9 0 -2
BITMAP
006400
009000
4FFE10
149200
055000
082000
0A0000
0A0000
190000
ENDCHAR
STARTCHAR daggerdbl
ENCODING 8225
SWIDTH 495 0
DWIDTH 4 0
BBX 5 9 0 -2
BITMAP
006400
009000
4FFE10
148200
AFFA00
293100
0A0000
0A0000
190000
ENDCHAR
STARTCHAR bullet
ENCODING 8226
SWIDTH 434 0
DWIDTH 4 0
BBX 2 2 1 2
BITMAP
98
B9
ENDCHAR
STARTCHAR ellipsis
ENCODING 8230
SWIDTH 702 0
DWIDTH 6 0
BBX 6 2 0 0
BITMAP
333416
887A4D
ENDCHAR
STARTCHAR perthousand
ENCODING 8240
SWIDTH 1175 0
DWIDTH 11 0
BBX 11 7 0 0
BITMAP
09A219000000
578482000000
85B380000000
384839B08A40
002794C3A670
0091B1C57840
03708843A800
ENDCHAR
STARTCHAR minute
ENCODING 8242
SWIDTH 196 0
DWIDTH 2 0
BBX 3 3 0 4
BITMAP
0C10
2800
2200
ENDCHAR
STARTCHAR second
ENCODING 8243
SWIDTH 341 0
DWIDTH 3 0
BBX 4 3 0 4
BITMAP
0C95
28A0
2240
ENDCHAR
STARTCHAR guilsinglleft
ENCODING 8249
SWIDTH 359 0
DWIDTH 3 0
BBX 3 4 0 0
BITMAP
0370
8500
2830
0010
ENDCHAR
STARTCHAR guilsinglright
ENCODING 8250
SWIDTH 344 0
DWIDTH 3 0
BBX 3 4 0 0
BITMAP
2700
02A0
4720
1000
ENDCHAR
STARTCHAR fraction
ENCODING 8260
SWIDTH 248 0
DWIDTH 2 0
BBX 5 7 -1 0
BITMAP
000630
001900
007200
018000
082000
280000
910000
ENDCHAR
STARTCHAR uni2052
ENCODING 8274
SWIDTH 796 0
DWIDTH 7 0
BBX 5 7 1 0
BITMAP
880190
440820
002800
008100
027000
091240
3706A0
ENDCHAR
STARTCHAR uni2070
ENCODING 8304
SWIDTH 379 0
DWIDTH 3 0
BBX 4 4 0 3
BITMAP
09A2
5784
85B1
3840
ENDCHAR
STARTCHAR uni2074
ENCODING 8308
SWIDTH 352 0
DWIDTH 3 0
BBX 3 4 0 3
BITMAP
0AA0
18B0
49B0
0660
ENDCHAR
STARTCHAR uni2075
ENCODING 8309
SWIDTH 335 0
DWIDTH 3 0
BBX 3 5 0 3
BITMAP
0110
0A80
2960
64C0
3630
ENDCHAR
STARTCHAR uni2076
ENCODING 8310
SWIDTH 351 0
DWIDTH 3 0
BBX 3 4 0 3
BITMAP
0980
5A70
85A0
3830
ENDCHAR
STARTCHAR uni2077
ENCODING 8311
SWIDTH 329 0
DWIDTH 3 0
BBX 3 5 0 2
BITMAP
5DA0
0620
2900
7600
1200
ENDCHAR
STARTCHAR uni2078
ENCODING 8312
SWIDTH 354 0
DWIDTH 3 0
BBX 3 4 0 3
BITMAP
0A80
0C80
65D0
3750
ENDCHAR
STARTCHAR uni2079
ENCODING 8313
SWIDTH 345 0
DWIDTH 3 0
BBX 3 4 0 3
BITMAP
27A0
64C0
48A0
3610
ENDCHAR
STARTCHAR uni2080
ENCODING 8320
SWIDTH 379 0
DWIDTH 3 0
BBX 4 4 0 0
BITMAP
09A2
5884
85A2
5970
ENDCHAR
STARTCHAR uni2081
ENCODING 8321
SWIDTH 229 0
DWIDTH 2 0
BBX 2 4 0 0
BITMAP
4C
2A
57
84
ENDCHAR
STARTCHAR uni2082
ENCODING 8322
SWIDTH 328 0
DWIDTH 3 0
BBX 3 4 0 0
BITMAP
17A0
1590
1800
7B60
ENDCHAR
STARTCHAR uni2083
ENCODING 8323
SWIDTH 336 0
DWIDTH 3 0
BBX 3 4 0 0
BITMAP
1890
0680
44B0
5770
ENDCHAR
STARTCHAR uni2084
ENCODING 8324
SWIDTH 352 0
DWIDTH 3 0
BBX 3 4 0 0
BITMAP
0AA0
18B0
49B0
0660
ENDCHAR
STARTCHAR uni2085
ENCODING 8325
SWIDTH 335 0
DWIDTH 3 0
BBX 3 5 0 0
BITMAP
0110
0A80
2960
43C0
5760
ENDCHAR
STARTCHAR uni2086
ENCODING 8326
SWIDTH 351 0
DWIDTH 3 0
BBX 3 4 0 0
BITMAP
0980
5B70
86A0
5960
ENDCHAR
STARTCHAR uni2087
ENCODING 8327
SWIDTH 329 0
DWIDTH 3 0
BBX 3 4 0 0
BITMAP
6DA0
0620
3800
6600
ENDCHAR
STARTCHAR uni2088
ENCODING 8328
SWIDTH 354 0
DWIDTH 3 0
BBX 3 4 0 0
BITMAP
0A80
0C80
57C0
5880
ENDCHAR
STARTCHAR uni2089
ENCODING 8329
SWIDTH 345 0
DWIDTH 3 0
BBX 3 4 0 0
BITMAP
1790
64C0
38B0
6730
ENDCHAR
STARTCHAR colonmonetary
ENCODING 8353
SWIDTH 384 0
DWIDTH 3 0
BBX 4 8 0 -1
BITMAP
0176
09B7
7918
C300
C410
6EB0
5710
1100
ENDCHAR
STARTCHAR franc
ENCODING 8355
SWIDTH 529 0
DWIDTH 5 0
BBX 6 7 0 0
BITMAP
00EDC1
01F400
03F100
06FC20
0AA000
6EB500
1F3000
ENDCHAR
STARTCHAR lira
ENCODING 8356
SWIDTH 455 0
DWIDTH 4 0
BBX 5 7 0 0
BITMAP
01BA70
07C220
4DB600
6EA400
2F2000
5C1330
BFFE30
ENDCHAR
STARTCHAR uni20A6
ENCODING 8358
SWIDTH 723 0
DWIDTH 7 0
BBX 7 7 0 0
BITMAP
00C80760
00FB0A30
03EE0D00
4ACF9D70
6C9ECB50
0C0AF500
1B06F100
ENDCHAR
STARTCHAR uni20A9
ENCODING 8361
SWIDTH 841 0
DWIDTH 8 0
BBX 9 7 0 0
BITMAP
0C80AA0810
0C80EA0900
0B84DA3600
5DCBCDB820
6DCBCDB700
0AD28D4000
09C07E0000
ENDCHAR
STARTCHAR Euro
ENCODING 8364
SWIDTH 507 0
DWIDTH 5 0
BBX 6 7 0 0
BITMAP
007CD3
07D193
4EB720
6FA710
1F5000
0DA230
05EC20
ENDCHAR
STARTCHAR uni20AE
ENCODING 8366
SWIDTH 481 0
DWIDTH 4 0
BBX 7 7 0 0
BITMAP
2ADFFF40
B37C0000
C0A91000
35EB6000
47F96000
46F00000
07C00000
ENDCHAR
STARTCHAR uni20B3
ENCODING 8371
SWIDTH 573 0
DWIDTH 5 0
BBX 6 7 0 0
BITMAP
178890
B3F3B4
85E2D1
2BD830
0A9000
4DB600
1F4000
ENDCHAR
STARTCHAR uni20B4
ENCODING 8372
SWIDTH 570 0
DWIDTH 5 0
BBX 5 7 0 0
BITMAP
077B80
080A80
37D960
5CB740
5D0B40
9B0980
3DBA10
ENDCHAR
STARTCHAR uni20B8
ENCODING 8376
SWIDTH 522 0
DWIDTH 5 0
BBX 7 7 0 0
BITMAP
17777760
18CEEE70
A84E0100
D17C0000
10B80000
00E50000
02F20000
ENDCHAR
STARTCHAR uni20B9
ENCODING 8377
SWIDTH 544 0
DWIDTH 5 0
BBX 6 8 0 -1
BITMAP
17A971
278F70
005C00
39E300
00C800
00E600
01F400
002100
ENDCHAR
STARTCHAR uni20BA
ENCODING 8378
SWIDTH 455 0
DWIDTH 4 0
BBX 5 7 0 0
BITMAP
01F300
05F500
3BD500
4CC510
3E62A0
2F2770
5FA600
ENDCHAR
STARTCHAR uni20BD
ENCODING 8381
SWIDTH 573 0
DWIDTH 5 0
BBX 6 7 0 0
BITMAP
178890
B3F3B4
85E2D1
4BD830
0A9000
6DB300
1F4000
ENDCHAR
STARTCHAR uni2116
ENCODING 8470
SWIDTH 996 0
DWIDTH 9 0
BBX 9 7 0 0
BITMAP
19E8076750
A3EC0A6870
D3CF1D7670
377E5B3920
093BB8AC60
0C08F50000
1C05F20000
ENDCHAR
STARTCHAR uni2120
ENCODING 8480
SWIDTH 585 0
DWIDTH 5 0
BBX 4 3 1 3
BITMAP
3245
86A9
7433
ENDCHAR
STARTCHAR trademark
ENCODING 8482
SWIDTH 379 0
DWIDTH 3 0
BBX 5 2 -1 4
BITMAP
164530
064B20
ENDCHAR
STARTCHAR uni2126
ENCODING 8486
SWIDTH 745 0
DWIDTH 7 0
BBX 7 7 0 0
BITMAP
004BC700
05A10C20
0C000840
2A000920
1A001A00
09208100
7B67B900
ENDCHAR
STARTCHAR uni212A
ENCODING 8490
SWIDTH 601 0
DWIDTH 5 0
BBX 6 7 0 0
BITMAP
16D776
C2F850
64EB60
07B5D0
0A87C0
0D6A90
1F3A80
ENDCHAR
STARTCHAR uni212B
ENCODING 8491
SWIDTH 668 0
DWIDTH 6 0
BBX 7 10 0 -2
BITMAP
00000530
00001A40
00039F10
00297D00
59D8BA00
A5B0D600
0B51F300
2F15E000
3D023000
02000000
ENDCHAR
STARTCHAR estimated
ENCODING 8494
SWIDTH 786 0
DWIDTH 7 0
BBX 7 7 0 0
BITMAP
02898200
1D301D10
8F200F80
AF877B80
8F200000
1D200400
01888200
ENDCHAR
STARTCHAR uni2153
ENCODING 8531
SWIDTH 733 0
DWIDTH 7 0
BBX 7 8 0 0
BITMAP
03000000
4C008200
39028000
66091000
41375850
00912930
03607850
09008920
ENDCHAR
STARTCHAR uni2154
ENCODING 8532
SWIDTH 852 0
DWIDTH 8 0
BBX 8 7 0 0
BITMAP
17A00730
05801900
16008200
6C828486
00081193
00270776
00910893
ENDCHAR
STARTCHAR oneeighth
ENCODING 8539
SWIDTH 741 0
DWIDTH 7 0
BBX 7 8 0 0
BITMAP
03000000
4C008200
39028000
66091000
41375860
00915C30
03609A50
0900A930
ENDCHAR
STARTCHAR threeeighths
ENCODING 8540
SWIDTH 828 0
DWIDTH 7 0
BBX 8 7 0 0
BITMAP
19A00900
05705500
64C09000
37464883
000908A1
007319C2
01902991
ENDCHAR
STARTCHAR fiveeighths
ENCODING 8541
SWIDTH 827 0
DWIDTH 7 0
BBX 8 8 0 0
BITMAP
01100000
0A800900
29605500
64C09000
36364883
000909A1
007328C2
01902991
ENDCHAR
STARTCHAR seveneighths
ENCODING 8542
SWIDTH 761 0
DWIDTH 7 0
BBX 7 7 0 0
BITMAP
5DA05400
06209000
29063000
76193970
12723C50
01809870
08209840
ENDCHAR
STARTCHAR partialdiff
ENCODING 8706
SWIDTH 597 0
DWIDTH 5 0
BBX 6 7 0 0
BITMAP
007B90
002094
000065
06BBB2
5700A0
930830
3BA400
ENDCHAR
STARTCHAR uni2206
ENCODING 8710
SWIDTH 619 0
DWIDTH 6 0
BBX 6 8 0 0
BITMAP
000110
000BA0
0049C0
00B1E0
0660D1
1B00B4
850096
BBBBC6
ENDCHAR
STARTCHAR product
ENCODING 8719
SWIDTH 661 0
DWIDTH 6 0
BBX 6 7 0 0
BITMAP
6CBBC8
0A0470
0B0730
290A00
550B00
922900
904500
ENDCHAR
STARTCHAR summation
ENCODING 8721
SWIDTH 605 0
DWIDTH 5 0
BBX 6 7 0 0
BITMAP
07BBB5
04A000
00A300
005900
02B100
2B1000
9CBB40
ENDCHAR
STARTCHAR minus
ENCODING 8722
SWIDTH 471 0
DWIDTH 4 0
BBX 4 1 0 3
BITMAP
6BB6
ENDCHAR
STARTCHAR uni2215
ENCODING 8725
SWIDTH 488 0
DWIDTH 4 0
BBX 5 7 0 0
BITMAP
000720
001800
008100
027000
091000
370000
900000
ENDCHAR
STARTCHAR uni2219
ENCODING 8729
SWIDTH 434 0
DWIDTH 4 0
BBX 2 2 1 2
BITMAP
76
B9
ENDCHAR
STARTCHAR radical
ENCODING 8730
SWIDTH 660 0
DWIDTH 6 0
BBX 6 7 0 0
BITMAP
0005B7
000A10
002900
007300
86A000
2C7000
0C1000
ENDCHAR
STARTCHAR infinity
ENCODING 8734
SWIDTH 833 0
DWIDTH 8 0
BBX 7 3 0 1
BITMAP
19B27B40
833E3470
5B73A910
ENDCHAR
STARTCHAR integral
ENCODING 8747
SWIDTH 305 0
DWIDTH 3 0
BBX 5 9 -1 -2
BITMAP
001930
007400
00A100
00B000
029000
056000
093000
0B0000
750000
ENDCHAR
STARTCHAR approxequal
ENCODING 8776
SWIDTH 441 0
DWIDTH 4 0
BBX 4 3 0 1
BITMAP
3ABA
0000
7BB6
ENDCHAR
STARTCHAR notequal
ENCODING 8800
SWIDTH 500 0
DWIDTH 5 0
BBX 5 5 0 0
BITMAP
007000
3EEE20
036100
8EEA00
161100
ENDCHAR
STARTCHAR lessequal
ENCODING 8804
SWIDTH 405 0
DWIDTH 4 0
BBX 4 5 0 1
BITMAP
0024
1892
3B50
0061
ABB2
ENDCHAR
STARTCHAR greaterequal
ENCODING 8805
SWIDTH 405 0
DWIDTH 4 0
BBX 4 5 0 1
BITMAP
0600
05B4
18A3
4300
9BB3
ENDCHAR
STARTCHAR lozenge
ENCODING 9674
SWIDTH 619 0
DWIDTH 6 0
BBX 6 7 0 0
BITMAP
005E10
02A570
1B11C0
7500B1
480670
0C3900
08B100
ENDCHAR
STARTCHAR uni27E8
ENCODING 10216
SWIDTH 456 0
DWIDTH 4 0
BBX 4 10 0 -2
BITMAP
0005
0035
0180
0810
5300
3600
0710
0080
0045
0001
ENDCHAR
STARTCHAR uni27E9
ENCODING 10217
SWIDTH 456 0
DWIDTH 4 0
BBX 4 10 0 -1
BITMAP
1000
4500
0710
0180
0044
0027
0080
0720
4400
5000
ENDCHAR
STARTCHAR ff
ENCODING 64256
SWIDTH 508 0
DWIDTH 5 0
BBX 8 9 -2 -2
BITMAP
000ADAE6
003F2F42
007D9F60
00A97C00
00D6A900
01F3E600
06F5F300
78C5E000
9EAE7000
ENDCHAR
STARTCHAR fi
ENCODING 64257
SWIDTH 534 0
DWIDTH 5 0
BBX 8 9 -2 -2
BITMAP
0008BB30
002F1620
007D5F30
00AA4F10
00D67C00
01F39A41
06F17E60
7AC00000
9E500000
ENDCHAR
STARTCHAR fl
ENCODING 64258
SWIDTH 548 0
DWIDTH 5 0
BBX 8 9 -2 -2
BITMAP
000ABA60
003F1A90
007D4D60
00A91F30
00D65E00
01F37C32
06F05E80
7AC00000
9E400000
ENDCHAR
STARTCHAR ffi
ENCODING 64259
SWIDTH 764 0
DWIDTH 7 0
BBX 10 9 -2 -2
BITMAP
000ACABA40
003F3F2620
007DAE6F40
00AA9A3F10
00D7C76E00
01F4E48B41
06F6F16E70
8AC6D00000
9EAD500000
ENDCHAR
STARTCHAR ffl
ENCODING 64260
SWIDTH 780 0
DWIDTH 7 0
BBX 10 9 -2 -2
BITMAP
000ABBBA60
003F3F29A0
007DAE5C70
00AA9B1F40
00D7C73F10
01F4E46D23
06F6F14E90
8AC6D00000
9EAD500000
ENDCHAR
STARTCHAR .notdef
ENCODING -1
SWIDTH 810 0
DWIDTH 7 0
BBX 8 12 0 -3
BITMAP
00555562
00500051
01400050
04156050
0526B050
05063330
05040500
23150500
51000500
50001500
50004200
75557000
ENDCHAR
STARTCHAR A.salt
ENCODING -1
SWIDTH 590 0
DWIDTH 5 0
BBX 6 8 0 -1
BITMAP
0006E6
0065F4
0293F1
0B9BD0
3D0AA0
980D70
D41F30
B30000
ENDCHAR
STARTCHAR B.salt
ENCODING -1
SWIDTH 633 0
DWIDTH 6 0
BBX 6 7 0 0
BITMAP
1888A1
B3F3C2
74EAB0
07B1F4
0A81F4
0D67D1
1FCE40
ENDCHAR
STARTCHAR E.salt
ENCODING -1
SWIDTH 554 0
DWIDTH 5 0
BBX 6 7 0 0
BITMAP
19EFF4
A3F420
D4F100
37EB20
0A9000
0D6000
1FFF30
ENDCHAR
STARTCHAR N.salt
ENCODING -1
SWIDTH 669 0
DWIDTH 6 0
BBX 7 7 0 0
BITMAP
06DCE700
96F58C00
C5F19900
28D0D600
0BA1F200
0E74E230
2F42EA00
ENDCHAR
STARTCHAR i.loclTRK
ENCODING -1
SWIDTH 267 0
DWIDTH 2 0
BBX 4 7 -1 0
BITMAP
01D1
0070
07C0
0A90
0D70
1F45
0DC2
ENDCHAR
STARTCHAR a.end
ENCODING -1
SWIDTH 467 0
DWIDTH 4 0
BBX 6 5 -1 0
BITMAP
02C9F3
0AA4F1
0E57D0
1F4BA0
0BD8D1
ENDCHAR
STARTCHAR aacute.end
ENCODING -1
SWIDTH 461 0
DWIDTH 4 0
BBX 6 7 -1 0
BITMAP
0003A0
000510
02CAF3
0A95F0
1F48C0
2F3C90
0CC8C0
ENDCHAR
STARTCHAR c.end
ENCODING -1
SWIDTH 341 0
DWIDTH 3 0
BBX 5 5 -1 0
BITMAP
02BB20
0B9410
1F4000
2F3100
0CE500
ENDCHAR
STARTCHAR d.end
ENCODING -1
SWIDTH 476 0
DWIDTH 4 0
BBX 6 7 -1 0
BITMAP
000088
0000D6
02C9F3
0AA4F1
0E57D0
1F4BA0
0BD9D1
ENDCHAR
STARTCHAR e.end
ENCODING -1
SWIDTH 366 0
DWIDTH 3 0
BBX 5 5 -1 0
BITMAP
02BA20
0A9920
0F9400
1F4200
0BE500
ENDCHAR
STARTCHAR eacute.end
ENCODING -1
SWIDTH 367 0
DWIDTH 3 0
BBX 5 7 -1 0
BITMAP
000940
000600
01BA20
0A9920
0E9400
1F4200
0BE500
ENDCHAR
STARTCHAR uni0292.end
ENCODING -1
SWIDTH 391 0
DWIDTH 4 0
BBX 4 7 0 -2
BITMAP
99F3
3A90
4E10
1D70
1BB0
8BA0
BE30
ENDCHAR
STARTCHAR g.end
ENCODING -1
SWIDTH 480 0
DWIDTH 4 0
BBX 6 7 -1 -2
BITMAP
02C9F3
0AA4F0
0E57C0
1F4B90
0BDF60
037F30
04DA00
ENDCHAR
STARTCHAR uni01E5.end
ENCODING -1
SWIDTH 507 0
DWIDTH 5 0
BBX 6 7 -1 -2
BITMAP
02C9F3
0AA4F0
0E57C0
1F4B90
0BFF60
08BF60
04E900
ENDCHAR
STARTCHAR h.end
ENCODING -1
SWIDTH 453 0
DWIDTH 4 0
BBX 5 7 -1 0
BITMAP
01C300
04F000
07EDA0
0AA7C0
0D69A0
1F3C70
4F19B0
ENDCHAR
STARTCHAR i.end
ENCODING -1
SWIDTH 209 0
DWIDTH 2 0
BBX 4 7 -1 0
BITMAP
01D1
0070
07C0
0A90
0D70
1F40
0D90
ENDCHAR
STARTCHAR iacute.end
ENCODING -1
SWIDTH 209 0
DWIDTH 2 0
BBX 4 7 -1 0
BITMAP
0076
0060
07C0
0A90
0D70
1F40
0D90
ENDCHAR
STARTCHAR ij.end
ENCODING -1
SWIDTH 480 0
DWIDTH 4 0
BBX 6 10 -1 -2
BITMAP
006053
01D1A6
000000
07C1F3
0A94F0
0D77C0
1F4A90
0DBE60
048F30
04EA00
ENDCHAR
STARTCHAR j.end
ENCODING -1
SWIDTH 213 0
DWIDTH 2 0
BBX 5 10 -2 -2
BITMAP
000600
002D10
000000
007C00
00A900
00D600
01F300
07F000
79C000
9E4000
ENDCHAR
STARTCHAR k.end
ENCODING -1
SWIDTH 472 0
DWIDTH 4 0
BBX 6 7 -1 0
BITMAP
01D300
04F000
07C480
0ADD30
0D9BA0
1F4B90
4F18D1
ENDCHAR
STARTCHAR l.end
ENCODING -1
SWIDTH 207 0
DWIDTH 2 0
BBX 4 7 -1 0
BITMAP
01C3
05F0
07C0
0A90
0D60
1F40
0D90
ENDCHAR
STARTCHAR m.end
ENCODING -1
SWIDTH 701 0
DWIDTH 6 0
BBX 8 5 -1 0
BITMAP
07EDABD0
0AB7D4F1
0D6AA6D0
1F4D78A0
4F1F46D1
ENDCHAR
STARTCHAR n.end
ENCODING -1
SWIDTH 454 0
DWIDTH 4 0
BBX 5 5 -1 0
BITMAP
07EDA0
0AA7C0
0D69A0
1F4B70
4F19B0
ENDCHAR
STARTCHAR o.end
ENCODING -1
SWIDTH 487 0
DWIDTH 4 0
BBX 6 5 -1 0
BITMAP
02BB31
0AA6B1
0F5650
1F4B20
0BE600
ENDCHAR
STARTCHAR oacute.end
ENCODING -1
SWIDTH 487 0
DWIDTH 4 0
BBX 6 7 -1 0
BITMAP
000760
000600
01BB31
0AA6B1
0E5650
1F4A20
0BE700
ENDCHAR
STARTCHAR s.end
ENCODING -1
SWIDTH 316 0
DWIDTH 3 0
BBX 4 6 -1 0
BITMAP
0034
00EA
04BB
078C
378C
1BD4
ENDCHAR
STARTCHAR t.end
ENCODING -1
SWIDTH 276 0
DWIDTH 2 0
BBX 3 7 0 0
BITMAP
1610
4F10
8D30
AA00
D700
F400
C800
ENDCHAR
STARTCHAR u.end
ENCODING -1
SWIDTH 459 0
DWIDTH 4 0
BBX 6 5 -1 0
BITMAP
07C4F1
0A97D0
0D7AA0
1F5D70
0DC9C0
ENDCHAR
STARTCHAR uacute.end
ENCODING -1
SWIDTH 459 0
DWIDTH 4 0
BBX 6 7 -1 0
BITMAP
000760
000600
07C4F1
0A97D0
0D7AA0
1F5D70
0DC9C0
ENDCHAR
STARTCHAR x.end
ENCODING -1
SWIDTH 500 0
DWIDTH 5 0
BBX 5 6 0 0
BITMAP
000750
1AC360
52F910
60F600
17D700
547D10
ENDCHAR
STARTCHAR y.end
ENCODING -1
SWIDTH 460 0
DWIDTH 4 0
BBX 6 7 -1 -2
BITMAP
07C4F1
0A97D0
0D7AA0
1F5D60
0DDF30
058F10
07E700
ENDCHAR
STARTCHAR k.salt
ENCODING -1
SWIDTH 518 0
DWIDTH 5 0
BBX 6 7 -1 0
BITMAP
01C300
04F000
07C5D0
0AEB40
0D9BA0
1F4B95
4F18E5
ENDCHAR
STARTCHAR p.salt
ENCODING -1
SWIDTH 482 0
DWIDTH 4 0
BBX 6 9 -1 -3
BITMAP
037000
08ED90
0AB4D0
0D64E6
1F8C80
4F8B10
7D0000
AA0000
410000
ENDCHAR
STARTCHAR E_x
ENCODING -1
SWIDTH 797 0
DWIDTH 7 0
BBX 8 7 0 0
BITMAP
02BA3000
0A655000
0B7221D0
1AB0C770
9D009D20
DB01BD14
8EB83EB1
ENDCHAR
STARTCHAR F_i
ENCODING -1
SWIDTH 726 0
DWIDTH 7 0
BBX 7 7 0 0
BITMAP
3AEFFF50
C1D53400
71FB7E00
05D08B00
08B0B800
0B80E660
0E50BD30
ENDCHAR
STARTCHAR T_h
ENCODING -1
SWIDTH 971 0
DWIDTH 9 0
BBX 9 7 0 0
BITMAP
2ADECC6000
B37D0E3000
C0AA2FCC00
00D75D4F00
01F38A6D00
04F0B79A50
07C0E56E60
ENDCHAR
STARTCHAR T_i
ENCODING -1
SWIDTH 744 0
DWIDTH 7 0
BBX 7 7 0 0
BITMAP
2ACFFF80
C27D3620
B0AA3F20
00D66E00
01F39B00
04F0B850
07C08D50
ENDCHAR
STARTCHAR a_x
ENCODING -1
SWIDTH 899 0
DWIDTH 8 0
BBX 10 6 -1 0
BITMAP
0000000150
02B8F3E5B0
0A94F1C870
0E57D0AD10
1F4BA1CC23
0BD7EA3EA0
ENDCHAR
STARTCHAR a_z
ENCODING -1
SWIDTH 906 0
DWIDTH 8 0
BBX 9 5 -1 0
BITMAP
02C9F4BCD0
0AA4F14D60
0E57D06D00
1F4BA0D550
0BD8D7FB70
ENDCHAR
STARTCHAR b_s
ENCODING -1
SWIDTH 799 0
DWIDTH 7 0
BBX 8 7 0 0
BITMAP
1C300000
4F000210
7ED54F60
AA5B4D70
D7580C80
F4A69BA2
BE81BD50
ENDCHAR
STARTCHAR b_s_x
ENCODING -1
SWIDTH 1144 0
DWIDTH 10 0
BBX 11 7 0 0
BITMAP
051000000000
3F1000000000
6FE52D6C7A10
9A6B6D79A810
C7590C87E500
F4A69BAAE130
CE81BD62DC20
ENDCHAR
STARTCHAR b_s_z
ENCODING -1
SWIDTH 1158 0
DWIDTH 10 0
BBX 11 7 0 0
BITMAP
1C3000000000
4F0002100000
7EC54F69AF30
A95B4D769A00
D6580C82F200
F4A69B8A9200
BE81BD6FCB00
ENDCHAR
STARTCHAR c_x
ENCODING -1
SWIDTH 755 0
DWIDTH 7 0
BBX 8 6 -1 0
BITMAP
00000023
02BB5F39
0B942F74
1F400E90
2F405D84
0BEA46E6
ENDCHAR
STARTCHAR c_z
ENCODING -1
SWIDTH 769 0
DWIDTH 7 0
BBX 8 5 -1 0
BITMAP
02BB3ADA
0B9437F2
1F400A90
2F313E34
0CE5AEB4
ENDCHAR
STARTCHAR e_x
ENCODING -1
SWIDTH 762 0
DWIDTH 7 0
BBX 9 6 -1 0
BITMAP
0000002300
01BA5F3900
0A993F8400
0E940D8000
1F505D9510
0AEA45E600
ENDCHAR
STARTCHAR e_z
ENCODING -1
SWIDTH 788 0
DWIDTH 7 0
BBX 8 5 -1 0
BITMAP
02CB3BDC
0B8A23E5
1F9307C0
2F321E56
0CE58FB6
ENDCHAR
STARTCHAR eacute_x
ENCODING -1
SWIDTH 760 0
DWIDTH 7 0
BBX 9 7 -1 0
BITMAP
0007600000
0005002300
02BB5F3900
0A992F8400
0F940D8000
1F406D9510
0AEA45E600
ENDCHAR
STARTCHAR f_f_t
ENCODING -1
SWIDTH 780 0
DWIDTH 7 0
BBX 10 9 -2 -2
BITMAP
000ABBBA60
003F3F2AA0
007DAE6E90
00AA9B1F30
00D7C74F10
01F4E46D23
06F6F14E90
8AC6D00000
9EAD500000
ENDCHAR
STARTCHAR f_i_x
ENCODING -1
SWIDTH 898 0
DWIDTH 8 0
BBX 11 9 -2 -2
BITMAP
0008BB300000
002F15101500
007D5F3F5A00
00AA4F1C8700
00D67C0AC000
01F39A2BC230
06F17E83EA00
7AC000000000
9E5000000000
ENDCHAR
STARTCHAR f_i_z
ENCODING -1
SWIDTH 904 0
DWIDTH 8 0
BBX 10 9 -2 -2
BITMAP
0008BB3000
002F162000
007D5F4BCD
00AA4F14D5
00D67C07C0
01F39A1E55
06F17D8FB7
7AC0000000
9E50000000
ENDCHAR
STARTCHAR f_l_x
ENCODING -1
SWIDTH 912 0
DWIDTH 8 0
BBX 11 9 -2 -2
BITMAP
000ABA600000
003F1A900600
007D5E6D6A00
00A92F3A9800
00D65E08E100
01F37C1AE140
06F05E92EB10
7AC000000000
9E4000000000
ENDCHAR
STARTCHAR f_l_z
ENCODING -1
SWIDTH 938 0
DWIDTH 8 0
BBX 11 9 -2 -2
BITMAP
000ABA600000
003F1A900000
007D4D69AF30
00A91F359A00
00D65E02F200
01F37C0A9500
06F05E5FCB00
7AC000000000
9E4000000000
ENDCHAR
STARTCHAR f_t
ENCODING -1
SWIDTH 548 0
DWIDTH 5 0
BBX 8 9 -2 -2
BITMAP
000ABA60
003F1B80
007D6F80
00A92F20
00D65E00
01F38C32
06F05E80
7AC00000
9E400000
ENDCHAR
STARTCHAR f_u
ENCODING -1
SWIDTH 772 0
DWIDTH 7 0
BBX 10 9 -2 -2
BITMAP
000AD40000
003F120000
007D7F3D70
00A94F1F40
00D67C4F10
01F39A8D32
06F07E8E80
7AB0000000
9E40000000
ENDCHAR
STARTCHAR f_x
ENCODING -1
SWIDTH 663 0
DWIDTH 6 0
BBX 9 9 -2 -2
BITMAP
000AD40000
003F111500
007D7F4A00
00A90E8600
00D60DA000
01F37AB320
06F1D4E800
6AB0000000
9E40000000
ENDCHAR
STARTCHAR g_p
ENCODING -1
SWIDTH 975 0
DWIDTH 9 0
BBX 10 8 -1 -2
BITMAP
0000006400
02C9F3EAD4
0AA4F2F3B8
0E57C5F0C6
1F4BA7C2F3
0BDEBDED80
028F4E6000
04DB2D2000
ENDCHAR
STARTCHAR g_x
ENCODING -1
SWIDTH 892 0
DWIDTH 8 0
BBX 10 8 -1 -2
BITMAP
0000000140
02B8F4F4A0
0A94F1D770
0E57D0BC00
1F4BA2CB23
0BDE953E90
027F300000
04DA000000
ENDCHAR
STARTCHAR g_z
ENCODING -1
SWIDTH 907 0
DWIDTH 8 0
BBX 9 7 -1 -2
BITMAP
01C9F4BCD0
0994F14D60
0F57C06D00
1F4B90D550
0BDF66FB80
037F300000
04D9000000
ENDCHAR
STARTCHAR i_x
ENCODING -1
SWIDTH 631 0
DWIDTH 6 0
BBX 7 7 -1 0
BITMAP
01D10000
00700000
07C6D760
0A94F350
0D61F800
1F44E640
0DD48E50
ENDCHAR
STARTCHAR i_z
ENCODING -1
SWIDTH 637 0
DWIDTH 6 0
BBX 7 7 -1 0
BITMAP
01D10000
00700000
07C59F70
0A936E10
0D70C600
1F45D420
0D9DEC20
ENDCHAR
STARTCHAR iacute_x
ENCODING -1
SWIDTH 631 0
DWIDTH 6 0
BBX 7 7 -1 0
BITMAP
00670000
00A10000
07C6D760
0A94F350
0D61F800
1F44E640
0DD48E50
ENDCHAR
STARTCHAR iacute_z
ENCODING -1
SWIDTH 637 0
DWIDTH 6 0
BBX 7 7 -1 0
BITMAP
00760000
00600000
07C59F70
0A977E10
0D70C600
1F45D320
0D9DEC20
ENDCHAR
STARTCHAR j_x
ENCODING -1
SWIDTH 624 0
DWIDTH 6 0
BBX 8 10 -2 -2
BITMAP
00160000
002D1000
00000085
007C7D36
00A94F81
00D61F50
01F47E66
06F628D4
7CC00000
8D500000
ENDCHAR
STARTCHAR j_z
ENCODING -1
SWIDTH 618 0
DWIDTH 6 0
BBX 8 10 -2 -2
BITMAP
00060000
002D1000
00000000
007D89F5
00AA48C0
00D61E40
01F38B51
07F2EDB1
8AC00000
9E500000
ENDCHAR
STARTCHAR l_x
ENCODING -1
SWIDTH 631 0
DWIDTH 6 0
BBX 6 7 0 0
BITMAP
051000
3F2000
6D6D76
9A3F35
C71F80
F44E64
DD48E5
ENDCHAR
STARTCHAR l_z
ENCODING -1
SWIDTH 635 0
DWIDTH 6 0
BBX 7 7 -1 0
BITMAP
02D30000
05F00000
08C69F70
0A946D10
0D60D600
1F46D420
0D9DDC20
ENDCHAR
STARTCHAR m_x
ENCODING -1
SWIDTH 1124 0
DWIDTH 10 0
BBX 12 5 -1 0
BITMAP
07EBABD0E6B0
0AB7D4F1C880
0D6AA6D09D10
1F4D78A1BD14
4F1F45E82EA0
ENDCHAR
STARTCHAR m_z
ENCODING -1
SWIDTH 1125 0
DWIDTH 10 0
BBX 11 5 -1 0
BITMAP
07EDABD1BCD0
0AB7D4F24E50
0D6AA6D07C00
1F4D78A1E550
4F1F46D9FB70
ENDCHAR
STARTCHAR n_z
ENCODING -1
SWIDTH 882 0
DWIDTH 8 0
BBX 9 5 -1 0
BITMAP
07EDA3ADA0
0AA7C24F30
0D69A09A00
1F4B72F440
4F19BAEB50
ENDCHAR
STARTCHAR o_ae
ENCODING -1
SWIDTH 1089 0
DWIDTH 10 0
BBX 11 5 -1 0
BITMAP
01BB338CBB70
0AA7B508E470
0E5656ADC600
1F4A3F4E9050
0BD70DC7EA20
ENDCHAR
STARTCHAR o_s
ENCODING -1
SWIDTH 786 0
DWIDTH 7 0
BBX 9 6 -1 0
BITMAP
0000002100
02BB35F500
0AA6A5F500
0F5660E600
1F4B58D910
0BE73BD400
ENDCHAR
STARTCHAR o_s_x
ENCODING -1
SWIDTH 1132 0
DWIDTH 10 0
BBX 12 6 -1 0
BITMAP
000000210050
01BA35F5D6B0
0AA6A5F5B880
0E5660E69E30
1F4B58D8BD03
0BE73BD62EB1
ENDCHAR
STARTCHAR o_s_z
ENCODING -1
SWIDTH 1139 0
DWIDTH 10 0
BBX 12 6 -1 0
BITMAP
000000210000
02BB35F5ACE1
0AA6A5F66C70
0F5660E64E10
1F4B58D7C620
0BE73BD7FB90
ENDCHAR
STARTCHAR o_x
ENCODING -1
SWIDTH 851 0
DWIDTH 8 0
BBX 9 6 -1 0
BITMAP
0000000320
01BA38D470
0AA7B8F720
0F5653F600
2F3A38E650
0BC6578D40
ENDCHAR
STARTCHAR oacute_s
ENCODING -1
SWIDTH 787 0
DWIDTH 7 0
BBX 9 7 -1 0
BITMAP
0007600000
0006001100
01BB35F500
0AA6A5F500
0E5660E600
1F4A58D910
0BE73BD400
ENDCHAR
STARTCHAR oacute_s_x
ENCODING -1
SWIDTH 1141 0
DWIDTH 10 0
BBX 12 7 -1 0
BITMAP
000760000000
000600110000
01BB34F5ABE1
0AA6A5E66B70
0E5670D74E10
1F4A58D7C720
0BE73BD7FBA0
ENDCHAR
STARTCHAR oacute_s_z
ENCODING -1
SWIDTH 1140 0
DWIDTH 10 0
BBX 12 7 -1 0
BITMAP
000760000000
000600110000
01BB35F5ACE1
0AA6A5F66B70
0E5660E64E10
1F4A58D7C720
0BE73BD7FB90
ENDCHAR
STARTCHAR oacute_x
ENCODING -1
SWIDTH 852 0
DWIDTH 8 0
BBX 9 7 -1 0
BITMAP
0007500000
0005000320
01BA38D470
0AA6B8F720
0E5653F600
1F4A38E650
0BC6478D50
ENDCHAR
STARTCHAR r_x
ENCODING -1
SWIDTH 784 0
DWIDTH 7 0
BBX 9 6 -1 0
BITMAP
0000001B00
07DB7F2800
0A832E9600
0D600CB000
1F3079C230
4F10D3E900
ENDCHAR
STARTCHAR r_z
ENCODING -1
SWIDTH 654 0
DWIDTH 6 0
BBX 7 5 -1 0
BITMAP
07ECBE90
0A934F20
0D60A900
1F43E430
4F1BEC40
ENDCHAR
STARTCHAR s_x
ENCODING -1
SWIDTH 727 0
DWIDTH 7 0
BBX 8 5 -1 0
BITMAP
00B98B94
03EB5D53
079C3F60
398D7F44
1BD71AD4
ENDCHAR
STARTCHAR s_z
ENCODING -1
SWIDTH 744 0
DWIDTH 7 0
BBX 8 6 -1 0
BITMAP
00220000
00DA69F7
04CB46D0
078C0D60
398C6D42
1AD5DDC2
ENDCHAR
STARTCHAR t_x
ENCODING -1
SWIDTH 631 0
DWIDTH 6 0
BBX 6 7 0 0
BITMAP
171000
4F0042
9D9D37
A93F72
D71F70
F45E65
DD48E5
ENDCHAR
STARTCHAR t_z
ENCODING -1
SWIDTH 704 0
DWIDTH 6 0
BBX 7 7 0 0
BITMAP
16100000
4F100000
8D3AAF20
AA04B800
D703E100
F40B8600
C84FC900
ENDCHAR
STARTCHAR u_v
ENCODING -1
SWIDTH 923 0
DWIDTH 8 0
BBX 10 5 -1 0
BITMAP
07C4F2F6C0
0A97D2F371
0D7AA5F080
1F5D77C370
0DCF45EA00
ENDCHAR
STARTCHAR u_x
ENCODING -1
SWIDTH 878 0
DWIDTH 8 0
BBX 10 5 -1 0
BITMAP
07C4F3F590
0A97D0F470
0D7AA0DB10
1F5D82D931
0DC8E95E80
ENDCHAR
STARTCHAR y_p
ENCODING -1
SWIDTH 954 0
DWIDTH 9 0
BBX 10 8 -1 -2
BITMAP
0000007200
07C4F2FBE2
0A97D5F0E5
0D7AA7C0F3
1F5D7A95E1
0DCFAEDD50
049F3F3000
06D85C0000
ENDCHAR
STARTCHAR y_x
ENCODING -1
SWIDTH 871 0
DWIDTH 8 0
BBX 10 8 -1 -2
BITMAP
0000000480
07C4F4F180
0A97D1FA20
0D7AA0D800
1F5D74D951
0DCF735E60
049F100000
06D8000000
ENDCHAR
STARTCHAR y_z
ENCODING -1
SWIDTH 888 0
DWIDTH 8 0
BBX 9 7 -1 -2
BITMAP
07C4F3ADB0
0A97D24E30
0D7AA09A00
1F5D62E440
0DDF39EB50
058F100000
07E7000000
ENDCHAR
STARTCHAR a_x.end
ENCODING -1
SWIDTH 884 0
DWIDTH 8 0
BBX 9 6 -1 0
BITMAP
0000000150
02B8F3E5B0
0A94F1C870
0E57D0AD10
1F4BA1CC00
0BD7EA3E50
ENDCHAR
STARTCHAR b_s.end
ENCODING -1
SWIDTH 731 0
DWIDTH 7 0
BBX 7 7 0 0
BITMAP
1C300000
4F000210
7ED54F60
AA5B4D70
D7580C80
F4A69B80
BE81BD30
ENDCHAR
STARTCHAR e_x.end
ENCODING -1
SWIDTH 747 0
DWIDTH 7 0
BBX 8 6 -1 0
BITMAP
00000023
01BA5F39
0A993F84
0E940D80
1F505D90
0AEA35E3
ENDCHAR
STARTCHAR f_u.end
ENCODING -1
SWIDTH 724 0
DWIDTH 7 0
BBX 9 9 -2 -2
BITMAP
000AD40000
003F120000
007D7F3D70
00A94F1F40
00D67C4F10
01F39A8D00
06F07E8E40
7AB0000000
9E40000000
ENDCHAR
STARTCHAR fi.end
ENCODING -1
SWIDTH 479 0
DWIDTH 4 0
BBX 7 9 -2 -2
BITMAP
0008BB30
002F1620
007D5F30
00AA4F10
00D67C00
01F39A00
06F17D10
7AC00000
9E500000
ENDCHAR
STARTCHAR fl.end
ENCODING -1
SWIDTH 490 0
DWIDTH 4 0
BBX 7 9 -2 -2
BITMAP
000ABA60
003F1A90
007D4D60
00A91F30
00D65E00
01F37C00
06F05E20
7AC00000
9E400000
ENDCHAR
STARTCHAR i_x.end
ENCODING -1
SWIDTH 616 0
DWIDTH 6 0
BBX 7 7 -1 0
BITMAP
01D10000
00700000
07C6D760
0A94F350
0D61F800
1F44E600
0DD48D10
ENDCHAR
STARTCHAR o_s.end
ENCODING -1
SWIDTH 718 0
DWIDTH 6 0
BBX 8 6 -1 0
BITMAP
00000021
02BB35F5
0AA6A5F5
0F5660E6
1F4B58D6
0BE73BD2
ENDCHAR
STARTCHAR oacute_s.end
ENCODING -1
SWIDTH 719 0
DWIDTH 6 0
BBX 8 7 -1 0
BITMAP
00076000
00060011
01BB35F5
0AA6A5F5
0E5660E6
1F4A58D6
0BE73BD2
ENDCHAR
STARTCHAR u_x.end
ENCODING -1
SWIDTH 863 0
DWIDTH 8 0
BBX 9 5 -1 0
BITMAP
07C4F3F590
0A97D0F470
0D7AA0DB10
1F5D82D900
0DC9E95E30
ENDCHAR
STARTCHAR uni0424.loclBGR
ENCODING -1
SWIDTH 840 0
DWIDTH 8 0
BBX 8 9 0 -1
BITMAP
0177A200
0653F200
028BE950
3D29B1E4
A80C80B7
C60F40E5
9A3F18C0
18BE8710
00790000
ENDCHAR
STARTCHAR uni0492.loclBSH
ENCODING -1
SWIDTH 459 0
DWIDTH 4 0
BBX 6 7 0 0
BITMAP
3AEFF4
C2F320
74FB20
07B000
0A8000
0D5000
1F3000
ENDCHAR
STARTCHAR uni04AA.loclCHU
ENCODING -1
SWIDTH 497 0
DWIDTH 4 0
BBX 5 9 0 -2
BITMAP
03C870
1E71B0
6F1000
AC0000
CA0000
BC0140
4EDA10
02A100
036100
ENDCHAR
STARTCHAR uni0418.loclSRB
ENCODING -1
SWIDTH 705 0
DWIDTH 6 0
BBX 7 7 0 0
BITMAP
06C80C80
85E53F40
C3F3DF10
36EB9D00
09F59A00
0C90C700
0F51F400
ENDCHAR
STARTCHAR uni0419.loclSRB
ENCODING -1
SWIDTH 705 0
DWIDTH 6 0
BBX 7 10 0 0
BITMAP
00082510
00068400
00000000
06C80C80
85E53F40
C3F3DF10
36EB9D00
09F59A00
0C90C700
0F51F400
ENDCHAR
STARTCHAR uni0430.end
ENCODING -1
SWIDTH 467 0
DWIDTH 4 0
BBX 6 5 -1 0
BITMAP
02C9F3
0AA4F1
0E57D0
1F4BA0
0BD8D1
ENDCHAR
STARTCHAR uni0432.end
ENCODING -1
SWIDTH 406 0
DWIDTH 4 0
BBX 5 7 -1 0
BITMAP
004C70
01E380
07C440
0C9E30
0F5670
1F4840
0AE800
ENDCHAR
STARTCHAR uni0434.end
ENCODING -1
SWIDTH 480 0
DWIDTH 4 0
BBX 6 7 -1 -2
BITMAP
02C9F3
0AA4F0
0E57C0
1F4B90
0BDF60
037F30
04DA00
ENDCHAR
STARTCHAR uni0435.end
ENCODING -1
SWIDTH 366 0
DWIDTH 3 0
BBX 5 5 -1 0
BITMAP
02BA20
0A9920
0F9400
1F4200
0BE500
ENDCHAR
STARTCHAR uni0451.end
ENCODING -1
SWIDTH 366 0
DWIDTH 3 0
BBX 5 7 -1 0
BITMAP
00C4A0
001010
02BA20
0A9920
0F9400
1F4200
0BE500
ENDCHAR
STARTCHAR uni0436.end
ENCODING -1
SWIDTH 848 0
DWIDTH 8 0
BBX 9 5 -1 0
BITMAP
07C66C3A90
035C8AB450
006DDCF000
2597E6F000
2AA3F1CB40
ENDCHAR
STARTCHAR uni0437.end
ENCODING -1
SWIDTH 426 0
DWIDTH 4 0
BBX 4 7 0 -2
BITMAP
0BE7
619C
60B7
0BC0
04F2
56F1
5E80
ENDCHAR
STARTCHAR uni0438.end
ENCODING -1
SWIDTH 459 0
DWIDTH 4 0
BBX 6 5 -1 0
BITMAP
07C4F1
0A97D0
0D7AA0
1F5D70
0DC9C0
ENDCHAR
STARTCHAR uni0439.end
ENCODING -1
SWIDTH 459 0
DWIDTH 4 0
BBX 6 7 -1 0
BITMAP
008341
006850
07C4F1
0A97D0
0D7AA0
1F5D70
0DC9C0
ENDCHAR
STARTCHAR uni043A.end
ENCODING -1
SWIDTH 501 0
DWIDTH 5 0
BBX 6 5 -1 0
BITMAP
07C3C4
0AC910
0DBD70
1F3C70
4F19C0
ENDCHAR
STARTCHAR uni043B.end
ENCODING -1
SWIDTH 511 0
DWIDTH 5 0
BBX 6 5 -1 0
BITMAP
0009E7
0036E5
0074F2
3794E0
2B72E4
ENDCHAR
STARTCHAR uni043C.end
ENCODING -1
SWIDTH 780 0
DWIDTH 7 0
BBX 8 5 -1 0
BITMAP
000AB0AE
003AB2EB
0065C8B8
3774D8D6
2A63F2AB
ENDCHAR
STARTCHAR uni043D.end
ENCODING -1
SWIDTH 460 0
DWIDTH 4 0
BBX 6 5 -1 0
BITMAP
07C2F1
0AA5D0
0DCCA0
1F4B70
4F19C0
ENDCHAR
STARTCHAR uni043E.end
ENCODING -1
SWIDTH 439 0
DWIDTH 4 0
BBX 5 5 -1 0
BITMAP
01BB30
0AA470
0E5660
1F4B20
0BE700
ENDCHAR
STARTCHAR uni043F.end
ENCODING -1
SWIDTH 454 0
DWIDTH 4 0
BBX 5 5 -1 0
BITMAP
07EDA0
0AA7C0
0D69A0
1F4B70
4F19B0
ENDCHAR
STARTCHAR uni0441.end
ENCODING -1
SWIDTH 341 0
DWIDTH 3 0
BBX 5 5 -1 0
BITMAP
02BB20
0B9410
1F4000
2F3100
0CE500
ENDCHAR
STARTCHAR uni0442.end
ENCODING -1
SWIDTH 701 0
DWIDTH 6 0
BBX 8 5 -1 0
BITMAP
07EDABD0
0AB7D4F1
0D6AA6D0
1F4D78A0
4F1F46D1
ENDCHAR
STARTCHAR uni0443.end
ENCODING -1
SWIDTH 460 0
DWIDTH 4 0
BBX 6 7 -1 -2
BITMAP
07C4F1
0A97D0
0D7AA0
1F5D60
0DDF30
058F10
07E700
ENDCHAR
STARTCHAR uni0445.end
ENCODING -1
SWIDTH 500 0
DWIDTH 5 0
BBX 5 6 0 0
BITMAP
000750
1AC360
52F910
60F600
17D700
547D10
ENDCHAR
STARTCHAR uni0447.end
ENCODING -1
SWIDTH 459 0
DWIDTH 4 0
BBX 5 5 0 0
BITMAP
7C4F10
A97D00
BCDA00
36C700
009C00
ENDCHAR
STARTCHAR uni0448.end
ENCODING -1
SWIDTH 706 0
DWIDTH 6 0
BBX 8 5 -1 0
BITMAP
07C4F1F4
0A97D3F1
0D7AA6D0
1F5D7AB0
0DC9D8D2
ENDCHAR
STARTCHAR uni044B.end
ENCODING -1
SWIDTH 608 0
DWIDTH 5 0
BBX 6 5 0 0
BITMAP
7B05C6
AAD5F3
D587F0
F3B7C0
BD64E3
ENDCHAR
STARTCHAR uni0455.end
ENCODING -1
SWIDTH 316 0
DWIDTH 3 0
BBX 4 6 -1 0
BITMAP
0034
00EA
04BB
078C
378C
1BD4
ENDCHAR
STARTCHAR uni0456.end
ENCODING -1
SWIDTH 209 0
DWIDTH 2 0
BBX 4 7 -1 0
BITMAP
01D1
0070
07C0
0A90
0D70
1F40
0D90
ENDCHAR
STARTCHAR uni0458.end
ENCODING -1
SWIDTH 213 0
DWIDTH 2 0
BBX 5 10 -2 -2
BITMAP
000600
002D10
000000
007C00
00A900
00D600
01F300
07F000
79C000
9E4000
ENDCHAR
STARTCHAR uni044E.end
ENCODING -1
SWIDTH 675 0
DWIDTH 6 0
BBX 7 5 -1 0
BITMAP
07C0AA50
0AA7B290
0DCE7480
1F4F6940
4F1AE800
ENDCHAR
STARTCHAR uni044F.end
ENCODING -1
SWIDTH 480 0
DWIDTH 4 0
BBX 6 5 -1 0
BITMAP
01A9F3
05C3F1
01CBC0
4999A0
2B66D1
ENDCHAR
STARTCHAR uni0437.init
ENCODING -1
SWIDTH 455 0
DWIDTH 4 0
BBX 5 7 0 -2
BITMAP
3CD200
60E600
02E200
3E6240
09C500
7BB000
9D4000
ENDCHAR
STARTCHAR uni0445.init
ENCODING -1
SWIDTH 390 0
DWIDTH 4 0
BBX 5 6 -1 0
BITMAP
000940
0A9440
06D900
06F200
46F460
779D30
ENDCHAR
STARTCHAR uni0436.loclBGR
ENCODING -1
SWIDTH 882 0
DWIDTH 8 0
BBX 10 7 -1 0
BITMAP
00000F3000
00003F0000
07C66D3A90
035C8AB450
006DDCF000
2597E6F031
2AA3F1CB50
ENDCHAR
STARTCHAR uni043A.loclBGR
ENCODING -1
SWIDTH 518 0
DWIDTH 5 0
BBX 6 7 -1 0
BITMAP
01D300
04F000
07C480
0ADD40
0D9BA0
1F4B95
4F18E5
ENDCHAR
STARTCHAR uni044E.loclBGR
ENCODING -1
SWIDTH 675 0
DWIDTH 6 0
BBX 9 7 -1 0
BITMAP
02F3000000
05F0000000
07D0AB5000
0AA7C4B510
0DCE748000
1F4F683000
4F1AE80000
ENDCHAR
STARTCHAR uni0493.loclBSH
ENCODING -1
SWIDTH 398 0
DWIDTH 4 0
BBX 5 6 -1 0
BITMAP
000010
0AEF90
0E5100
2F9500
4E2200
3EA000
ENDCHAR
STARTCHAR uni04AB.loclCHU
ENCODING -1
SWIDTH 384 0
DWIDTH 3 0
BBX 5 7 -1 -2
BITMAP
01BA20
0A9410
0E5000
1F4140
0BE900
008500
016400
ENDCHAR
STARTCHAR uni0453.loclMKD
ENCODING -1
SWIDTH 267 0
DWIDTH 2 0
BBX 4 9 -1 0
BITMAP
001B
0073
08B7
0000
07C0
0A90
0D70
1F45
0DC2
ENDCHAR
STARTCHAR uni0433.loclSRB
ENCODING -1
SWIDTH 267 0
DWIDTH 2 0
BBX 4 7 -1 0
BITMAP
08B7
0000
07C0
0A90
0D70
1F45
0DC2
ENDCHAR
STARTCHAR uni043F.loclSRB
ENCODING -1
SWIDTH 505 0
DWIDTH 5 0
BBX 6 7 -1 0
BITMAP
00ABB0
000000
07C4F1
0A97D0
0D7AA0
1F5D75
0DC9D3
ENDCHAR
STARTCHAR uni0442.loclSRB
ENCODING -1
SWIDTH 752 0
DWIDTH 7 0
BBX 8 7 -1 0
BITMAP
009BBBB1
00000000
07C4F1F4
0A97D3F1
0D7AA6D0
1F5D7AB4
0DC9D8E6
ENDCHAR
STARTCHAR uni04150437
ENCODING -1
SWIDTH 940 0
DWIDTH 8 0
BBX 9 9 0 -2
BITMAP
03BA300000
0B65300000
09A00AE600
3E50619C00
BC0060C700
DB061BB060
7EC403F720
000039F100
00005D8000
ENDCHAR
STARTCHAR uni04150445
ENCODING -1
SWIDTH 797 0
DWIDTH 7 0
BBX 8 7 0 0
BITMAP
02BA3000
0A655000
0B7221D0
1AB0C770
9D009D20
DB01BD14
8EB83EB1
ENDCHAR
STARTCHAR uni04010437
ENCODING -1
SWIDTH 940 0
DWIDTH 8 0
BBX 9 12 0 -2
BITMAP
00B4B00000
0010100000
0000000000
03BA300000
0B65300000
09A00AE600
3E50619C00
BC0060C700
DB061BB060
7EC403F720
000039F100
00005D8000
ENDCHAR
STARTCHAR uni04010445
ENCODING -1
SWIDTH 797 0
DWIDTH 7 0
BBX 8 9 0 0
BITMAP
00B4B000
00101000
02BA3000
0A655000
0B7221D0
1AB0C770
9D009D20
DB01BD14
8EB83EB1
ENDCHAR
STARTCHAR uni04210437
ENCODING -1
SWIDTH 973 0
DWIDTH 9 0
BBX 9 9 0 -2
BITMAP
03C8700000
1E61800000
6F1007EA00
AC00255F10
CA00607C00
BD0447E250
4DD600D940
000017F600
00002CC100
ENDCHAR
STARTCHAR uni04210445
ENCODING -1
SWIDTH 814 0
DWIDTH 7 0
BBX 8 7 0 0
BITMAP
03C87000
1E71B000
6F1131B1
AC00A971
CA007E40
BC019F14
4EC92DB2
ENDCHAR
STARTCHAR uni04040437
ENCODING -1
SWIDTH 973 0
DWIDTH 9 0
BBX 9 9 0 -2
BITMAP
03B7700000
1E51800000
6FB607EA00
AB00255F10
CA00607C00
BD0447E260
4DD600D940
000017F600
00002CC100
ENDCHAR
STARTCHAR uni04040445
ENCODING -1
SWIDTH 814 0
DWIDTH 7 0
BBX 8 7 0 0
BITMAP
03B77000
1E51A000
6FB69871
AB008CA0
CA006E10
BD01BF15
4EC81DB1
ENDCHAR
STARTCHAR uni04300445
ENCODING -1
SWIDTH 899 0
DWIDTH 8 0
BBX 10 6 -1 0
BITMAP
0000000150
02B8F3E5B0
0A94F1C870
0E57D0AD10
1F4BA1CC23
0BD7EA3EA0
ENDCHAR
STARTCHAR uni04300447
ENCODING -1
SWIDTH 993 0
DWIDTH 9 0
BBX 11 5 -1 0
BITMAP
02C9F5F3D600
0AA4F5F2F300
0E57D5FAF100
1F4BA178D320
0BD8D104E800
ENDCHAR
STARTCHAR uni04310433
ENCODING -1
SWIDTH 816 0
DWIDTH 7 0
BBX 9 8 -1 0
BITMAP
0001100000
007FFD0000
003B410000
007C37EA00
09B4B48D00
0F56A5E400
1F3A3F5140
0BD61CD800
ENDCHAR
STARTCHAR uni04310453
ENCODING -1
SWIDTH 816 0
DWIDTH 7 0
BBX 9 8 -1 0
BITMAP
0001100000
007FFD2B00
003B414100
007C37EA00
09B4B48D00
0F56A5E400
1F3A3F5140
0BD61CD800
ENDCHAR
STARTCHAR uni04310451
ENCODING -1
SWIDTH 814 0
DWIDTH 7 0
BBX 9 8 -1 0
BITMAP
0002310000
008FF8C580
002B201010
019C32BA10
0AA46C7A10
0F567F9300
1F3A5F2240
0AD61CC600
ENDCHAR
STARTCHAR uni04310436
ENCODING -1
SWIDTH 1261 0
DWIDTH 11 0
BBX 13 8 -1 0
BITMAP
00011000000000
007FFD00000000
003B4100000000
019C39D2B86B50
0AA4C1A7D6D230
0F5680ACFCB000
1F3B52E6E7A040
0AE65A77B3D910
ENDCHAR
STARTCHAR uni04310439
ENCODING -1
SWIDTH 935 0
DWIDTH 8 0
BBX 10 8 -1 0
BITMAP
0001100000
007FFAD260
003B307830
019C39A6E0
0AA46C79B0
0F566F4C80
1F3A4F3F65
0AE61EABC2
ENDCHAR
STARTCHAR uni0431045E
ENCODING -1
SWIDTH 916 0
DWIDTH 8 0
BBX 10 10 -1 -2
BITMAP
0001100000
007DB69860
003C000000
019C49A6E0
0AA47C79B0
0F566F4C80
1F3B4F3E54
0AE61ECF51
000004AD00
000008D600
ENDCHAR
STARTCHAR uni0431044D
ENCODING -1
SWIDTH 860 0
DWIDTH 8 0
BBX 9 8 -1 0
BITMAP
0001100000
007FFD0000
003B410000
019C26DD10
0AA4B50F50
0F56A19F30
1F3B645D00
0AE64AA300
ENDCHAR
STARTCHAR uni04310456
ENCODING -1
SWIDTH 697 0
DWIDTH 6 0
BBX 8 7 -1 0
BITMAP
007FF9D0
003B4170
019C29A0
0AA46C70
0F566F40
1F3A4F35
0AE61EB1
ENDCHAR
STARTCHAR uni04310457
ENCODING -1
SWIDTH 697 0
DWIDTH 6 0
BBX 8 8 -1 0
BITMAP
00022000
008FFA7A
002B1001
019C39A0
0AA46C70
0F566F40
1F3B4F35
0AE61EB1
ENDCHAR
STARTCHAR uni04310458
ENCODING -1
SWIDTH 669 0
DWIDTH 6 0
BBX 8 10 -1 -2
BITMAP
00388260
008DB8C0
002C0000
019C49A0
0AA47C70
0F566F40
1F3A5F33
0AD68E40
0008DA00
000AD300
ENDCHAR
STARTCHAR uni04320433
ENCODING -1
SWIDTH 837 0
DWIDTH 8 0
BBX 9 7 -1 0
BITMAP
004C700000
01E3800000
07C447DC00
0C9E926E00
0F5674E500
1F484E7050
0AD80BD900
ENDCHAR
STARTCHAR uni04320453
ENCODING -1
SWIDTH 837 0
DWIDTH 8 0
BBX 9 7 -1 0
BITMAP
004C701C10
01E3803300
07C447DC00
0C9E926E00
0F5674E500
1F484E7050
0AD80BD900
ENDCHAR
STARTCHAR uni04320436
ENCODING -1
SWIDTH 1279 0
DWIDTH 12 0
BBX 13 7 -1 0
BITMAP
004C7000000000
01E38000000000
07C459D48A4A70
0C9E9179B7D240
0F56708CECD000
1F4873C6F6D040
0AE93A95E1D920
ENDCHAR
STARTCHAR uni04320437
ENCODING -1
SWIDTH 824 0
DWIDTH 7 0
BBX 9 9 -1 -2
BITMAP
004C700000
01E3800000
07C45AE600
0C9E91AB00
0F5670C700
1F485CB060
0AE803E720
000038F100
00006D8000
ENDCHAR
STARTCHAR uni04320445
ENCODING -1
SWIDTH 851 0
DWIDTH 8 0
BBX 9 7 -1 0
BITMAP
004C700000
01E3800660
07C457C270
0C9E72F910
0F5671F500
1F4848D550
0AE8647D40
ENDCHAR
STARTCHAR uni04330437
ENCODING -1
SWIDTH 840 0
DWIDTH 8 0
BBX 9 7 -1 -2
BITMAP
05DC07E800
066E448D00
05D560A900
1F543AC050
1DD601F730
000027F300
00004DA000
ENDCHAR
STARTCHAR uni04330445
ENCODING -1
SWIDTH 740 0
DWIDTH 7 0
BBX 8 5 -1 0
BITMAP
05DC8C66
066E5E64
05D52F60
1F518E65
1DD917E5
ENDCHAR
STARTCHAR uni04330447
ENCODING -1
SWIDTH 880 0
DWIDTH 8 0
BBX 10 5 -1 0
BITMAP
05DC2F3D60
066E5F2F30
05D59FAF10
1F53679D32
1DC6004E80
ENDCHAR
STARTCHAR uni04530437
ENCODING -1
SWIDTH 840 0
DWIDTH 8 0
BBX 9 9 -1 -2
BITMAP
0009400000
0006000000
05DC07E800
066E448D00
05D560A900
1F543AC050
1DD601F730
000027F300
00004DA000
ENDCHAR
STARTCHAR uni04530445
ENCODING -1
SWIDTH 740 0
DWIDTH 7 0
BBX 8 7 -1 0
BITMAP
00085000
000A0000
05DC8C66
066E5E64
05D52F60
1F518E65
1DD917E5
ENDCHAR
STARTCHAR uni04530447
ENCODING -1
SWIDTH 880 0
DWIDTH 8 0
BBX 10 7 -1 0
BITMAP
0009400000
0006000000
05DC2F3D60
066E5F2F30
05D59FAF10
1F53679D32
1DC6004E80
ENDCHAR
STARTCHAR uni04340447
ENCODING -1
SWIDTH 1010 0
DWIDTH 9 0
BBX 11 7 -1 -2
BITMAP
02C9F3E5B900
0AA4F2F3E600
0E57C5FAF300
1F4BA667F230
0BDE9202EA00
028F30000000
04DA00000000
ENDCHAR
STARTCHAR uni04340458
ENCODING -1
SWIDTH 746 0
DWIDTH 7 0
BBX 8 10 -1 -2
BITMAP
00000043
00000088
00000000
02C9F3E6
0AA4F2F3
0E57C5F0
1F4BA8C5
0BDE7BB3
027F4E50
04DADC10
ENDCHAR
STARTCHAR uni04350437
ENCODING -1
SWIDTH 876 0
DWIDTH 8 0
BBX 10 7 -1 -2
BITMAP
01BA25DC10
0A99363F30
0E94505D00
1F4155E342
0BD800BA50
000006D800
00000CD200
ENDCHAR
STARTCHAR uni04350445
ENCODING -1
SWIDTH 762 0
DWIDTH 7 0
BBX 9 6 -1 0
BITMAP
0000002300
01BA5F3900
0A993F8400
0E940D8000
1F505D9510
0AEA45E600
ENDCHAR
STARTCHAR uni04350447
ENCODING -1
SWIDTH 889 0
DWIDTH 8 0
BBX 10 5 -1 0
BITMAP
01BA3F4C70
0A996F2F50
0E947FDF20
1F43478E33
0BD6003E80
ENDCHAR
STARTCHAR uni04510437
ENCODING -1
SWIDTH 876 0
DWIDTH 8 0
BBX 10 9 -1 -2
BITMAP
00C4A00000
0010100000
01BA25DC10
0A99363F30
0E94505D00
1F4155E342
0BD800BA50
000006D800
00000CD200
ENDCHAR
STARTCHAR uni04510445
ENCODING -1
SWIDTH 762 0
DWIDTH 7 0
BBX 9 7 -1 0
BITMAP
00C4A00000
0010102300
01BA5F3900
0A993F8400
0E940D8000
1F505D9510
0AEA45E600
ENDCHAR
STARTCHAR uni04510447
ENCODING -1
SWIDTH 889 0
DWIDTH 8 0
BBX 10 7 -1 0
BITMAP
00C4A00000
0010100000
01BA3F4C70
0A996F2F50
0E947FDF20
1F43478E33
0BD6003E80
ENDCHAR
STARTCHAR uni04360447
ENCODING -1
SWIDTH 1392 0
DWIDTH 13 0
BBX 14 5 -1 0
BITMAP
07C66C3A98B5E0
035C8AB45B97C0
006DDCF01FAD90
2597E6F0757D75
2AA3F1CB400BD3
ENDCHAR
STARTCHAR uni04370437
ENCODING -1
SWIDTH 921 0
DWIDTH 8 0
BBX 9 7 0 -2
BITMAP
1BE72BE400
729C60C900
60B851E500
0BC33D9050
03F606E500
49F16AE000
5D807D6000
ENDCHAR
STARTCHAR uni04380447
ENCODING -1
SWIDTH 1010 0
DWIDTH 9 0
BBX 11 5 -1 0
BITMAP
07C4F1E5B900
0A97D2F3E600
0D7AA5FAF300
1F5D7667F240
0DC9D302EA00
ENDCHAR
STARTCHAR uni04390447
ENCODING -1
SWIDTH 1010 0
DWIDTH 9 0
BBX 11 7 -1 0
BITMAP
008341000000
006850000000
07C4F1E5B900
0A97D2F3E600
0D7AA5FAF300
1F5D7667F240
0DC9D302EA00
ENDCHAR
STARTCHAR uni043A0447
ENCODING -1
SWIDTH 1016 0
DWIDTH 9 0
BBX 11 5 -1 0
BITMAP
07C3C4C79B00
0AC911F4C800
0DBE73FAF500
1F3C7656F340
4F19D401DA10
ENDCHAR
STARTCHAR uni045C0447
ENCODING -1
SWIDTH 1016 0
DWIDTH 9 0
BBX 11 7 -1 0
BITMAP
000570000000
000500000000
07C3C4C79B00
0AC911F4C800
0DBE73FAF500
1F3C7656F340
4F19D401DA10
ENDCHAR
STARTCHAR uni043B0447
ENCODING -1
SWIDTH 1061 0
DWIDTH 10 0
BBX 11 5 -1 0
BITMAP
0009E77C4F10
0036E5A97D00
0074F2DCDA00
3894E366C750
2B73E8009D30
ENDCHAR
STARTCHAR uni043C0447
ENCODING -1
SWIDTH 1276 0
DWIDTH 11 0
BBX 13 5 -1 0
BITMAP
000F61E78B5E00
003F67F4B88C00
006D7BF1ECE900
387BD9D465D650
2A6AC3E800AD20
ENDCHAR
STARTCHAR uni043D0447
ENCODING -1
SWIDTH 1011 0
DWIDTH 9 0
BBX 11 5 -1 0
BITMAP
07C2F1E6A900
0AA5D2F3D600
0DCCA5F7F300
1F4B8767F230
4F19D402EA00
ENDCHAR
STARTCHAR uni043E0433
ENCODING -1
SWIDTH 804 0
DWIDTH 7 0
BBX 9 5 -1 0
BITMAP
01BB36DB00
0AA6B47E00
0E5655E400
1F4A4F4130
0BD61DC700
ENDCHAR
STARTCHAR uni043E0453
ENCODING -1
SWIDTH 804 0
DWIDTH 7 0
BBX 9 7 -1 0
BITMAP
0000000A20
0000001500
01BB36DB00
0AA6B47E00
0E5655E400
1F4A4F4130
0BD61DC700
ENDCHAR
STARTCHAR uni043E0436
ENCODING -1
SWIDTH 1271 0
DWIDTH 11 0
BBX 13 5 -1 0
BITMAP
01BA48D3995B60
0A96B188C7D240
0E56509CFCC000
1F4A62C6F6C050
0BE65A96C2D920
ENDCHAR
STARTCHAR uni043E0437
ENCODING -1
SWIDTH 837 0
DWIDTH 8 0
BBX 9 7 -1 -2
BITMAP
01BB38E800
0AA6C28D00
0E5650B800
1F4B2AC060
0BE602F730
000027F300
00004DA000
ENDCHAR
STARTCHAR uni043E043B
ENCODING -1
SWIDTH 992 0
DWIDTH 9 0
BBX 11 5 -1 0
BITMAP
01BB300AE600
0AA47055F300
0E565084F100
1F4B6696D320
0BEB7B64E800
ENDCHAR
STARTCHAR uni043E043C
ENCODING -1
SWIDTH 1207 0
DWIDTH 11 0
BBX 13 5 -1 0
BITMAP
01BB302F42F500
0AA4705F58F200
0E56507E6CE000
1F4B667DC9C410
0BEB7A5CB5E700
ENDCHAR
STARTCHAR uni043E0445
ENCODING -1
SWIDTH 850 0
DWIDTH 8 0
BBX 9 6 -1 0
BITMAP
0000000320
01BA38D470
0AA7B8F720
0F5653F600
2F3A38E650
0BC6578D40
ENDCHAR
STARTCHAR uni043E0459
ENCODING -1
SWIDTH 1179 0
DWIDTH 11 0
BBX 12 5 -1 0
BITMAP
01BB300AE600
0AA47055F960
0E565084F4F3
1F4A6696D2F1
0BEB7B62ED60
ENDCHAR
STARTCHAR uni043E044D
ENCODING -1
SWIDTH 867 0
DWIDTH 8 0
BBX 9 5 -1 0
BITMAP
01BB35CD20
0AA6A40E60
0E56509F40
1F4A444D00
0BE63AA300
ENDCHAR
STARTCHAR uni043F0447
ENCODING -1
SWIDTH 1010 0
DWIDTH 9 0
BBX 11 5 -1 0
BITMAP
07EDA0E5B900
0AA7C2F3E600
0D69A5FAF300
1F4B7667F240
4F18D302E900
ENDCHAR
STARTCHAR uni04400437
ENCODING -1
SWIDTH 890 0
DWIDTH 8 0
BBX 10 8 -1 -2
BITMAP
0370000000
08ECA3CD10
0BA4F61F50
0E76D04E10
2F4B94E533
5FDC10AB60
8C0006CA00
A7000AD300
ENDCHAR
STARTCHAR uni04410437
ENCODING -1
SWIDTH 876 0
DWIDTH 8 0
BBX 10 7 -1 -2
BITMAP
01BA25DC10
0A94263F30
0E50505D00
1F4155E341
0BD800BA50
000006D800
00000CD200
ENDCHAR
STARTCHAR uni04410445
ENCODING -1
SWIDTH 755 0
DWIDTH 7 0
BBX 8 6 -1 0
BITMAP
00000023
02BB5F39
0B942F74
1F400E90
2F405D84
0BEA46E6
ENDCHAR
STARTCHAR uni04410447
ENCODING -1
SWIDTH 889 0
DWIDTH 8 0
BBX 10 5 -1 0
BITMAP
01BA3F4C70
0A945F2F50
0E508F9F20
1F43578E22
0BD7003E90
ENDCHAR
STARTCHAR uni0441044A
ENCODING -1
SWIDTH 841 0
DWIDTH 8 0
BBX 9 5 -1 0
BITMAP
01BA5AD100
0A9349CC20
0E502E3C60
1F41BF1E30
0BD92DD700
ENDCHAR
STARTCHAR uni04420447
ENCODING -1
SWIDTH 1257 0
DWIDTH 11 0
BBX 13 5 -1 0
BITMAP
07EDABD0B97C00
0AB7D4F1E6B900
0D6AA6D1FBF600
1F4D78A555F450
4F1F45E600DB10
ENDCHAR
STARTCHAR uni04430447
ENCODING -1
SWIDTH 989 0
DWIDTH 9 0
BBX 11 7 -1 -2
BITMAP
07C4F2F2E600
0A97D5E2F300
0D6AA8EBF000
1F5E7669D410
0DDF7104E700
049F10000000
06D700000000
ENDCHAR
STARTCHAR uni04430458
ENCODING -1
SWIDTH 725 0
DWIDTH 7 0
BBX 8 10 -1 -2
BITMAP
00000052
000000B5
00000000
07C4F2F3
0A97D5F0
0D7AA8C0
1F5D7A95
0DCF5D92
049F5F20
07EAEA00
ENDCHAR
STARTCHAR uni045E0447
ENCODING -1
SWIDTH 989 0
DWIDTH 9 0
BBX 11 10 -1 -2
BITMAP
008341000000
006850000000
000000000000
07C4F2F2E600
0A97D5E2F300
0D6AA8EBF000
1F5E7669D410
0DDF7104E700
049F10000000
06D700000000
ENDCHAR
STARTCHAR uni045E0458
ENCODING -1
SWIDTH 725 0
DWIDTH 7 0
BBX 8 10 -1 -2
BITMAP
00834194
00685083
00000000
07C4F2F3
0A97D5F0
0D7AA8C0
1F5D7A95
0DCF5D92
038E3F20
07EAEA00
ENDCHAR
STARTCHAR uni04440437
ENCODING -1
SWIDTH 1148 0
DWIDTH 10 0
BBX 12 9 -1 -2
BITMAP
000087000000
0000D5000000
01C9F9D2AE50
0AA4E0EA1BA0
0F57B0F30D50
1F4B86E1C906
0BDEDD405E71
001F20049F00
005B0007D700
ENDCHAR
STARTCHAR uni04450447
ENCODING -1
SWIDTH 1027 0
DWIDTH 9 0
BBX 10 6 0 0
BITMAP
0007500000
1AC36C88B0
52F91E5B80
60F53FAF50
17D6666F34
546E501DB1
ENDCHAR
STARTCHAR uni0445044A
ENCODING -1
SWIDTH 1006 0
DWIDTH 9 0
BBX 9 6 0 0
BITMAP
0004200000
1AC57BC400
62F916DB50
61F50B68A0
18D65F4C70
646E6BEA00
ENDCHAR
STARTCHAR uni04470447
ENCODING -1
SWIDTH 1010 0
DWIDTH 9 0
BBX 10 5 0 0
BITMAP
7C4F1E5B90
A97D2F3E60
BCEA5FAF30
36C7667F24
009D302EA0
ENDCHAR
STARTCHAR uni04480447
ENCODING -1
SWIDTH 1257 0
DWIDTH 11 0
BBX 13 5 -1 0
BITMAP
07C4F1F4B97C00
0A97D3F1E6B900
0D7AA6D2FBF600
1F5D7AB555F450
0DC9D8E500DC10
ENDCHAR
STARTCHAR uni045F0447
ENCODING -1
SWIDTH 1010 0
DWIDTH 9 0
BBX 11 7 -1 -2
BITMAP
07C4F1E5B900
0A97D2F3E600
0D7AA5FAF300
1F5D7667F240
0DEBD302EA00
009700000000
005600000000
ENDCHAR
STARTCHAR uni044B0447
ENCODING -1
SWIDTH 1157 0
DWIDTH 10 0
BBX 11 5 0 0
BITMAP
7B05C69A6E00
AAD5F3C7AB00
D587F1EDF800
F3B7D454E550
BD63E700BB20
ENDCHAR
STARTCHAR uni04550437
ENCODING -1
SWIDTH 840 0
DWIDTH 8 0
BBX 9 8 -1 -2
BITMAP
0012000000
00DA09E800
03CB438D00
078C70A900
378E4AC050
1BD701F730
000027F300
00004DA000
ENDCHAR
STARTCHAR uni04550445
ENCODING -1
SWIDTH 727 0
DWIDTH 7 0
BBX 8 5 -1 0
BITMAP
00B98B94
03EB5D53
079C3F60
398D7F44
1BD71AD4
ENDCHAR
STARTCHAR uni04550447
ENCODING -1
SWIDTH 909 0
DWIDTH 8 0
BBX 10 6 -1 0
BITMAP
0022000000
00DA0D79A0
04CB1F4D70
078C6FAF40
388D556F34
1BD6001EB0
ENDCHAR
STARTCHAR uni04540437
ENCODING -1
SWIDTH 876 0
DWIDTH 8 0
BBX 10 7 -1 -2
BITMAP
01AA25DC10
0AB5163F30
0E40505D10
1F4155E351
0BD800BA50
000006D800
00000CD200
ENDCHAR
STARTCHAR uni04540445
ENCODING -1
SWIDTH 755 0
DWIDTH 7 0
BBX 8 6 -1 0
BITMAP
00000023
02CB5F39
0B943F65
1FB40E90
2F404D84
0BEA46E6
ENDCHAR
STARTCHAR uni04540447
ENCODING -1
SWIDTH 889 0
DWIDTH 8 0
BBX 10 5 -1 0
BITMAP
01BA3F4C70
0AA45F2E50
0EB48F8F20
1F43679E22
0BD7003E90
ENDCHAR
STARTCHAR uni044D0437
ENCODING -1
SWIDTH 837 0
DWIDTH 8 0
BBX 9 7 -1 -2
BITMAP
05DE5AE800
009ED28D00
010F50B810
474D1AC060
2AB302F720
000028F300
00004DA000
ENDCHAR
STARTCHAR uni04560447
ENCODING -1
SWIDTH 763 0
DWIDTH 7 0
BBX 8 7 0 0
BITMAP
1D100000
07000000
7C2F2E50
A95E2F30
D78EBF00
F4669C41
CC105E70
ENDCHAR
STARTCHAR uni04570447
ENCODING -1
SWIDTH 763 0
DWIDTH 7 0
BBX 8 7 0 0
BITMAP
B4B00000
10100000
7C2F2E50
A95E2F30
D78EBF00
F4669C41
CC105E70
ENDCHAR
STARTCHAR uni04570457
ENCODING -1
SWIDTH 543 0
DWIDTH 5 0
BBX 7 7 -1 0
BITMAP
0B88BA20
01111100
07C1F300
0A94F100
0D77C000
1F4BA410
0DC8E600
ENDCHAR
STARTCHAR uni04580447
ENCODING -1
SWIDTH 743 0
DWIDTH 7 0
BBX 9 10 -2 -2
BITMAP
0016000000
002D100000
0000000000
007C5E2F30
00A98B5E00
00D7BDCC00
01F466BA50
06F4007E50
7CC0000000
8D50000000
ENDCHAR
STARTCHAR uni04580458
ENCODING -1
SWIDTH 480 0
DWIDTH 4 0
BBX 7 10 -2 -2
BITMAP
00160610
002D1D30
00000000
007C5E00
00A98C00
00D6B900
01F3E660
05F6F700
6BC6E000
9EAE6000
ENDCHAR
STARTCHAR uni045B0447
ENCODING -1
SWIDTH 990 0
DWIDTH 9 0
BBX 11 10 -1 -2
BITMAP
001100000000
02F200000000
09F810000000
08DD73F2E500
0BA9B6D3F200
0D5A98FDE000
1F3D6569C410
4F5F5005E600
06BE00000000
06D700000000
ENDCHAR
STARTCHAR uni045B0458
ENCODING -1
SWIDTH 722 0
DWIDTH 7 0
BBX 8 10 -1 -2
BITMAP
00410052
02F200B5
09F81000
08DD72F2
0BA9B5E0
0D5B88B0
1F3E6B95
4F5F4E71
06AE4F10
05EAE900
ENDCHAR
STARTCHAR uni044E0433
ENCODING -1
SWIDTH 1050 0
DWIDTH 9 0
BBX 11 5 -1 0
BITMAP
07C0AA54CC10
0AA7C5B45F10
0DCE7474E600
1F4F684F6140
4F1AD80CD800
ENDCHAR
STARTCHAR uni044E0453
ENCODING -1
SWIDTH 1050 0
DWIDTH 9 0
BBX 11 7 -1 0
BITMAP
000000000940
000000000500
07C0AA54CC10
0AA7C5B45F10
0DCE7474E600
1F4F684F6140
4F1AD80CD800
ENDCHAR
STARTCHAR uni044E0436
ENCODING -1
SWIDTH 1507 0
DWIDTH 14 0
BBX 15 5 -1 0
BITMAP
07C0A957C57B4A80
0AA7B5C26AA8C240
0DCE74707DECE000
1F4F6864B6F6D050
4F1AE84AA4E1D930
ENDCHAR
STARTCHAR uni044E0437
ENCODING -1
SWIDTH 1073 0
DWIDTH 10 0
BBX 11 7 -1 -2
BITMAP
07B3CA79D900
0ACEB4E36F00
0D5F75709A10
1F2E6A38D160
4F08E800F830
00000016F500
0000003DB000
ENDCHAR
STARTCHAR uni044E043B
ENCODING -1
SWIDTH 1228 0
DWIDTH 11 0
BBX 13 5 -1 0
BITMAP
07C0AA5009E800
0AA7B29037D500
0DCE747064F200
1F4F696794F230
4F1AEC6B72EA00
ENDCHAR
STARTCHAR uni044E043C
ENCODING -1
SWIDTH 1443 0
DWIDTH 13 0
BBX 15 5 -1 0
BITMAP
07C0AA500F61E700
0AA7B2903F76F400
0DCE74706E7BF100
1F4F69667BCAE220
4F1AEC6A6AD3E900
ENDCHAR
STARTCHAR uni044E0445
ENCODING -1
SWIDTH 1088 0
DWIDTH 10 0
BBX 11 6 -1 0
BITMAP
000000000330
07C0A956F380
0AA7B5B7F640
0DCE7470F900
1F4F6838C740
4F1AD8396E60
ENDCHAR
STARTCHAR uni044E0459
ENCODING -1
SWIDTH 1415 0
DWIDTH 13 0
BBX 14 5 -1 0
BITMAP
07C0AA5009E800
0AA7B29037D960
0DCE747064F7E5
1F4F696794F1E3
4F1AEC6B71DD70
ENDCHAR
STARTCHAR uni044E044D
ENCODING -1
SWIDTH 1103 0
DWIDTH 10 0
BBX 11 5 -1 0
BITMAP
07C0AA53AE30
0AA7B5B40C80
0DCE74708E60
1F4F68552E10
4F1AE82AA500
ENDCHAR
STARTCHAR uni044F0447
ENCODING -1
SWIDTH 1030 0
DWIDTH 9 0
BBX 11 5 -1 0
BITMAP
01B9F3B88B00
05C3F1E5C900
01CAC2FCF600
4999A545F450
2B66E500DB10
ENDCHAR
STARTCHAR uni04300445.liga
ENCODING -1
SWIDTH 884 0
DWIDTH 8 0
BBX 9 6 -1 0
BITMAP
0000000150
02B8F3E5B0
0A94F1C870
0E57D0AD10
1F4BA1CD00
0BD7EA3E50
ENDCHAR
STARTCHAR uni04300447.liga
ENCODING -1
SWIDTH 947 0
DWIDTH 9 0
BBX 10 5 -1 0
BITMAP
02C9F5F3D6
0AA4F5F2F3
0E57D5FAF1
1F4BA178D0
0BD8D104E3
ENDCHAR
STARTCHAR uni04310451.liga
ENCODING -1
SWIDTH 746 0
DWIDTH 7 0
BBX 9 8 -1 0
BITMAP
0002310000
008FF8C580
002B201010
019C32BA10
0AA46C7A10
0F567F9300
1F3B5F2200
0AE61CD400
ENDCHAR
STARTCHAR uni04310436.liga
ENCODING -1
SWIDTH 1258 0
DWIDTH 11 0
BBX 13 8 -1 0
BITMAP
00011000000000
007FFD00000000
003B4100000000
019C39D2B86B50
0AA4C1A7D6D230
0F5680ACFCB000
1F3B52E6E7A000
0AE65A77B3D910
ENDCHAR
STARTCHAR uni04310439.liga
ENCODING -1
SWIDTH 901 0
DWIDTH 8 0
BBX 9 8 -1 0
BITMAP
0001100000
007FFAD260
003B307830
019C39A6E0
0AA46C79B0
0F566F4C80
1F3A4F3F50
0AE61EABA0
ENDCHAR
STARTCHAR uni0431045E.liga
ENCODING -1
SWIDTH 890 0
DWIDTH 8 0
BBX 9 10 -1 -2
BITMAP
0001100000
007DB69860
003C000000
019C49A6E0
0AA47C79B0
0F566F4C80
1F3B4F3F40
0AE61EDF10
0000059D00
000008E600
ENDCHAR
STARTCHAR uni04310456.liga
ENCODING -1
SWIDTH 639 0
DWIDTH 6 0
BBX 7 7 -1 0
BITMAP
007FF9D0
003B4170
019C29A0
0AA46C70
0F566F40
1F3A4F20
0AE61D70
ENDCHAR
STARTCHAR uni04310457.liga
ENCODING -1
SWIDTH 638 0
DWIDTH 6 0
BBX 8 8 -1 0
BITMAP
00022000
008FFA7A
002B1001
019C39A0
0AA46C70
0F566F40
1F3B4F20
0AE61E60
ENDCHAR
STARTCHAR uni04310458.liga
ENCODING -1
SWIDTH 638 0
DWIDTH 6 0
BBX 7 10 -1 -2
BITMAP
00388260
008DB8C0
002C0000
019C49A0
0AA47C70
0F566F40
1F3A5F10
0AD69D00
0009BA00
000BD300
ENDCHAR
STARTCHAR uni04320436.liga
ENCODING -1
SWIDTH 1275 0
DWIDTH 11 0
BBX 13 7 -1 0
BITMAP
004C7000000000
01E38000000000
07C459D48A4A70
0C9E9179B7D240
0F56708CECD000
1F4873C6F6D000
0AE93A95E1DA20
ENDCHAR
STARTCHAR uni04320437.liga
ENCODING -1
SWIDTH 752 0
DWIDTH 7 0
BBX 8 9 -1 -2
BITMAP
004C7000
01E38000
07C45AE6
0C9E91AB
0F5670C7
1F485CB0
0AE804F1
000047F0
00006E70
ENDCHAR
STARTCHAR uni04320445.liga
ENCODING -1
SWIDTH 842 0
DWIDTH 8 0
BBX 9 7 -1 0
BITMAP
004C700000
01E3800660
07C457C270
0C9E72F910
0F5671F600
1F4848D700
0AE8647D10
ENDCHAR
STARTCHAR uni04330437.liga
ENCODING -1
SWIDTH 768 0
DWIDTH 7 0
BBX 8 7 -1 -2
BITMAP
05DC07E8
066E448D
05D560A9
1F543AC0
1DD602F3
000037F3
00004D90
ENDCHAR
STARTCHAR uni04330445.liga
ENCODING -1
SWIDTH 725 0
DWIDTH 7 0
BBX 8 5 -1 0
BITMAP
05DC8C66
066E5E64
05D52F60
1F518E50
1DD918C1
ENDCHAR
STARTCHAR uni04330447.liga
ENCODING -1
SWIDTH 834 0
DWIDTH 8 0
BBX 9 5 -1 0
BITMAP
05DC2F3D60
066E5F2F30
05D59FAF00
1F53679D00
1DC6004E40
ENDCHAR
STARTCHAR uni04530437.liga
ENCODING -1
SWIDTH 768 0
DWIDTH 7 0
BBX 8 9 -1 -2
BITMAP
00094000
00060000
05DC07E8
066E448D
05D560A9
1F543AC0
1DD602F3
000037F3
00004D90
ENDCHAR
STARTCHAR uni04530445.liga
ENCODING -1
SWIDTH 725 0
DWIDTH 7 0
BBX 8 7 -1 0
BITMAP
00085000
000A0000
05DC8C66
066E5E64
05D52F60
1F518E50
1DD918C1
ENDCHAR
STARTCHAR uni04530447.liga
ENCODING -1
SWIDTH 834 0
DWIDTH 8 0
BBX 9 7 -1 0
BITMAP
0009400000
0006000000
05DC2F3D60
066E5F2F30
05D59FAF00
1F53679D00
1DC6004E40
ENDCHAR
STARTCHAR uni04340447.liga
ENCODING -1
SWIDTH 965 0
DWIDTH 9 0
BBX 10 7 -1 -2
BITMAP
02C9F3E5B9
0AA4F2F3E6
0E57C5FAF3
1F4BA667F1
0BDE9202E6
028F300000
04DA000000
ENDCHAR
STARTCHAR uni04340458.liga
ENCODING -1
SWIDTH 715 0
DWIDTH 6 0
BBX 8 10 -1 -2
BITMAP
00000043
00000088
00000000
02C9F3E5
0AA4F2F2
0E57C5E0
1F4BA8B0
0BDE7B80
027F4E50
04DADB00
ENDCHAR
STARTCHAR uni04350437.liga
ENCODING -1
SWIDTH 804 0
DWIDTH 7 0
BBX 9 7 -1 -2
BITMAP
01BA25DC10
0A99363F30
0E94505D00
1F4155E300
0BD800C800
000006D700
00001CD100
ENDCHAR
STARTCHAR uni04350445.liga
ENCODING -1
SWIDTH 747 0
DWIDTH 7 0
BBX 8 6 -1 0
BITMAP
00000023
01BA5F39
0A993F84
0E940D80
1F505D90
0AEA35E3
ENDCHAR
STARTCHAR uni04350447.liga
ENCODING -1
SWIDTH 844 0
DWIDTH 8 0
BBX 9 5 -1 0
BITMAP
01BA3F4C70
0A996F2F50
0E947FDF20
1F43478E00
0BD6003E40
ENDCHAR
STARTCHAR uni04510437.liga
ENCODING -1
SWIDTH 804 0
DWIDTH 7 0
BBX 9 9 -1 -2
BITMAP
00C4A00000
0010100000
01BA25DC10
0A99363F30
0E94505D00
1F4155E300
0BD800C800
000006D700
00001CD100
ENDCHAR
STARTCHAR uni04510445.liga
ENCODING -1
SWIDTH 747 0
DWIDTH 7 0
BBX 8 7 -1 0
BITMAP
00C4A000
00101023
01BA5F39
0A993F84
0E940D80
1F505D90
0AEA35E3
ENDCHAR
STARTCHAR uni04510447.liga
ENCODING -1
SWIDTH 844 0
DWIDTH 8 0
BBX 9 7 -1 0
BITMAP
00C4A00000
0010100000
01BA3F4C70
0A996F2F50
0E947FDF20
1F43478E00
0BD6003E40
ENDCHAR
STARTCHAR uni04360447.liga
ENCODING -1
SWIDTH 1341 0
DWIDTH 12 0
BBX 13 5 -1 0
BITMAP
07C66C3A98B5E0
035C8AB45B97C0
006DDCF01FAD90
2597E6F0757D60
2AA3F1CB400BB0
ENDCHAR
STARTCHAR uni04370437.liga
ENCODING -1
SWIDTH 849 0
DWIDTH 8 0
BBX 8 7 0 -2
BITMAP
1BE71BE4
729C60C9
60B851E5
0BC33D90
03F607E0
48F168D0
5D808E50
ENDCHAR
STARTCHAR uni04380447.liga
ENCODING -1
SWIDTH 964 0
DWIDTH 9 0
BBX 10 5 -1 0
BITMAP
07C4F1E5B9
0A97D2F3E6
0D7AA5FAF3
1F5D7667F1
0DC9D302E5
ENDCHAR
STARTCHAR uni04390447.liga
ENCODING -1
SWIDTH 964 0
DWIDTH 9 0
BBX 10 7 -1 0
BITMAP
0083410000
0068500000
07C4F1E5B9
0A97D2F3E6
0D7AA5FAF3
1F5D7667F1
0DC9D302E5
ENDCHAR
STARTCHAR uni043A0447.liga
ENCODING -1
SWIDTH 978 0
DWIDTH 9 0
BBX 10 5 -1 0
BITMAP
07C3C4C79B
0AC911F4C8
0DBE73FAF5
1F3C7656F2
4F19D401D7
ENDCHAR
STARTCHAR uni045C0447.liga
ENCODING -1
SWIDTH 978 0
DWIDTH 9 0
BBX 10 7 -1 0
BITMAP
0005700000
0005000000
07C3C4C79B
0AC911F4C8
0DBE73FAF5
1F3C7656F2
4F19D401D7
ENDCHAR
STARTCHAR uni043B0447.liga
ENCODING -1
SWIDTH 1015 0
DWIDTH 9 0
BBX 11 5 -1 0
BITMAP
0009E77C4F10
0036E5A97D00
0074F2DCDA00
3894E366C700
2B73E800AC00
ENDCHAR
STARTCHAR uni043C0447.liga
ENCODING -1
SWIDTH 1231 0
DWIDTH 11 0
BBX 12 5 -1 0
BITMAP
000F61E78B5F
003F67F4B88C
006D7BF1ECE9
387BD9D465D7
2A6AC3E800AB
ENDCHAR
STARTCHAR uni043D0447.liga
ENCODING -1
SWIDTH 965 0
DWIDTH 9 0
BBX 10 5 -1 0
BITMAP
07C2F1E6A9
0AA5D2F3D6
0DCCA5F7F3
1F4B8767F1
4F19D402E5
ENDCHAR
STARTCHAR uni043E0436.liga
ENCODING -1
SWIDTH 1268 0
DWIDTH 11 0
BBX 13 5 -1 0
BITMAP
01BA48D3995B60
0A96B188C7D240
0E56509CFCC000
1F4A62C6F6C000
0BE65A96C2D920
ENDCHAR
STARTCHAR uni043E0437.liga
ENCODING -1
SWIDTH 765 0
DWIDTH 7 0
BBX 8 7 -1 -2
BITMAP
01BB38E8
0AA6C28D
0E5650B8
1F4B2AC0
0BE602F3
000037F2
00005D90
ENDCHAR
STARTCHAR uni043E043B.liga
ENCODING -1
SWIDTH 945 0
DWIDTH 9 0
BBX 10 5 -1 0
BITMAP
01BB300AE6
0AA47055F3
0E565084F1
1F4B6695D0
0BEB7B63E3
ENDCHAR
STARTCHAR uni043E043C.liga
ENCODING -1
SWIDTH 1161 0
DWIDTH 10 0
BBX 12 5 -1 0
BITMAP
01BB302F42F5
0AA4705F58F2
0E56507E6CE0
1F4B667DC9C0
0BEB7A5CB4E2
ENDCHAR
STARTCHAR uni043E0445.liga
ENCODING -1
SWIDTH 835 0
DWIDTH 8 0
BBX 9 6 -1 0
BITMAP
0000000320
01BA38D470
0AA7B8F720
0F5653F600
2F3A38E600
0BC6578D10
ENDCHAR
STARTCHAR uni043F0447.liga
ENCODING -1
SWIDTH 965 0
DWIDTH 9 0
BBX 10 5 -1 0
BITMAP
07EDA0E5B9
0AA7C2F3E6
0D69A5FAF3
1F4B7667F1
4F18D302E5
ENDCHAR
STARTCHAR uni04400437.liga
ENCODING -1
SWIDTH 818 0
DWIDTH 7 0
BBX 9 8 -1 -2
BITMAP
0370000000
08ECA3CD10
0BA4F61F50
0E76D04E10
2F4B94E500
5FDC10AA00
8C0006C900
A7000BD200
ENDCHAR
STARTCHAR uni04410437.liga
ENCODING -1
SWIDTH 804 0
DWIDTH 7 0
BBX 9 7 -1 -2
BITMAP
01BA25DC10
0A94263F30
0E50505D00
1F4155E300
0BD800C800
000006D700
00001CD100
ENDCHAR
STARTCHAR uni04410445.liga
ENCODING -1
SWIDTH 740 0
DWIDTH 7 0
BBX 8 6 -1 0
BITMAP
00000023
02BB5F39
0B942F64
1F400E90
2F405D80
0BEA46E1
ENDCHAR
STARTCHAR uni04410447.liga
ENCODING -1
SWIDTH 843 0
DWIDTH 8 0
BBX 9 5 -1 0
BITMAP
01BA3F4C70
0A945F2F50
0E508F9F20
1F43578E00
0BD7003E50
ENDCHAR
STARTCHAR uni04420447.liga
ENCODING -1
SWIDTH 1211 0
DWIDTH 11 0
BBX 12 5 -1 0
BITMAP
07EDABD0B97C
0AB7D4F1E6B9
0D6AA6D1FBF6
1F4D78A555F4
4F1F45E600D8
ENDCHAR
STARTCHAR uni04430447.liga
ENCODING -1
SWIDTH 943 0
DWIDTH 8 0
BBX 10 7 -1 -2
BITMAP
07C4F2F2E6
0A97D5E2F3
0D6AA8EBF0
1F5E7669D0
0DDF7104E3
049F100000
06D7000000
ENDCHAR
STARTCHAR uni04430458.liga
ENCODING -1
SWIDTH 694 0
DWIDTH 6 0
BBX 8 10 -1 -2
BITMAP
00000052
000000B5
00000000
07C4F2F3
0A97D5E0
0D7AA8C0
1F5D7A80
0DCF5D50
049F5F20
07EAE900
ENDCHAR
STARTCHAR uni045E0447.liga
ENCODING -1
SWIDTH 943 0
DWIDTH 8 0
BBX 10 10 -1 -2
BITMAP
0083410000
0068500000
0000000000
07C4F2F2E6
0A97D5E2F3
0D6AA8EBF0
1F5E7669D0
0DDF7104E3
049F100000
06D7000000
ENDCHAR
STARTCHAR uni045E0458.liga
ENCODING -1
SWIDTH 694 0
DWIDTH 6 0
BBX 8 10 -1 -2
BITMAP
00834194
00685083
00000000
07C4F2F3
0A97D5E0
0D7AA8C0
1F5D7A80
0DCF5D50
038E3F20
07EAE900
ENDCHAR
STARTCHAR uni04440437.liga
ENCODING -1
SWIDTH 1076 0
DWIDTH 10 0
BBX 11 9 -1 -2
BITMAP
000087000000
0000D5000000
01C9F9D2AE50
0AA4E0EA1BA0
0F57B0F30D50
1F4B86E1CA00
0BDEDD405F00
001F20058E00
005B0007E600
ENDCHAR
STARTCHAR uni04450447.liga
ENCODING -1
SWIDTH 981 0
DWIDTH 9 0
BBX 9 6 0 0
BITMAP
0007500000
1AC36C88B0
52F91E5B80
60F53FAF50
17D6666F30
546E501D70
ENDCHAR
STARTCHAR uni04470447.liga
ENCODING -1
SWIDTH 964 0
DWIDTH 9 0
BBX 9 5 0 0
BITMAP
7C4F1E5B90
A97D2F3E60
BCEA5FAF30
36C7667F10
009D302E50
ENDCHAR
STARTCHAR uni04480447.liga
ENCODING -1
SWIDTH 1211 0
DWIDTH 11 0
BBX 12 5 -1 0
BITMAP
07C4F1F4B97C
0A97D3F1E6B9
0D7AA6D2FBF6
1F5D7AB555F4
0DC9D8E500D8
ENDCHAR
STARTCHAR uni045F0447.liga
ENCODING -1
SWIDTH 964 0
DWIDTH 9 0
BBX 10 7 -1 -2
BITMAP
07C4F1E5B9
0A97D2F3E6
0D7AA5FAF3
1F5D7667F1
0DEBD302E5
0097000000
0056000000
ENDCHAR
STARTCHAR uni044B0447.liga
ENCODING -1
SWIDTH 1112 0
DWIDTH 10 0
BBX 10 5 0 0
BITMAP
7B05C69A6E
AAD5F3C7AB
D587F1EDF8
F3B7D454E6
BD63E700B9
ENDCHAR
STARTCHAR uni04550437.liga
ENCODING -1
SWIDTH 768 0
DWIDTH 7 0
BBX 8 8 -1 -2
BITMAP
00120000
00DA09E8
03CB438D
078C70A9
378E4AC0
1BD702F3
000036F3
00004D90
ENDCHAR
STARTCHAR uni04550445.liga
ENCODING -1
SWIDTH 712 0
DWIDTH 6 0
BBX 8 5 -1 0
BITMAP
00B98B94
03EB5D53
079C3F60
398D7F40
1BD71AB0
ENDCHAR
STARTCHAR uni04550447.liga
ENCODING -1
SWIDTH 864 0
DWIDTH 8 0
BBX 9 6 -1 0
BITMAP
0022000000
00DA0D79A0
04CB1F4D70
078C6FAF40
388D556F20
1BD6001D70
ENDCHAR
STARTCHAR uni04540437.liga
ENCODING -1
SWIDTH 804 0
DWIDTH 7 0
BBX 9 7 -1 -2
BITMAP
01AA25DC10
0AB5163F30
0E40505D00
1F4155E300
0BD800C800
000006D700
00001CD100
ENDCHAR
STARTCHAR uni04540445.liga
ENCODING -1
SWIDTH 740 0
DWIDTH 7 0
BBX 8 6 -1 0
BITMAP
00000023
02CB6F39
0B943F65
1FB40EA0
2F404D80
0BEA46D1
ENDCHAR
STARTCHAR uni04540447.liga
ENCODING -1
SWIDTH 844 0
DWIDTH 8 0
BBX 9 5 -1 0
BITMAP
01BA3F4C70
0AA45F2E50
0EB48F8F20
1F43679E00
0BD7003E40
ENDCHAR
STARTCHAR uni044D0437.liga
ENCODING -1
SWIDTH 765 0
DWIDTH 7 0
BBX 8 7 -1 -2
BITMAP
05DE5AE8
009ED28D
010F50B8
474D1AC0
2AB302F3
000037F2
00005D90
ENDCHAR
STARTCHAR uni04560447.liga
ENCODING -1
SWIDTH 717 0
DWIDTH 6 0
BBX 7 7 0 0
BITMAP
1D100000
07000000
7C2F2E50
A95E2F30
D78EBF00
F4669C00
CC105E30
ENDCHAR
STARTCHAR uni04570447.liga
ENCODING -1
SWIDTH 718 0
DWIDTH 6 0
BBX 7 7 0 0
BITMAP
B4B00000
10100000
7C2F2E50
A95E2F30
D78EBF00
F4669C00
CC105E30
ENDCHAR
STARTCHAR uni04570457.liga
ENCODING -1
SWIDTH 476 0
DWIDTH 4 0
BBX 7 7 -1 0
BITMAP
0B88BA20
01111100
07C1F300
0A94F100
0D77C000
1F4BA000
0DC8D100
ENDCHAR
STARTCHAR uni04580447.liga
ENCODING -1
SWIDTH 697 0
DWIDTH 6 0
BBX 9 10 -2 -2
BITMAP
0016000000
002D100000
0000000000
007C5E2F30
00A98B5F00
00D7BDCC00
01F466BA00
06F4007D10
7CC0000000
8D50000000
ENDCHAR
STARTCHAR uni04580458.liga
ENCODING -1
SWIDTH 449 0
DWIDTH 4 0
BBX 7 10 -2 -2
BITMAP
00160610
002D1D30
00000000
007C5E00
00A98C00
00D6B800
01F3E500
05F6F200
6BC6E000
9EAE6000
ENDCHAR
STARTCHAR uni045B0447.liga
ENCODING -1
SWIDTH 937 0
DWIDTH 8 0
BBX 10 10 -1 -2
BITMAP
0011000000
02F2000000
09F8100000
08DD73F2E5
0BA9B6D3F2
0D5A98FDE0
1F3D6569C0
4F5F5005E3
06BE000000
06D7000000
ENDCHAR
STARTCHAR uni045B0458.liga
ENCODING -1
SWIDTH 691 0
DWIDTH 6 0
BBX 8 10 -1 -2
BITMAP
00410052
02F200B5
09F81000
08DD72F2
0BA9B5E0
0D5B88B0
1F3E6B80
4F5F4E50
06AE4F20
05EAE900
ENDCHAR
STARTCHAR uni044E0436.liga
ENCODING -1
SWIDTH 1503 0
DWIDTH 14 0
BBX 15 5 -1 0
BITMAP
07C0A957C57B4A80
0AA7B5C26AA8C240
0DCE74707DECE000
1F4F6864B6F6D000
4F1AE84AA4E1DA30
ENDCHAR
STARTCHAR uni044E0437.liga
ENCODING -1
SWIDTH 1001 0
DWIDTH 9 0
BBX 10 7 -1 -2
BITMAP
07B3CA79D9
0ACEB4E36F
0D5F75709A
1F2E6A38D1
4F08E800F5
00000026F4
0000003DA0
ENDCHAR
STARTCHAR uni044E043B.liga
ENCODING -1
SWIDTH 1181 0
DWIDTH 11 0
BBX 12 5 -1 0
BITMAP
07C0AA5009E8
0AA7B29037D5
0DCE747064F2
1F4F696794F0
4F1AEC6B72E5
ENDCHAR
STARTCHAR uni044E043C.liga
ENCODING -1
SWIDTH 1396 0
DWIDTH 13 0
BBX 14 5 -1 0
BITMAP
07C0AA500F61E7
0AA7B2903F76F4
0DCE74706E7BF1
1F4F69667BC9E0
4F1AEC6A6AD3E4
ENDCHAR
STARTCHAR uni044E0445.liga
ENCODING -1
SWIDTH 1072 0
DWIDTH 10 0
BBX 11 6 -1 0
BITMAP
000000000330
07C0A956F380
0AA7B5B7F640
0DCE7470F800
1F4F6838D800
4F1AD8396D20
ENDCHAR
STARTCHAR uni044F0447.liga
ENCODING -1
SWIDTH 984 0
DWIDTH 9 0
BBX 10 5 -1 0
BITMAP
01B9F3B88B
05C3F1E5C9
01CAC2FCF6
4999A545F3
2B66E500D8
ENDCHAR
STARTCHAR brevecombcy
ENCODING -1
SWIDTH 0 0
DWIDTH 0 0
BBX 4 2 -3 5
BITMAP
6523
4960
ENDCHAR
STARTCHAR brevecombcy.case
ENCODING -1
SWIDTH 0 0
DWIDTH 0 0
BBX 4 2 -3 8
BITMAP
1A05
0982
ENDCHAR
ENDFONT
